<?xml version="1.0" encoding="UTF-8"?>
<svg xmlns="http://www.w3.org/2000/svg" xmlns:xlink="http://www.w3.org/1999/xlink" version="1.2" >
<font id="Banny Bold Round">
<font-face  font-family="Banny" units-per-em="1024" ascent="975" descent="-300" font-style="normal" font-weight="700" font-stretch="normal" cap-height="999" x-height="488" underline-position="-125" underline-thickness="50" />
<missing-glyph  horiz-adv-x="100" d="" />
<glyph glyph-name="NULL" d="" />
<glyph glyph-name="CR" unicode="&#xd;" horiz-adv-x="256" d="" />
<glyph glyph-name="space" unicode="&#x20;" horiz-adv-x="250" d="" />
<glyph glyph-name="exclam" unicode="&#x21;" horiz-adv-x="225" d="M112.44 0 L114.56 0 C148.473 0 176 27.527 176 61.44 L176 63.56 C176 97.473 148.473 125 114.56 125 L112.44 125 C78.527 125 51 97.473 51 63.56 L51 61.44 C51 27.527 78.527 0 112.44 0 L112.44 0 Z M45 688.56 L45 446.601 C45 445.827 46.2379 434.306 46.4023 433.549 L91.2825 227.101 C93.2876 217.877 103.061 210 112.5 210 C121.939 210 131.712 217.877 133.718 227.101 L178.598 433.549 C178.762 434.306 180 445.827 180 446.601 L180 688.56 C180 722.473 152.473 750 118.56 750 L106.44 750 C72.527 750 45 722.473 45 688.56 L45 688.56 Z " />
<glyph glyph-name="quotedbl" unicode="&#x22;" horiz-adv-x="465" d="M268 692.5 L268 638.228 C268 637.033 269.85 623.215 270.165 622.062 L290.764 546.531 C294.617 532.403 310.856 520 325.5 520 C340.144 520 356.383 532.403 360.236 546.531 L380.835 622.062 C381.15 623.215 383 637.033 383 638.228 L383 692.5 C383 724.238 357.238 750 325.5 750 C293.762 750 268 724.238 268 692.5 L268 692.5 Z M80 692.5 L80 638.228 C80 637.033 81.8505 623.215 82.1649 622.062 L102.764 546.531 C106.617 532.403 122.856 520 137.5 520 C152.144 520 168.383 532.403 172.236 546.531 L192.835 622.062 C193.15 623.215 195 637.033 195 638.228 L195 692.5 C195 724.238 169.238 750 137.5 750 C105.762 750 80 724.238 80 692.5 L80 692.5 Z " />
<glyph glyph-name="numbersign" unicode="&#x23;" horiz-adv-x="670" d="M477.96 742.068 L462.01 620.451 C458.174 591.198 430.595 567 401.092 567 L338.024 567 C299.701 567 272.122 598.432 277.105 636.429 L290.96 742.068 C291.529 746.409 288.378 750 284 750 C279.622 750 275.529 746.409 274.96 742.068 L259.01 620.451 C255.174 591.198 227.595 567 198.092 567 L123.518 567 C97.5758 567 72.8216 545.66 69 520 C65.1784 494.34 83.5758 473 109.518 473 L168.872 473 C207.244 473 234.824 441.52 229.778 403.481 L220.078 330.361 C216.205 301.163 188.625 277 159.172 277 L75.5184 277 C49.5758 277 24.8216 255.66 21 230 C17.1784 204.34 35.5758 183 61.5184 183 L129.976 183 C168.299 183 195.878 151.568 190.895 113.571 L177.04 7.93208 C176.471 3.59098 179.622 0 184 0 C188.378 0 192.471 3.59098 193.04 7.93208 L208.99 129.549 C212.826 158.802 240.405 183 269.908 183 L332.976 183 C371.299 183 398.878 151.568 393.895 113.571 L380.04 7.93208 C379.471 3.59098 382.622 0 387 0 C391.378 0 395.471 3.59098 396.04 7.93208 L411.99 129.549 C415.826 158.802 443.405 183 472.908 183 L540.482 183 C566.424 183 591.178 204.34 595 230 C598.822 255.66 580.424 277 554.482 277 L502.128 277 C463.756 277 436.176 308.48 441.222 346.519 L450.922 419.639 C454.795 448.837 482.375 473 511.828 473 L588.482 473 C614.424 473 639.178 494.34 643 520 C646.822 545.66 628.424 567 602.482 567 L541.024 567 C502.701 567 475.122 598.432 480.105 636.429 L493.96 742.068 C494.529 746.409 491.378 750 487 750 C482.622 750 478.529 746.409 477.96 742.068 L477.96 742.068 Z M308.828 473 L371.872 473 C410.244 473 437.824 441.52 432.778 403.481 L423.078 330.361 C419.205 301.163 391.625 277 362.172 277 L299.128 277 C260.756 277 233.176 308.48 238.222 346.519 L247.922 419.639 C251.795 448.837 279.375 473 308.828 473 L308.828 473 Z " />
<glyph glyph-name="dollar" unicode="&#x24;" horiz-adv-x="625" d="M328 788.5 L328 760.732 C328 756.185 323.197 753.12 318.733 753.989 C307.936 756.093 297.213 757.461 286.82 758.349 C282.528 758.716 278 762.707 278 767.016 L278 792 C278 810.215 263.215 825 245 825 L239.5 825 C219.353 825 203 808.647 203 788.5 C203 772.453 181.533 746.762 166.582 740.936 C86 709.531 37 639.75 37 547 C37 463 79.875 400.438 164.285 360.652 C181.883 352.358 203 320.676 203 301.222 L203 77.0167 C203 61.7555 188.735 55.3208 176.467 64.3984 C138.48 92.5072 105.928 131.322 81.6043 180.378 C79.2609 185.104 73.2201 187.165 69 184 C64.5157 180.637 63.5592 172.508 66.0766 167.5 C92.9556 114.027 129.835 72.5965 173.456 43.674 C184.626 36.268 204 5.86106 204 -7.54102 L204 -35.5 C204 -56.1989 220.801 -73 241.5 -73 L242.5 -73 C262.647 -73 279 -56.6469 279 -36.5 L279 -8.13941 C279 -3.81655 283.553 -0.848239 287.82 -1.53719 C298.213 -3.21488 308.936 -4.4876 319.733 -5.35537 C324.304 -5.7227 329 -9.92956 329 -14.5147 L329 -39 C329 -57.215 343.785 -72 362 -72 L369 -72 C388.319 -72 404 -56.319 404 -37 C404 -20.5636 423.54 1.12805 439.368 5.56 C539.97 33.73 591 110.5 591 214 C591 310.25 542 380.469 447.35 421.977 C428.765 430.127 404 463.031 404 483.324 L404 682.94 C404 695.547 416.441 701.139 427.089 694.389 C462.24 672.109 497.167 642.789 530.846 606.429 C532.562 604.577 535.583 604.357 537.5 606 L541 609 L544.5 612.5 C545.88 613.88 545.88 616.12 544.5 617.5 L542 620 C505.7 659.6 467.358 691.033 428.659 714.298 C418.775 720.24 404 742.854 404 754.387 L404 790.947 C404 811.922 386.946 828.102 366 827 L364.45 826.918 C344.358 825.861 328 808.619 328 788.5 L328 788.5 Z M279 473.762 L279 737.984 C279 742.495 283.326 745.734 287.82 745.349 C298.213 744.461 308.936 743.093 319.733 740.989 C324.564 740.048 329 735.19 329 730.268 L329 465.124 C329 460.099 324.232 456.792 319.287 457.686 C308.085 459.711 297.361 461.938 287.374 464.368 C283.236 465.374 279 469.504 279 473.762 L279 473.762 Z M192.639 510.663 C177.364 525.736 170 543.364 170 563 C170 614.85 179.392 658.03 195.107 689.469 C197.781 694.819 204 691.842 204 685.862 L204 515.3 C204 508.523 197.463 505.903 192.639 510.663 L192.639 510.663 Z M288.348 326.358 C299.313 324.427 310.389 322.424 320.545 320.089 C324.762 319.119 329 314.565 329 310.238 L329 20.5147 C329 15.6429 324.581 12.2537 319.733 12.7378 C308.936 13.8159 298.213 15.6304 287.82 17.9234 C283.354 18.9088 279 23.6726 279 28.2462 L279 319.369 C279 324.059 283.729 327.171 288.348 326.358 L288.348 326.358 Z M422.724 280.418 C449.387 261.336 463 238.05 463 210 C463 137.75 448.55 80.6725 420.264 46.7511 C412.693 37.6716 404 43.7799 404 55.6018 L404 269.853 C404 281.404 413.331 287.141 422.724 280.418 L422.724 280.418 Z " />
<glyph glyph-name="percent" unicode="&#x25;" horiz-adv-x="780" d="M594 0 C554 0 533 56 533 141 C533 226 554 282 594 282 C635 282 656 226 656 141 C656 56 635 0 594 0 L594 0 Z M594 -9 C678 -9 721 51 721 141 C721 231 678 291 594 291 C511 291 468 231 468 141 C468 51 511 -9 594 -9 L594 -9 Z M186 468 C145 468 124 524 124 609 C124 694 145 750 186 750 C226 750 247 694 247 609 C247 524 226 468 186 468 L186 468 Z M186 459 C269 459 312 519 312 609 C312 699 269 759 186 759 C102 759 59 699 59 609 C59 519 102 459 186 459 L186 459 Z M180 0 C189.632 0 205.066 9.04619 209.772 17.4501 L610.228 732.55 C614.934 740.954 609.632 750 600 750 C590.368 750 574.934 740.954 570.228 732.55 L169.772 17.4501 C165.066 9.04619 170.368 0 180 0 L180 0 Z " />
<glyph glyph-name="ampersand" unicode="&#x26;" horiz-adv-x="678" d="M617 9.5 C616.49 13.3257 613.511 15.9762 609.849 14.7587 C598.455 10.9714 584.852 8.27821 572.744 7.35243 C572.744 7.35243 570.26 10.1387 570.26 10.1387 L571.735 6.42075 C571.735 6.42075 569.252 9.20703 569.252 9.20703 C575.357 17.9492 555.658 52.1445 520.701 102.512 C513.237 113.266 511.07 149.533 515.484 161.857 C534.146 213.959 544.04 275.213 543.118 343.571 C543.058 348.015 539.312 350.922 535 352 C530.773 353.057 527.055 352.228 527.122 347.871 C528.123 282.712 519.573 224.642 503.006 175.195 C498.086 160.508 481.254 157.62 472.224 170.205 C405.224 263.59 336.944 357.455 308.344 395.48 C303.564 401.835 305.808 412.794 312.891 416.406 C405.532 463.65 466 516.85 466 552 C466 637 401 694 303 694 C199 694 129 627 129 527 C129 470.9 148.507 413.355 180.153 374.631 C187.727 365.363 180.314 347.151 169.921 341.215 C88.84 294.91 37 232 37 178 C37 59 138 -21 290 -21 C338.675 -21 381.905 -6.70688 418.567 19.0718 C427.573 25.4044 453.167 26.8944 462.332 20.7944 C504.09 -6.99781 559.528 -22.7089 614.047 -1.0707 C617.956 0.480923 617.556 5.3308 617 9.5 L617 9.5 Z M277.701 431.744 C253.895 459.732 238 498.45 238 535 C238 621 264 679 304 679 C342 679 368 626 368 546 C368 497.875 344.266 452.813 307.516 427.561 C294.79 418.817 287.705 419.983 277.701 431.744 L277.701 431.744 Z M213.748 333.652 C235.828 301.797 285.375 233 351 142 C372.45 111.475 393.219 84.3531 414.431 61.7574 C421.461 54.2689 421.846 42.2259 413.707 35.9609 C379.391 9.54688 338.375 -5 292 -5 C211 -5 157 74 157 192 C157 261.125 171.547 314.555 195.281 336.881 C202.823 343.975 207.85 342.162 213.748 333.652 L213.748 333.652 Z " />
<glyph glyph-name="quotesingle" unicode="&#x27;" horiz-adv-x="245" d="M80 692.5 L80 638.228 C80 637.033 81.8505 623.215 82.1649 622.062 L102.764 546.531 C106.617 532.403 122.856 520 137.5 520 C152.144 520 168.383 532.403 172.236 546.531 L192.835 622.062 C193.15 623.215 195 637.033 195 638.228 L195 692.5 C195 724.238 169.238 750 137.5 750 C105.762 750 80 724.238 80 692.5 L80 692.5 Z " />
<glyph glyph-name="parenleft" unicode="&#x28;" horiz-adv-x="360" d="M280.68 778.013 C161.37 668.307 100 518.35 100 335 C100 158.3 161.37 11.3825 280.68 -98.0361 C293.463 -109.759 308.477 -105.463 320 -92.5 C330.237 -80.9836 327.431 -59.4637 316.371 -48.7357 C222.915 41.9138 175 172.2 175 335 C175 504.275 222.915 637.614 316.371 728.685 C327.379 739.412 330.212 761.011 320 772.5 C308.462 785.48 293.464 789.768 280.68 778.013 L280.68 778.013 Z " />
<glyph glyph-name="parenright" unicode="&#x29;" horiz-adv-x="320" d="M79.3195 -98.0135 C198.63 11.6925 260 161.65 260 345 C260 521.7 198.63 668.617 79.3195 778.036 C66.5368 789.759 51.5229 785.463 40 772.5 C29.7632 760.984 32.5692 739.464 43.6294 728.736 C137.085 638.086 185 507.8 185 345 C185 175.725 137.085 42.3862 43.6294 -48.6846 C32.6208 -59.4123 29.788 -81.0115 40 -92.5 C51.5378 -105.48 66.5357 -109.768 79.3195 -98.0135 L79.3195 -98.0135 Z " />
<glyph glyph-name="asterisk" unicode="&#x2a;" horiz-adv-x="406" d="M339 694 L338 693 L338 694 L339 694 L339 694 Z M297.477 528.142 L273.482 547.416 C251.422 565.136 262.233 598.223 290.5 599.5 L320.614 600.86 C345.775 601.996 360.965 624.106 353 648 C344.997 672.01 319.502 680.861 298.343 666.975 L274 651 C250.621 635.658 222.811 655.868 230.183 682.842 L238.344 712.698 C245.083 737.351 228.557 759 203 759 C177.474 759 161.023 737.348 167.863 712.756 L176 683.5 C183.661 655.956 155.294 635.172 131.34 650.779 L105.141 667.848 C83.7233 681.801 58.0034 672.777 50 648.5 L43.1465 627.711 C38.8434 614.658 49.2697 602.444 63 601.838 C97.6667 600.308 132.333 598.494 167 596.987 C176.348 596.58 177.968 585.617 170.65 579.786 L105.549 527.917 C85.6041 512.026 86.2842 484.873 107 470 C127.777 455.083 153.861 463.01 162.824 486.966 L173.664 515.938 C183.594 542.478 218.511 542.517 228.5 516 L239.033 488.04 C248.112 463.939 274.364 455.785 295.5 470.5 C316.418 485.063 317.348 512.18 297.477 528.142 L297.477 528.142 Z " />
<glyph glyph-name="plus" unicode="&#x2b;" horiz-adv-x="590" d="M258 163.56 L258 37.5 C258 16.8011 274.801 0 295.5 0 C316.199 0 333 16.8011 333 37.5 L333 163.56 C333 197.473 360.527 225 394.44 225 L530 225 C549.319 225 565 240.681 565 260 C565 279.319 549.319 295 530 295 L394.44 295 C360.527 295 333 322.527 333 356.44 L333 482.5 C333 503.199 316.199 520 295.5 520 C274.801 520 258 503.199 258 482.5 L258 356.44 C258 322.527 230.473 295 196.56 295 L60 295 C40.681 295 25 279.319 25 260 C25 240.681 40.681 225 60 225 L196.56 225 C230.473 225 258 197.473 258 163.56 L258 163.56 Z " />
<glyph glyph-name="comma" unicode="&#x2c;" horiz-adv-x="225" d="M50 63.56 L50 25 C50 11.2007 61.2007 0 75 0 L78.5 0 C92.134 0 100.701 -6.75238 98.6709 -20.2345 C95.3266 -42.4486 85.4759 -54.3432 66.9216 -58.3899 C59.2829 -60.0559 50 -70.1817 50 -78 L50 -90 C50 -108.446 62.8851 -120.473 81.2109 -118.371 C148.203 -110.688 175 -75.25 175 0 L175 63.56 C175 97.473 147.473 125 113.56 125 L111.44 125 C77.527 125 50 97.473 50 63.56 L50 63.56 Z " />
<glyph glyph-name="hyphen" unicode="&#x2d;" horiz-adv-x="365" d="M97.5 216 L267.5 216 C293.719 216 315 237.281 315 263.5 C315 289.719 293.719 311 267.5 311 L97.5 311 C71.2814 311 50 289.719 50 263.5 C50 237.281 71.2814 216 97.5 216 L97.5 216 Z " />
<glyph glyph-name="period" unicode="&#x2e;" horiz-adv-x="225" d="M111.44 0 L113.56 0 C147.473 0 175 27.527 175 61.44 L175 63.56 C175 97.473 147.473 125 113.56 125 L111.44 125 C77.527 125 50 97.473 50 63.56 L50 61.44 C50 27.527 77.527 0 111.44 0 L111.44 0 Z " />
<glyph glyph-name="slash" unicode="&#x2f;" horiz-adv-x="320" d="M25 0 C37.9835 0 54.0702 11.3061 58.468 23.5222 L311.532 726.478 C315.93 738.694 307.984 750 295 750 C282.016 750 265.93 738.694 261.532 726.478 L8.46799 23.5222 C4.07021 11.3061 12.0165 0 25 0 L25 0 Z " />
<glyph glyph-name="zero" unicode="0" horiz-adv-x="700" d="M185 375 C185 607 246 743 349 743 C452 743 512 607 512 375 C512 132 457 7 349 7 C241 7 185 132 185 375 L185 375 Z M52 375 C52 122 153 -9 349 -9 C544 -9 645 122 645 375 C645 617 535 759 349 759 C162 759 52 617 52 375 L52 375 Z " />
<glyph glyph-name="one" unicode="1" horiz-adv-x="430" d="M330 61.44 L330 700 C330 727.599 307.599 750 280 750 L257.816 750 C246.278 750 219.259 737.768 211.647 729.098 L57.9176 554.017 C55.0341 550.733 50 537.37 50 533 C50 528.642 55.0278 526.756 57.8947 530.037 L126 608 C153.598 639.593 202 621.429 202 579.479 L202 61.44 C202 27.527 229.527 0 263.44 0 L268.56 0 C302.473 0 330 27.527 330 61.44 L330 61.44 Z " />
<glyph glyph-name="two" unicode="2" horiz-adv-x="595" d="M135.44 0 L498.56 0 C532.473 0 560 27.527 560 61.44 L560 62.56 C560 96.473 532.473 124 498.56 124 L152.478 124 C124.801 124 110.327 141.306 122.166 166.323 C150.947 227.142 203.5 263.05 286 301 C441 372 545 466 545 536 C545 670 457 759 325 759 C192 759 104 669 104 535 C104 489.675 118.546 439.216 141.305 405.784 C144.491 401.105 150.497 399.851 155.5 402.5 C159.832 404.794 161.326 410.292 158.53 414.318 C136.69 445.761 123 493.375 123 535 C123 617 180 672 266 672 C364 672 429 595 429 480 C429 420 363 350 264 305 C144.125 250.75 88.5625 198.797 76.5449 63.3906 C73.2818 26.624 98.5289 0 135.44 0 L135.44 0 Z " />
<glyph glyph-name="three" unicode="3" horiz-adv-x="599" d="M52.7095 180.15 C77.725 64.695 170.8 -9 300 -9 C452 -9 554 78 554 209 C554 286 512.656 353.813 446.717 393.01 C436.545 399.056 439.141 418.845 448.91 425.522 C495.414 457.306 524 508.25 524 566 C524 682 434 759 299 759 C183.4 759 101.035 695.42 78.9265 595.896 C69.9775 555.61 93.1727 540 134.44 540 L140 540 C169.576 540 200.88 570.712 204.476 600.069 C215.232 687.869 250.15 743 298 743 C362 743 405 668 405 555 C405 491 361 448 295 448 L255 448 C232.921 448 215 430.079 215 408 L215 380 C215 363.441 228.441 350 245 350 L275 350 C360 350 417 296 417 214 C417 90 370 8 300 8 C237.95 8 193.963 76.6375 182.162 184.434 C178.874 214.478 147.783 245 117.56 245 L107.44 245 C66.3457 245 44.0076 220.313 52.7095 180.15 L52.7095 180.15 Z " />
<glyph glyph-name="four" unicode="4" horiz-adv-x="595" d="M25 209.5 C25 205.36 28.3602 202 32.5 202 L279.56 202 C313.473 202 341 174.473 341 140.56 L341 61.44 C341 27.527 368.527 0 402.44 0 L408.56 0 C442.473 0 470 27.527 470 61.44 L470 149.5 C470 178.478 493.522 202 522.5 202 L566.5 202 C571.192 202 575 205.808 575 210.5 C575 215.192 571.192 219 566.5 219 L522.5 219 C493.522 219 470 242.522 470 271.5 L470 700 C470 727.599 447.599 750 420 750 L403.419 750 C387.934 750 360.255 734.945 351.841 721.945 L29.0754 223.296 C27.853 221.408 25 211.749 25 209.5 L25 209.5 Z M105.366 313.822 L320.511 646.256 C330.688 661.981 355.745 652.529 353 634 L341.663 557.478 C341.61 557.115 341 548.84 341 548.474 L341 280.44 C341 246.527 313.473 219 279.56 219 L156.947 219 C104.608 219 76.9297 269.882 105.366 313.822 L105.366 313.822 Z " />
<glyph glyph-name="five" unicode="5" horiz-adv-x="595" d="M109.5 342 C113.102 341.242 122.164 343.319 124.962 345.711 C151.734 368.599 205.8 384 265 384 C357 384 418 324 418 235 C418 99 371 8 301 8 C238.95 8 194.962 76.6375 183.162 184.434 C179.874 214.478 148.783 245 118.56 245 L108.44 245 C67.3457 245 45.0076 220.313 53.7095 180.15 C78.725 64.695 171.8 -9 301 -9 C453 -9 555 89 555 235 C555 387 449 488 289 488 C232.9 488 181.858 477.885 149.997 461.954 C144.145 459.027 136.669 464.235 137.631 470.708 L153.213 575.589 C157.465 604.204 185.057 628 213.986 628 L454.891 628 C486.33 628 513.873 653.602 516.168 684.956 L516.5 689.5 C518.977 723.356 493.282 751 459.336 751 L200.887 751 C170.783 751 143.217 726.374 139.836 696.46 L101.09 353.647 C100.491 348.346 104.28 343.099 109.5 342 L109.5 342 Z " />
<glyph glyph-name="six" unicode="6" horiz-adv-x="585" d="M532.938 627.172 C504.689 706.716 420.4 759 319 759 C145 759 56 603 56 369 C56 120 147 -9 324 -9 C478 -9 580 93 580 245 C580 384 482 476 335 476 C282.2 476 232.803 452.859 204.216 416.684 C200.509 411.992 189.201 417.138 189.33 423.116 C193.505 616.748 237.3 744 319 744 C412.6 744 490.99 693.617 518.022 617.876 C519.556 613.58 523.589 614.153 527.5 616.5 C531.718 619.031 534.584 622.537 532.938 627.172 L532.938 627.172 Z M331 460 C398 460 443 374 443 245 C443 102 395 7 324 7 C238 7 192 131 189 372 C192 426 248 460.5 331 460.5 L331 460 Z " />
<glyph glyph-name="seven" unicode="7" horiz-adv-x="490" d="M30 688.56 L30 688.44 C30 654.527 57.527 627 91.44 627 L311.739 627 C368.585 627 400.079 564.482 361.638 522.603 C207.619 354.808 134.936 215.221 119.966 62.079 C116.346 25.0431 141.228 0 178.44 0 L197.56 0 C230.324 0 258.951 32.2723 260.061 65.0174 C268.371 310.126 326.159 466.919 456.873 603.73 C463.362 610.521 480 643.633 480 653.026 L480 688.56 C480 722.473 452.473 750 418.56 750 L91.44 750 C57.527 750 30 722.473 30 688.56 L30 688.56 Z " />
<glyph glyph-name="eight" unicode="8" horiz-adv-x="629" d="M205 554 C205 679 249 743 316 743 C389 743 426 667 426 554 C426 454 382 409 316 409 C239 409 205 467 205 554 L205 554 Z M86 565 C86 492.4 122.754 437.496 202.999 412.642 C209.704 410.566 205.872 391.069 199.135 389.1 C110.45 363.174 56 302.825 56 203 C56 76 136 -9 315 -9 C470 -9 573 56 573 202 C573 296.5 524.766 365.734 419.588 391.615 C413.437 393.129 416.92 408.673 422.998 410.456 C498.718 432.67 545 482.5 545 565 C545 681 467 759 316 759 C178 759 86 693 86 565 L86 565 Z M194 212 C194 336 243 391 316 391 C399 391 437 320 437 214 C437 71 389 7 316 7 C232 7 194 89 194 212 L194 212 Z " />
<glyph glyph-name="nine" unicode="9" horiz-adv-x="585" d="M97.0618 122.828 C125.311 43.2844 209.6 -9 311 -9 C485 -9 574 147 574 381 C574 630 483 759 306 759 C152 759 50 657 50 505 C50 366 148 274 295 274 C347.8 274 397.197 297.141 425.784 333.316 C429.491 338.008 440.799 332.862 440.67 326.884 C436.495 133.252 392.7 6 311 6 C217.4 6 139.01 56.3831 111.978 132.124 C110.444 136.42 106.411 135.847 102.5 133.5 C98.2824 130.969 95.4158 127.463 97.0618 122.828 L97.0618 122.828 Z M299 290 C232 290 187 376 187 505 C187 648 235 743 306 743 C392 743 438 619 441 378 C438 324 382 289.5 299 289.5 L299 290 Z " />
<glyph glyph-name="colon" unicode="&#x3a;" horiz-adv-x="225" d="M111.44 395 L113.56 395 C147.473 395 175 422.527 175 456.44 L175 458.56 C175 492.473 147.473 520 113.56 520 L111.44 520 C77.527 520 50 492.473 50 458.56 L50 456.44 C50 422.527 77.527 395 111.44 395 L111.44 395 Z M111.44 0 L113.56 0 C147.473 0 175 27.527 175 61.44 L175 63.56 C175 97.473 147.473 125 113.56 125 L111.44 125 C77.527 125 50 97.473 50 63.56 L50 61.44 C50 27.527 77.527 0 111.44 0 L111.44 0 Z " />
<glyph glyph-name="semicolon" unicode="&#x3b;" horiz-adv-x="225" d="M111.44 395 L113.56 395 C147.473 395 175 422.527 175 456.44 L175 458.56 C175 492.473 147.473 520 113.56 520 L111.44 520 C77.527 520 50 492.473 50 458.56 L50 456.44 C50 422.527 77.527 395 111.44 395 L111.44 395 Z M50 63.56 L50 25 C50 11.2007 61.2007 0 75 0 L78.5 0 C92.134 0 100.701 -6.75238 98.6709 -20.2345 C95.3266 -42.4486 85.4759 -54.3432 66.9216 -58.3899 C59.2829 -60.0559 50 -70.1817 50 -78 L50 -90 C50 -108.446 62.8851 -120.473 81.2109 -118.371 C148.203 -110.688 175 -75.25 175 0 L175 63.56 C175 97.473 147.473 125 113.56 125 L111.44 125 C77.527 125 50 97.473 50 63.56 L50 63.56 Z " />
<glyph glyph-name="less" unicode="&#x3c;" horiz-adv-x="555" d="M451.276 475.441 L82.4349 318.889 C63.4144 310.816 45 282.996 45 262.333 L45 258.584 C45 237.98 63.3772 210.159 82.3286 202.073 L451.311 44.6408 C473.491 35.1771 495 49.3847 495 73.5 L495 79.5148 C495 100.754 476.221 128.566 456.521 136.503 L291.446 203.012 C237.32 224.819 237.32 295.181 291.446 316.988 L456.521 383.497 C476.221 391.434 495 419.246 495 440.485 L495 446.5 C495 470.635 473.492 484.871 451.276 475.441 L451.276 475.441 Z " />
<glyph glyph-name="equal" unicode="&#x3d;" horiz-adv-x="604" d="M39 165 C39 145.681 54.681 130 74 130 L519 130 C538.319 130 554 145.681 554 165 C554 184.319 538.319 200 519 200 L74 200 C54.681 200 39 184.319 39 165 L39 165 Z M39 365 C39 345.681 54.681 330 74 330 L519 330 C538.319 330 554 345.681 554 365 C554 384.319 538.319 400 519 400 L74 400 C54.681 400 39 384.319 39 365 L39 365 Z " />
<glyph glyph-name="greater" unicode="&#x3e;" horiz-adv-x="555" d="M263.554 203.012 L98.4794 136.503 C78.7788 128.566 60 100.754 60 79.5148 L60 73.5 C60 49.3847 81.5088 35.1771 103.689 44.6408 L472.671 202.073 C491.623 210.159 510 237.98 510 258.584 L510 262.333 C510 282.996 491.586 310.816 472.565 318.889 L103.724 475.441 C81.5082 484.871 60 470.635 60 446.5 L60 440.485 C60 419.246 78.7788 391.434 98.4794 383.497 L263.554 316.988 C317.68 295.181 317.68 224.819 263.554 203.012 L263.554 203.012 Z " />
<glyph glyph-name="question" unicode="&#x3f;" horiz-adv-x="565" d="M265.44 0 L267.56 0 C301.473 0 329 27.527 329 61.44 L329 63.56 C329 97.473 301.473 125 267.56 125 L265.44 125 C231.527 125 204 97.473 204 63.56 L204 61.44 C204 27.527 231.527 0 265.44 0 L265.44 0 Z M70.01 550.088 L87.9539 546.855 C103.978 543.968 128.774 562.667 134.297 577.983 C154.354 633.607 206.35 669 274 669 C347 669 395 623 395 555 C395 519 371 488 310 445 C239.45 395.7 217.308 360.85 212.252 266.141 C210.548 234.21 234.023 210 266 210 L274.5 210 C298.002 210 320.634 234.998 322.616 258.416 C327.32 314 343.8 337.2 391 370 C480 433 515 484 515 555 C515 677 419 759 274 759 C150.75 759 57.1225 701.2 25.6661 610.779 C12.7862 573.756 31.4316 557.039 70.01 550.088 L70.01 550.088 Z " />
<glyph glyph-name="at" unicode="&#x40;" horiz-adv-x="1225" d="M1034.75 -132.982 C939.009 -197.172 783.375 -239 642 -239 C343 -239 144 -36 144 269 C144 574 341 777 636 777 C905 777 1085 609 1085 357 C1085 147 1017 7 915 7 C857 7 829 87 843 208 C843 208 854.979 456.987 873.396 494.335 C873.396 494.335 871.26 494.84 871.26 494.84 L869.636 498.495 C869.636 498.495 867.5 499 867.5 499 L773 499 C764.75 499 757.181 452.717 751.415 397.213 C751.025 393.462 742.651 393.877 741.793 397.549 C723.391 476.313 678 510 615 510 C461 510 347 414 330 269 C312 117 403 16 559 16 C628.3 16 686.029 54.7956 718.712 118.349 C722.164 125.062 740.393 127.217 742.286 119.91 C761.633 45.24 822.45 -1 910 -1 C1066 -1 1170 143 1170 358 C1170 617 956 789 636 789 C290 789 59 581 59 270 C59 -41 292 -249 642 -249 C785.325 -249 943.86 -206.222 1041.6 -141.057 C1044.08 -139.405 1047.46 -134.241 1045.5 -132 C1043.63 -129.862 1037.11 -131.399 1034.75 -132.982 L1034.75 -132.982 Z M743.704 303.967 C739.901 251.778 738 209 738 209 C725 103 654 32 560 32 C474 32 428 127 445 270 C461 406 529 496 613 496 C692 496 742.5 442 744.5 308 C744.502 307.87 743.713 304.097 743.704 303.967 L743.704 303.967 Z " />
<glyph glyph-name="A" unicode="A" horiz-adv-x="754" d="M513 251.5 C512.932 251.722 512.87 253.04 512.952 252.823 C538.349 185.501 564.625 117.275 589 50 L594 38 L601 19.5 C604.614 9.94938 617.569 1 627.78 1 L739.78 1 C742.55 1 745.763 -1.49803 744.954 1.15124 C744.556 2.45408 741.571 12.0714 736 26 L727 48 L476.02 711.303 C468.266 731.797 440.468 751 418.556 751 L344.472 751 C332.881 751 318.126 740.832 314 730 L306 709 C304 705 72 89 48 26 C42 11 39 1 39 1 C39 1 42.0763 1 44.2202 1 L50.9861 1 C55.6637 1 61.5695 5.45677 63.1357 9.86431 C68.1172 23.8828 73.2174 37.7826 79 51 L137.019 205.983 C144.771 226.691 172.618 245.943 194.729 245.882 L508.199 245.019 C511.784 245.009 514.054 248.074 513 251.5 L513 251.5 Z M188.211 344.053 L276.324 578.523 C297.246 634.196 370.572 634.128 391.39 578.416 L479.005 343.946 C495.031 301.059 467.236 261 421.452 261 L245.724 261 C199.881 261 172.085 301.14 188.211 344.053 L188.211 344.053 Z " />
<glyph glyph-name="B" unicode="B" horiz-adv-x="693" d="M487.789 426.664 C570.314 448.493 620 493.6 620 553 C620 696 543 751 345 751 L148.44 751 C114.527 751 87 723.473 87 689.56 L87 62.44 C87 28.527 114.527 1 148.44 1 L383 1 C581 1 658 62 658 218 C658 314.9 592.975 385.79 489.332 408.562 C484.446 409.635 482.952 425.384 487.789 426.664 L487.789 426.664 Z M215 481.44 L215 673.56 C215 707.473 242.527 735 276.44 735 L346 735 C448 735 487 681 487 543 C487 469 436 420 359 420 L276.44 420 C242.527 420 215 447.527 215 481.44 L215 481.44 Z M215 76.44 L215 344.56 C215 378.473 242.527 406 276.44 406 L400 406 C472 406 520 336 520 231 C520 75 480 15 378 15 L276.44 15 C242.527 15 215 42.527 215 76.44 L215 76.44 Z " />
<glyph glyph-name="C" unicode="C" horiz-adv-x="695" d="M656.388 174.191 C608.3 73.5438 516.65 7 425 7 C283 7 189 176 189 375 C189 574 283 743 425 743 C503 743 594.309 676.456 655.364 575.809 C656.761 573.505 661.844 569.383 664 571 L668 574 L671.5 577 C673.446 578.668 671.609 585.768 670.28 587.959 C608.007 690.555 510.8 759 425 759 C201 759 52 582 52 375 C52 168 201 -9 425 -9 C524.45 -9 621.999 59.445 671.303 162.041 C673.602 166.825 671.644 172.684 667.5 176 C663.57 179.144 658.557 178.732 656.388 174.191 L656.388 174.191 Z " />
<glyph glyph-name="D" unicode="D" horiz-adv-x="765" d="M350 0 C594 0 710 121 710 375 C710 623 577 750 320 750 L148.44 750 C114.527 750 87 722.473 87 688.56 L87 61.44 C87 27.527 114.527 0 148.44 0 L350 0 L350 0 Z M215 76.44 L215 682 C215 711.254 238.746 735 268 735 L321 735 C487 735 573 613 573 375 C573 131 501 15 349 15 L276.44 15 C242.527 15 215 42.527 215 76.44 L215 76.44 Z " />
<glyph glyph-name="E" unicode="E" horiz-adv-x="640" d="M582 16 L276.44 16 C242.527 16 215 43.527 215 77.44 L215 318.56 C215 352.473 242.527 380 276.44 380 L548 380 C551.864 380 555 383.136 555 387 C555 390.864 551.864 394 548 394 L276.44 394 C242.527 394 215 421.527 215 455.44 L215 672.56 C215 706.473 242.527 734 276.44 734 L567 734 C571.416 734 575 737.584 575 742 C575 746.416 571.416 750 567 750 L148.44 750 C114.527 750 87 722.473 87 688.56 L87 61.44 C87 27.527 114.527 0 148.44 0 L582 0 C586.416 0 590 3.58424 590 8 C590 12.4158 586.416 16 582 16 L582 16 Z " />
<glyph glyph-name="F" unicode="F" horiz-adv-x="605" d="M538 394 L276.44 394 C242.527 394 215 421.527 215 455.44 L215 672.56 C215 706.473 242.527 734 276.44 734 L567 734 C571.416 734 575 737.584 575 742 C575 746.416 571.416 750 567 750 L148.44 750 C114.527 750 87 722.473 87 688.56 L87 61.44 C87 27.527 114.527 0 148.44 0 L153.56 0 C187.473 0 215 27.527 215 61.44 L215 318.56 C215 352.473 242.527 380 276.44 380 L538 380 C541.864 380 545 383.136 545 387 C545 390.864 541.864 394 538 394 L538 394 Z " />
<glyph glyph-name="G" unicode="G" horiz-adv-x="746" d="M460 395 L620.56 395 C654.473 395 682 367.473 682 333.56 L682 141.584 C682 128.228 669.519 102.576 658.896 94.48 C588.75 41.02 511.8 7 447 7 C292 7 189 154 189 375 C189 596 292 743 447 743 C511.35 743 592.811 676.456 653.383 575.809 C654.776 573.493 659.837 569.378 662 571 L666 574 L669.5 577 C671.438 578.661 669.615 585.772 668.298 587.959 C606.51 690.555 519.15 759 447 759 C210 759 52 605 52 375 C52 145 210 -9 447 -9 C518.1 -9 601.35 27.45 676.338 84.312 C687.033 92.4219 701 119.219 701 132.641 L701 349.56 C701 383.473 673.473 411 639.56 411 L460 411 C455.584 411 452 407.416 452 403 C452 398.584 455.584 395 460 395 L460 395 Z " />
<glyph glyph-name="H" unicode="H" horiz-adv-x="778" d="M693 61.44 L693 688.56 C693 722.473 665.473 750 631.56 750 L626.44 750 C592.527 750 565 722.473 565 688.56 L565 464.44 C565 430.527 537.473 403 503.56 403 L276.44 403 C242.527 403 215 430.527 215 464.44 L215 688.56 C215 722.473 187.473 750 153.56 750 L148.44 750 C114.527 750 87 722.473 87 688.56 L87 61.44 C87 27.527 114.527 0 148.44 0 L153.56 0 C187.473 0 215 27.527 215 61.44 L215 325.56 C215 359.473 242.527 387 276.44 387 L503.56 387 C537.473 387 565 359.473 565 325.56 L565 61.44 C565 27.527 592.527 0 626.44 0 L631.56 0 C665.473 0 693 27.527 693 61.44 L693 61.44 Z " />
<glyph glyph-name="I" unicode="I" horiz-adv-x="301" d="M216 61.44 L216 688.56 C216 722.473 188.473 750 154.56 750 L149.44 750 C115.527 750 88 722.473 88 688.56 L88 61.44 C88 27.527 115.527 0 149.44 0 L154.56 0 C188.473 0 216 27.527 216 61.44 L216 61.44 Z " />
<glyph glyph-name="J" unicode="J" horiz-adv-x="565" d="M49 247.5 L49 216 C49 61 116 -9 265 -9 C407 -9 480 83 480 220 L480 688.56 C480 722.473 452.473 750 418.56 750 L413.44 750 C379.527 750 352 722.473 352 688.56 L352 220 C352 93 322 9 265 9 C204 9 177 84 177 252 L177 277 C177 290.582 165.762 299.981 152.394 297.579 L80.0035 284.571 C63.1602 281.544 49 264.613 49 247.5 L49 247.5 Z " />
<glyph glyph-name="K" unicode="K" horiz-adv-x="683" d="M668.2 8.1559 C659.8 22.4144 651.4 36.56 643 50 L415.787 424.945 C396.898 456.115 358.279 459.682 334 432.5 L318.378 415.01 C302.329 397.042 299.205 362.64 311.755 342.075 L490 50 L494 43 L507 21.5 C513.14 11.3447 533.257 0 545.125 0 L663.138 0 C667.832 0 670.582 4.11197 668.2 8.1559 L668.2 8.1559 Z M612.05 750 L600.433 750 C597.397 750 590.042 746.746 588 744.5 L583 739 L321.355 444.738 C281.98 400.455 214 426.306 214 485.563 L214 689.56 C214 723.473 186.473 751 152.56 751 L147.44 751 C113.527 751 86 723.473 86 689.56 L86 62.44 C86 28.527 113.527 1 147.44 1 L152.56 1 C186.473 1 214 28.527 214 62.44 L214 277.506 C214 286.158 223.903 312.055 229.676 318.5 L575 704 C582.03 711.03 604.12 735.823 614.122 746.48 C615.427 747.87 613.956 750 612.05 750 L612.05 750 Z " />
<glyph glyph-name="L" unicode="L" horiz-adv-x="571" d="M533 16 L277.44 16 C243.527 16 216 43.527 216 77.44 L216 688.56 C216 722.473 188.473 750 154.56 750 L149.44 750 C115.527 750 88 722.473 88 688.56 L88 61.44 C88 27.527 115.527 0 149.44 0 L533 0 C537.416 0 541 3.58424 541 8 C541 12.4158 537.416 16 533 16 L533 16 Z " />
<glyph glyph-name="M" unicode="M" horiz-adv-x="825" d="M133 9.5 L133 361.5 C133 410.964 210.351 420.703 222.613 372.783 L306.176 46.2095 C312.499 21.4994 340.192 0 365.698 0 L384.189 0 C409.77 0 437.461 21.5483 443.746 46.3457 L526.82 374.125 C538.913 421.841 616 412.225 616 363 L616 61.44 C616 27.527 643.527 0 677.44 0 L678.56 0 C712.473 0 740 27.527 740 61.44 L740 688.56 C740 722.473 712.473 750 678.56 750 L651.906 750 C626.261 750 598.572 728.411 592.32 703.54 L483.752 271.68 C468.193 209.79 380.038 209.848 364.56 271.758 L256.635 703.461 C250.404 728.382 222.717 750 197.029 750 L175.44 750 C141.527 750 114 722.473 114 688.56 L114 9.5 C114 4.25628 118.256 0 123.5 0 C128.744 0 133 4.25628 133 9.5 L133 9.5 Z " />
<glyph glyph-name="N" unicode="N" horiz-adv-x="668" d="M133 9.5 L133 400.902 C133 466.068 225.761 484.809 251.061 424.755 L414.165 37.587 C422.22 18.4675 450.039 0 470.786 0 L521.56 0 C555.473 0 583 27.527 583 61.44 L583 740.5 C583 745.744 578.744 750 573.5 750 C568.256 750 564 745.744 564 740.5 L564 325.199 C564 260.032 471.229 241.294 445.936 301.353 L272.832 712.406 C264.778 731.53 236.959 750 216.208 750 L175.44 750 C141.527 750 114 722.473 114 688.56 L114 9.5 C114 4.25628 118.256 0 123.5 0 C128.744 0 133 4.25628 133 9.5 L133 9.5 Z " />
<glyph glyph-name="O" unicode="O" horiz-adv-x="814" d="M194 375 C194 585 286 743 408 743 C530 743 622 585 622 375 C622 154 536 7 408 7 C280 7 194 154 194 375 L194 375 Z M57 375 C57 145 197 -9 408 -9 C619 -9 759 145 759 375 C759 594 608 759 408 759 C208 759 57 594 57 375 L57 375 Z " />
<glyph glyph-name="P" unicode="P" horiz-adv-x="624" d="M215 61.44 L215 266.5 C215 297.134 239.866 322 270.5 322 L326 322 C500 322 589 391 589 525 C589 674 500 750 326 750 L148.44 750 C114.527 750 87 722.473 87 688.56 L87 61.44 C87 27.527 114.527 0 148.44 0 L153.56 0 C187.473 0 215 27.527 215 61.44 L215 61.44 Z M215 393 L215 680 C215 710.358 239.642 735 270 735 L325 735 C415 735 461 664 461 525 C461 401 415 337 327 337 L271 337 C240.09 337 215 362.09 215 393 L215 393 Z " />
<glyph glyph-name="Q" unicode="Q" horiz-adv-x="814" d="M194 375 C194 585 286 743 408 743 C530 743 622 585 622 375 C622 243.65 592.053 138.824 540.865 74.7693 C533.95 66.1155 521.243 63.8583 511.844 69.7203 C488.971 83.9848 467.153 99.8384 448.499 116.859 C445.261 119.814 440.462 119.232 437.5 116 C434.473 112.698 434.806 107.299 438.024 104.184 C457.937 84.9088 476.162 66.7587 492.699 49.7338 C499.019 43.2283 498.855 33.9858 491.133 29.2284 C466.332 13.9475 438.75 6 409 6 C281 6 194.5 153.5 194.5 374.5 L194 375 Z M58 374 C58 144 198 -10 409 -10 C445.3 -10 479.558 -5.23563 511.213 3.73161 C520.02 6.22643 537.405 3.04161 543.545 -3.74764 C593.043 -58.4863 617 -91 617 -91 C617 -91 625.735 -81.7792 633.231 -73.8669 L670.84 -34.1691 C679.937 -24.5669 701.421 -19.2514 688.907 -14.9682 C686.927 -14.2907 653.604 -2.8132 609.928 16.9043 C596.9 22.7859 592.497 37.6846 604.431 45.5522 C701.673 109.658 759 226 759 374 C759 593 608 758 408 758 C208 758 57.5 593 57.5 374 L58 374 Z " />
<glyph glyph-name="R" unicode="R" horiz-adv-x="624" d="M590 50 L443.642 308.804 C435.166 323.793 407.38 340 390.161 340 L352.5 340 C317.174 340 297.771 306.76 315.141 276 L453.365 31.2287 C461.841 16.2193 489.627 0 506.864 0 L605.907 0 C611.702 0 614.875 5.46794 612 10.5 L606 21 C599 34 590 50 590 50 L590 50 Z M215 61.44 L215 286.5 C215 317.134 239.866 342 270.5 342 L326 342 C500 342 589 404 589 525 C589 674 500 750 326 750 L148.44 750 C114.527 750 87 722.473 87 688.56 L87 61.44 C87 27.527 114.527 0 148.44 0 L153.56 0 C187.473 0 215 27.527 215 61.44 L215 61.44 Z M215 413 L215 680 C215 710.358 239.642 735 270 735 L325 735 C415 735 461 664 461 525 C461 414 415 357 327 357 L271 357 C240.09 357 215 382.09 215 413 L215 413 Z " />
<glyph glyph-name="S" unicode="S" horiz-adv-x="625" d="M543 608 C544.656 609.656 544.656 612.344 543 614 L540 617 C540 617 418 759 270 759 C130 759 36 674 36 546 C36 426 123 350 293 321 C404 302 461 263 461 206 C461 87 422 8 345 8 C236.775 8 136.155 66.9387 79.2875 180.182 C76.9123 184.912 71.2343 186.176 67 183 C62.5372 179.653 60.8912 172.884 63.3719 167.888 C121.457 50.8894 228 -9 345 -9 C506 -9 589 79 589 210 C589 340 500 422 328 451 C222 469 168 506 168 559 C168 669 209 742 270 742 C348 742 442.161 695.419 525.603 605.966 C527.446 603.99 533.839 600.379 536 602 L536.606 602.454 C536.871 602.653 542.766 607.766 543 608 L543 608 Z " />
<glyph glyph-name="T" unicode="T" horiz-adv-x="595" d="M577 750 L18 750 C13.5842 750 10 746.416 10 742 C10 737.584 13.5842 734 18 734 L171.56 734 C205.473 734 233 706.473 233 672.56 L233 61.44 C233 27.527 260.527 0 294.44 0 L300.56 0 C334.473 0 362 27.527 362 61.44 L362 672.56 C362 706.473 389.527 734 423.44 734 L577 734 C581.416 734 585 737.584 585 742 C585 746.416 581.416 750 577 750 L577 750 Z " />
<glyph glyph-name="U" unicode="U" horiz-adv-x="704" d="M605 740.5 L605 298 C605 107 519 9 352 9 C257 9 208 112 208 312 L208 688.56 C208 722.473 180.473 750 146.56 750 L141.44 750 C107.527 750 80 722.473 80 688.56 L80 289 C80 92 172 -9 352 -9 C532 -9 624 94 624 294 L624 740.5 C624 745.744 619.744 750 614.5 750 C609.256 750 605 745.744 605 740.5 L605 740.5 Z " />
<glyph glyph-name="V" unicode="V" horiz-adv-x="637" d="M572.069 747.431 C568.746 737.821 559.786 709.25 558 703 L413.786 229.556 C395.6 169.852 312.995 170.616 295.917 230.646 L153 733 L150.5 742 C149.17 746.786 143.627 751 138.659 751 L14.1623 751 C12.5064 751 11.4764 749.571 12 748 L13 745 L25 706 L27 701 L229.631 44.3242 C236.682 21.4737 264.426 1 288.34 1 L317.598 1 C341.554 1 369.297 21.5007 376.33 44.4008 L578 701 L580 705 L590.49 739.189 C592.1 744.438 588.733 749.233 583.25 749.5 L575.689 749.869 C574.192 749.942 572.559 748.848 572.069 747.431 L572.069 747.431 Z " />
<glyph glyph-name="W" unicode="W" horiz-adv-x="837" d="M783.315 740.637 L776 700 L719 374 C708.11 311.715 613.977 311.374 602.635 373.578 L543.193 699.581 C538.201 726.959 510.58 750 482.75 750 L461.296 750 C433.437 750 405.816 726.94 400.843 699.528 L344.015 386.303 C332.843 324.725 238.888 325.703 229 387.5 L175 725 C173 740 171 750 171 750 C171 750 169.334 750 165.901 750 L39.0249 750 C36.2516 750 33.7248 752.607 34.0157 749.849 C34.1531 748.546 35.2143 738.929 38 725 L42 703 L158.931 50.6007 C163.858 23.1087 191.477 0 219.407 0 L239.802 0 C267.598 0 295.221 23.0177 300.235 50.3579 L358.568 368.455 C370.404 432.998 467.596 432.998 479.432 368.455 L537.765 50.3579 C542.779 23.0177 570.402 0 598.198 0 L619.515 0 C647.516 0 675.778 26.8933 680.659 54.4656 C720.311 278.439 759.3 503.075 800 726 C803 741 804 751 804 751 C804 751 801.359 750.861 798.982 750.736 L794.5 750.5 C789.395 750.231 784.22 745.668 783.315 740.637 L783.315 740.637 Z " />
<glyph glyph-name="X" unicode="X" horiz-adv-x="690" d="M65 25 C53 10 46 0 46 0 C46 0 50.3493 0 52.1033 0 L57.5 0 C62.4876 0 73.0283 5.11704 76.1134 9.03599 L106 47 L265.844 253.465 C294.507 290.488 344.373 287.059 367.699 246.461 L480 51 C480 51 506 5 509 1 L575.5 1 C607.174 1 627.177 26.4886 611.338 53.918 C546.1 166.893 481.903 280.348 417.209 393.259 C406.725 411.558 409.696 438.674 422.672 455.299 C493.61 546.19 563.9 637 635 727 C647 742 654 752 654 752 C654 752 649.651 752 647.897 752 L643 752 C638.259 752 628.09 747.113 625.128 743.41 L612 727 C600 712 593 702 593 702 L446.095 513.846 C417.395 477.087 367.755 480.558 344.45 520.954 L240 702 C240 702 214 748 211 752 L144.5 752 C112.828 752 98.5269 716.613 114.334 689.167 C174.703 584.351 234.252 479.126 294.803 374.401 C305.335 356.185 301.268 327.832 288.412 311.174 C214.675 215.63 141.1 119.6 65.5 26 L65 25 Z " />
<glyph glyph-name="Y" unicode="Y" horiz-adv-x="633" d="M144.338 750 L41.2098 750 C34.8622 750 31.3766 744.026 34.5 738.5 L41 727 C49 713 56 700 56 700 L256.117 344.022 C258.249 340.229 264 318.265 264 313.914 L264 61.44 C264 27.527 291.527 0 325.44 0 L330.56 0 C364.473 0 392 27.527 392 61.44 L392 355.182 C392 359.398 397.602 381.159 399.638 384.851 L596.413 741.681 C598.63 745.702 596.092 750 591.5 750 C586.914 750 584.156 753.883 581.93 749.873 C580.816 747.867 566.8 722.6 562 713 L383.072 384.965 C381.131 381.407 374.551 377.369 370.5 377.25 C366.329 377.127 359.905 380.79 357.886 384.442 L184 699 C184 699 172.745 720.455 162.035 739.175 C159.193 744.143 150.061 750 144.338 750 L144.338 750 Z " />
<glyph glyph-name="Z" unicode="Z" horiz-adv-x="655" d="M602 16 L295.377 16 C244.28 16 216.518 64.5203 242.409 108.572 L605.946 727.103 C607.08 729.032 610 739.763 610 742 C610 746.416 606.416 750 602 750 L68 750 C63.5842 750 60 746.416 60 742 C60 737.584 63.5842 734 68 734 L359.623 734 C410.72 734 438.482 685.48 412.591 641.428 L49.0536 22.897 C47.9199 20.968 45 10.2375 45 8 C45 3.58424 48.5842 0 53 0 L602 0 C606.416 0 610 3.58424 610 8 C610 12.4158 606.416 16 602 16 L602 16 Z " />
<glyph glyph-name="bracketleft" unicode="&#x5b;" horiz-adv-x="360" d="M261.44 685 L297.5 685 C315.439 685 330 699.561 330 717.5 C330 735.439 315.439 750 297.5 750 L186.44 750 C152.527 750 125 722.473 125 688.56 L125 -53.56 C125 -87.473 152.527 -115 186.44 -115 L297.5 -115 C315.439 -115 330 -100.439 330 -82.5 C330 -64.561 315.439 -50 297.5 -50 L261.44 -50 C227.527 -50 200 -22.473 200 11.44 L200 623.56 C200 657.473 227.527 685 261.44 685 L261.44 685 Z " />
<glyph glyph-name="backslash" unicode="&#x5c;" horiz-adv-x="340" d="M315 0 C327.871 0 335.626 11.3131 330.984 23.3176 L59.0161 726.682 C54.3744 738.687 37.8706 750 25 750 C12.1294 750 4.37441 738.687 9.01613 726.682 L280.984 23.3176 C285.626 11.3131 302.129 0 315 0 L315 0 Z " />
<glyph glyph-name="bracketright" unicode="&#x5d;" horiz-adv-x="360" d="M160 623.56 L160 11.44 C160 -22.473 132.473 -50 98.56 -50 L62.5 -50 C44.561 -50 30 -64.561 30 -82.5 C30 -100.439 44.561 -115 62.5 -115 L173.56 -115 C207.473 -115 235 -87.473 235 -53.56 L235 688.56 C235 722.473 207.473 750 173.56 750 L62.5 750 C44.561 750 30 735.439 30 717.5 C30 699.561 44.561 685 62.5 685 L98.56 685 C132.473 685 160 657.473 160 623.56 L160 623.56 Z " />
<glyph glyph-name="asciicircum" unicode="&#x5e;" horiz-adv-x="340" d="M178.535 657.422 C200.547 645.938 235 600 235 600 C235 600 231.807 600 265.72 600 L287.5 600 C310.72 600 322.482 623.462 308.59 642.067 L246.429 725.319 C238.278 736.235 210.821 750 197.198 750 L142.802 750 C129.179 750 101.722 736.235 93.5714 725.319 L31.4102 642.067 C17.518 623.462 29.2802 600 52.5 600 L80.978 600 C89.9716 600 116.043 610.193 122.651 616.294 L162.652 653.217 C169.522 659.559 170.246 661.747 178.535 657.422 L178.535 657.422 Z " />
<glyph glyph-name="underscore" unicode="&#x5f;" horiz-adv-x="680" d="M85 -135 L595 -135 C614.319 -135 630 -119.319 630 -100 C630 -80.681 614.319 -65 595 -65 L85 -65 C65.681 -65 50 -80.681 50 -100 C50 -119.319 65.681 -135 85 -135 L85 -135 Z " />
<glyph glyph-name="grave" unicode="&#x60;" horiz-adv-x="340" d="M151.25 600 L170.5 600 C197.823 600 214.612 623.739 205.51 649.501 L184.477 709.029 C176.942 730.352 149.161 750 126.546 750 L95 750 C60.3432 750 42.0657 716.226 61.0211 687.213 L99.8142 627.835 C108.218 614.973 135.885 600 151.25 600 L151.25 600 Z " />
<glyph glyph-name="a" unicode="a" horiz-adv-x="550" d="M85 380.5 C89.2799 379.163 93.5803 379.884 95.1107 384.099 C123.656 462.716 195.075 515 276 515 C326 515 360 479 360 385 C360 276 300 245 211 245 C108 245 40 185 40 96 C40 33 88 -9 211 -9 C285.1 -9 339.237 20.4694 358.581 117.409 C358.72 118.107 360 118.211 360 117.5 L360 110 C360 14.6 364.86 1.82 478.098 0.218 C501.886 -0.118536 520 18.7094 520 42.5 L520 63.5 C520 74.7284 508.676 84.7581 497.464 85.3626 C476.229 86.5077 475 91.1892 475 110 L475 336 C475 475 395 529 276 529 C187.275 529 109.007 473.864 79.1969 389.543 C77.6061 385.044 80.4448 381.924 85 380.5 L85 380.5 Z M360 281.902 L360 171 C352 41 296 3 216 3 C172 3 155 42 155 101 C155 181 182 234 222 234 C278.1 234 322.289 246.932 347.267 285.71 C350.089 290.09 360 287.112 360 281.902 L360 281.902 Z " />
<glyph glyph-name="b" unicode="b" horiz-adv-x="599" d="M185 57.5087 L185 106.61 C185 112.273 198.126 115.847 200.052 110.522 C229.866 28.115 287.925 -10 363 -10 C475 -10 549 98 549 259 C549 420 475 528 363 528 C287.925 528 229.866 489.885 200.052 407.478 C198.126 402.153 185 405.727 185 411.39 L185 690.5 C185 722.238 159.238 748 127.5 748 C95.7617 748 70 722.238 70 690.5 L70 55.5087 C70 23.7704 95.7665 -1.55189 127.5 -1 C159.233 -0.448113 185 25.7704 185 57.5087 L185 57.5087 Z M185 258 C185 434 254 513 357 513 C397 513 424 411 424 258 C424 115 395 19 351 19 C251 19 185 93 185 258 L185 258 Z " />
<glyph glyph-name="c" unicode="c" horiz-adv-x="532" d="M483.69 134.903 C452.899 56.3337 392.425 5 331 5 C237 5 175 84 175 260 C175 437 237 516 331 516 C387.55 516 439.347 457.061 483.61 368.843 C484.761 366.55 488.929 362.908 491.25 364 L495.5 366 L499.25 368 C501.342 369.116 500.531 374.953 499.456 377.066 C453.144 468.16 397.325 529 332 529 C163 529 51 446 51 260 C51 74 163 -9 332 -9 C402.2 -9 468.598 45.1856 500.606 126.678 C502.545 131.614 499.298 134.742 494.5 137 C489.924 139.153 485.536 139.611 483.69 134.903 L483.69 134.903 Z " />
<glyph glyph-name="d" unicode="d" horiz-adv-x="632" d="M175 260 C175 413 208 515 258 515 C371 515 447 413 447 260 C447 107 371 5 258 5 C208 5 175 107 175 260 L175 260 Z M50 260 C50 99 131 -9 253 -9 C334.675 -9 397.973 40.005 430.541 121.17 C432.843 126.905 447 125.032 447 118.851 L447 57.5 C447 25.7617 472.762 0 504.5 0 C536.238 0 562 25.7617 562 57.5 L562 692.5 C562 724.238 536.238 750 504.5 750 C472.762 750 447 724.238 447 692.5 L447 401.149 C447 394.968 432.843 393.095 430.541 398.83 C397.973 479.995 334.675 529 253 529 C131 529 50 421 50 260 L50 260 Z " />
<glyph glyph-name="e" unicode="e" horiz-adv-x="538" d="M490.233 133.976 C465.737 56.3337 382.35 5 279 5 C225.625 5 186.797 63.1875 176.584 190.951 C173.666 227.45 199.556 250 236.171 250 L461.56 250 C499.258 250 524.037 272.473 519.83 309.936 C504.859 443.25 435.625 529 286 529 C144 529 49 446 49 260 C49 74 141 -9 278 -9 C390.125 -9 479.435 45.1856 505.148 126.678 C506.569 131.182 503.78 134.503 499.5 136.5 C495.56 138.339 491.541 138.122 490.233 133.976 L490.233 133.976 Z M345.752 262 L235.44 262 C199.1 262 173.464 287.199 176.064 323.445 C185.594 456.281 227.375 516 286 516 C359.1 516 394.63 443.028 404.872 327.175 C408.122 290.418 382.651 262 345.752 262 L345.752 262 Z " />
<glyph glyph-name="f" unicode="f" horiz-adv-x="410" d="M333 750 L245 750 C148 750 110 709 110 605 L110 560 C110 537.921 92.0788 520 70 520 L36.5 520 C32.9122 520 30 517.088 30 513.5 C30 509.912 32.9122 507 36.5 507 L70 507 C92.0788 507 110 489.079 110 467 L110 57.5 C110 25.7617 135.762 0 167.5 0 C199.238 0 225 25.7617 225 57.5 L225 449.5 C225 481.238 250.762 507 282.5 507 L333.5 507 C337.088 507 340 509.912 340 513.5 C340 517.088 337.088 520 333.5 520 L267.5 520 C244.041 520 225 539.041 225 562.5 L225 605 C225 699 232 736 250 736 L333 736 C336.864 736 340 739.136 340 743 C340 746.864 336.864 750 333 750 L333 750 Z " />
<glyph glyph-name="g" unicode="g" horiz-adv-x="622" d="M76.6992 -95.7114 C85.52 -143.047 177.1 -162 312 -162 C485 -162 552 -78 552 49 L552 462.5 C552 494.238 526.238 520 494.5 520 C462.762 520 437 494.238 437 462.5 L437 401.658 C437 395.474 423.008 393.566 420.719 399.311 C388.704 479.676 327.2 528 248 528 C129 528 50 453 50 259 C50 72 129 -1 248 -1 C327.2 -1 388.704 45.9631 420.719 124.167 C423.059 129.883 437 127.987 437 121.811 L437 0 C437 -89 402 -148 311 -148 C190.75 -148 108.147 -133.454 96.4335 -97.24 C95.3164 -93.7863 89.1299 -88 85.5 -88 C79.2957 -88 75.5627 -89.6121 76.6992 -95.7114 L76.6992 -95.7114 Z M175 260 C175 444 206 515 253 515 C363 515 437 413 437 260 C437 112 363 14 253 14 C206 14 175 83 175 260 L175 260 Z " />
<glyph glyph-name="h" unicode="h" horiz-adv-x="555" d="M485 57.5022 L485 315 C485 454 430 525 347 525 C278.525 525 225.704 486.885 198.645 423.57 C196.646 418.89 185 420.414 185 425.503 L185 691.5 C185 723.238 159.238 749 127.5 749 C95.7617 749 70 723.238 70 691.5 L70 56.5 C70 24.7617 95.7617 -1 127.5 -1 C159.238 -1 185 24.7617 185 56.5 L185 319 C185 432 247 508 341 508 C358 508 370 442 370 314 L370 56.5022 C370 24.7639 395.763 -0.775975 427.5 -0.5 C459.237 -0.224025 485 25.7639 485 57.5022 L485 57.5022 Z " />
<glyph glyph-name="i" unicode="i" horiz-adv-x="255" d="M126.44 600 L128.56 600 C162.473 600 190 627.527 190 661.44 L190 663.56 C190 697.473 162.473 725 128.56 725 L126.44 725 C92.527 725 65 697.473 65 663.56 L65 661.44 C65 627.527 92.527 600 126.44 600 L126.44 600 Z M185 57.5 L185 462.5 C185 494.238 159.238 520 127.5 520 C95.7617 520 70 494.238 70 462.5 L70 57.5 C70 25.7617 95.7617 0 127.5 0 C159.238 0 185 25.7617 185 57.5 L185 57.5 Z " />
<glyph glyph-name="j" unicode="j" horiz-adv-x="255" d="M126.44 600 L128.56 600 C162.473 600 190 627.527 190 661.44 L190 663.56 C190 697.473 162.473 725 128.56 725 L126.44 725 C92.527 725 65 697.473 65 663.56 L65 661.44 C65 627.527 92.527 600 126.44 600 L126.44 600 Z M-15 -82 C-15 -85.8638 -11.8638 -89 -8 -89 L25 -89 C150 -89 185 0 185 0 C185 0 185 -22.2663 185 11.6468 L185 462.5 C185 494.238 159.238 520 127.5 520 C95.7617 520 70 494.238 70 462.5 L70 4.48163 C70 4.08986 70.0385 0.248965 69.9791 -0.138281 C69.4325 -3.70313 58.025 -75 20 -75 L-8 -75 C-11.8638 -75 -15 -78.1362 -15 -82 L-15 -82 Z " />
<glyph glyph-name="k" unicode="k" horiz-adv-x="520" d="M474.381 61.5115 C425.29 146.568 376.541 232.058 327.372 317.601 C315.305 338.595 321.88 368.684 338.546 386.251 L418 470 L424 476 L457.842 512.318 C460.733 515.42 458.74 520 454.5 520 C450.311 520 446.814 522.943 443.919 519.915 C441.826 517.727 399.95 473.925 398 471 L291.152 357.63 C250.965 314.991 185 341.177 185 399.77 L185 692.5 C185 724.238 159.238 750 127.5 750 C95.7617 750 70 724.238 70 692.5 L70 57.5 C70 25.7617 95.7617 0 127.5 0 C159.238 0 185 25.7617 185 57.5 L185 199.545 C185 208.821 195.431 235.027 201.806 241.766 L202.5 242.5 C211.768 252.297 226.029 250.648 232.816 238.994 L354.226 30.5201 C362.704 15.9627 390.472 0 407.319 0 L442.337 0 C474.571 0 490.494 33.5937 474.381 61.5115 L474.381 61.5115 Z " />
<glyph glyph-name="l" unicode="l" horiz-adv-x="255" d="M185 57.5 L185 692.5 C185 724.238 159.238 750 127.5 750 C95.7617 750 70 724.238 70 692.5 L70 57.5 C70 25.7617 95.7617 0 127.5 0 C159.238 0 185 25.7617 185 57.5 L185 57.5 Z " />
<glyph glyph-name="m" unicode="m" horiz-adv-x="839" d="M774 57.5 L774 315 C774 454 720 525 639 525 C567.225 525 513.146 482.801 487.994 413.565 C485.743 407.368 468.108 410.082 466.305 416.423 C445.887 488.246 401.75 525 344 525 C276.35 525 224.354 486.885 198.12 424.131 C196.26 419.68 185 421.087 185 425.911 L185 462.5 C185 494.238 159.238 520 127.5 520 C95.7617 520 70 494.238 70 462.5 L70 57.5 C70 25.7617 95.7617 0 127.5 0 C159.238 0 185 25.7617 185 57.5 L185 320 C185 433 246 509 337 509 C353 509 364 443 364 315 L364 57.5 C364 25.7617 389.762 0 421.5 0 C453.238 0 479 25.7617 479 57.5 L479 315 C479 431 537 509 632 509 C648 509 659 443 659 315 L659 57.5 C659 25.7617 684.762 0 716.5 0 C748.238 0 774 25.7617 774 57.5 L774 57.5 Z " />
<glyph glyph-name="n" unicode="n" horiz-adv-x="550" d="M485 57.5022 L485 315 C485 454 430 525 347 525 C278.525 525 225.704 486.885 198.645 423.57 C196.646 418.89 185 420.414 185 425.503 L185 461.5 C185 493.238 159.238 519 127.5 519 C95.7617 519 70 493.238 70 461.5 L70 56.5 C70 24.7617 95.7617 -1 127.5 -1 C159.238 -1 185 24.7617 185 56.5 L185 319 C185 432 247 508 341 508 C358 508 370 442 370 314 L370 56.5022 C370 24.7639 395.763 -0.775975 427.5 -0.5 C459.237 -0.224025 485 25.7639 485 57.5022 L485 57.5022 Z " />
<glyph glyph-name="o" unicode="o" horiz-adv-x="590" d="M175 260 C175 437 223 516 295 516 C378 516 415 414 415 260 C415 83 367 4 295 4 C212 4 175 106 175 260 L175 260 Z M50 260 C50 99 126 -9 295 -9 C442 -9 540 74 540 260 C540 421 464 529 295 529 C148 529 50 446 50 260 L50 260 Z " />
<glyph glyph-name="p" unicode="p" horiz-adv-x="599" d="M185 -97.4913 L185 106.61 C185 112.273 198.126 115.847 200.052 110.522 C229.866 28.115 287.925 -10 363 -10 C475 -10 549 98 549 259 C549 420 475 528 363 528 C287.925 528 229.866 489.885 200.052 407.478 C198.126 402.153 185 405.727 185 411.39 L185 460.5 C185 492.238 159.238 518 127.5 518 C95.7617 518 70 492.238 70 460.5 L70 -99.4913 C70 -131.23 95.7665 -156.552 127.5 -156 C159.233 -155.448 185 -129.23 185 -97.4913 L185 -97.4913 Z M185 258 C185 434 254 513 357 513 C397 513 424 411 424 258 C424 105 397 3 357 3 C254 3 185 82 185 258 L185 258 Z " />
<glyph glyph-name="q" unicode="q" horiz-adv-x="632" d="M175 260 C175 413 208 515 258 515 C371 515 447 413 447 260 C447 107 371 5 258 5 C208 5 175 107 175 260 L175 260 Z M50 260 C50 99 131 -9 253 -9 C334.675 -9 397.973 40.005 430.541 121.17 C432.843 126.905 447 125.032 447 118.851 L447 -97.5 C447 -129.238 472.762 -155 504.5 -155 C536.238 -155 562 -129.238 562 -97.5 L562 462.5 C562 494.238 536.238 520 504.5 520 C472.762 520 447 494.238 447 462.5 L447 401.149 C447 394.968 432.843 393.095 430.541 398.83 C397.973 479.995 334.675 529 253 529 C131 529 50 421 50 260 L50 260 Z " />
<glyph glyph-name="r" unicode="r" horiz-adv-x="370" d="M350 507 L350 515 C350 517.76 347.76 520 345 520 L340 520 C264.1 520 218.828 470.314 196.323 387.227 C195.184 383.02 185 384.685 185 389.044 L185 462.5 C185 494.238 159.238 520 127.5 520 C95.7617 520 70 494.238 70 462.5 L70 57.5 C70 25.7617 95.7617 0 127.5 0 C159.238 0 185 25.7617 185 57.5 L185 230 C185 393 228 501 338 501 L344 501 C347.312 501 350 503.688 350 507 L350 507 Z " />
<glyph glyph-name="s" unicode="s" horiz-adv-x="524" d="M54 126 C91 48 179 -4 280 -4 C408 -4 494 55 494 143 C494 229 423 294 284 311 C207 320 168 350 168 387 C168 462 204 512 259 512 C331.15 512 403.3 458.765 441.156 378.247 C443.053 374.213 447.461 373.615 451.5 375.5 L453.323 376.351 C456.45 377.81 457.653 381.47 456 384.5 L453 390 C412 472 335 525 257 525 C137 525 57 466 57 378 C57 291 124 225 255 209 C336 199 377 169 377 132 C377 58 337 9 278 9 C182.45 9 98.3075 60.3337 65.4275 138.903 C64.549 141.002 61.1306 144.299 59 143.5 L58.0195 143.132 C57.845 143.067 52.2823 140.641 52.1157 140.558 L47 138 C47 137 53 126 53 126 L54 126 Z " />
<glyph glyph-name="t" unicode="t" horiz-adv-x="345" d="M308.5 520 L260 520 C229.642 520 205 544.642 205 575 L205 676.098 C205 707.837 171.865 723.339 147.5 703 L112.067 673.421 C102.716 665.615 90 638.435 90 626.255 L90 560 C90 537.921 72.0788 520 50 520 L16.5 520 C12.9122 520 10 517.088 10 513.5 C10 509.912 12.9122 507 16.5 507 L50 507 C72.0788 507 90 489.079 90 467 L90 145 C90 36 95 0 203 0 L308 0 C311.864 0 315 3.13621 315 7 C315 10.8638 311.864 14 308 14 L210 14 C205 14 205 47 205 145 L205 452 C205 482.358 229.642 507 260 507 L308.5 507 C312.088 507 315 509.912 315 513.5 C315 517.088 312.088 520 308.5 520 L308.5 520 Z " />
<glyph glyph-name="u" unicode="u" horiz-adv-x="550" d="M480 57.5 L480 462.5 C480 494.238 454.238 520 422.5 520 C390.762 520 365 494.238 365 462.5 L365 148 C365 63 312 7 232 7 C191 7 180 73 180 200 L180 462.5 C180 494.238 154.238 520 122.5 520 C90.7617 520 65 494.238 65 462.5 L65 200 C65 62 101 -9 227 -9 C285.575 -9 330.538 20.2669 353.465 68.6933 C355.288 72.5437 365 71.3315 365 67.0715 L365 51 C365 22.8495 387.85 0 416 0 L422.5 0 C454.238 0 480 25.7617 480 57.5 L480 57.5 Z " />
<glyph glyph-name="v" unicode="v" horiz-adv-x="482" d="M36 470 L175.19 42.4216 C182.439 20.1562 210.197 0 233.613 0 L248.477 0 C271.831 0 299.591 20.1168 306.863 42.3094 L447 470 C450 470 464 520 464 520 C464 520 458.186 520 454 520 C448.713 520 442.646 515.486 441.127 510.422 L438 500 C434 488 428 470 429 470 L349.517 219.322 C330.631 159.76 247.778 161.633 231.604 221.989 L163 478 C161 486 151 521 151 521 C151 521 146.118 521 132.8 521 L24.6401 521 C22.7055 521 21.5712 519.003 22.106 517.144 C25.782 504.367 35.6176 470.5 36.5 470.5 L36 470 Z " />
<glyph glyph-name="w" unicode="w" horiz-adv-x="737" d="M31 470 L135.738 45.6308 C141.773 21.1777 168.813 0 194 0 C219.207 0 246.153 21.1751 252.113 45.6672 L300.5 244.5 C315.591 306.512 404.409 306.512 419.5 244.5 L467.887 45.6672 C473.847 21.1751 500.793 0 526 0 C551.199 0 578.181 21.1761 584.17 45.6533 L688 470 C690 470 700 520 700 520 C700 520 694.799 520 690.5 520 C685.413 520 679.93 515.719 678.696 510.784 L676 500 C673 487 668 470 669 470 L616.5 246 C603.858 192.06 525.674 192.412 513.518 246.463 L462.786 472.041 C456.978 497.868 429.315 520 402.843 520 L400.443 520 C374.442 520 346.764 498.178 340.698 472.894 L286.378 246.482 C274.421 196.647 200.796 198.601 191.5 249 L150 474 L146 496 L143.5 508.5 C142.147 515.266 135.152 521 128.252 521 L22.6401 521 C20.7643 521 19.5454 518.966 19.9912 517.144 C23.1176 504.367 30.6176 470.5 31.5 470.5 L31 470 Z " />
<glyph glyph-name="x" unicode="x" horiz-adv-x="525" d="M39.2016 0 L46.5 0 C51.1952 0 60.4032 4.70258 63.1558 8.50623 L171.068 157.621 C197.574 194.248 245.685 193.725 271.388 156.529 L345 50 L349 45 L377 5 L378.5 2.5 C379.21 1.31672 381.536 0 382.915 0 L513.897 0 C516.649 0 517.695 3.30825 516.128 5.57123 C507.982 17.3373 494.769 36.5385 488 45 L309.894 302.569 C301.135 315.236 302.266 339.718 311.294 352.195 C339.931 391.769 368.125 431.225 397 470 C403.176 478.824 423.367 507.111 430.78 517.079 C431.589 518.167 431.155 520 429.798 520 L422.5 520 C417.798 520 408.61 515.296 405.861 511.482 L328.815 404.573 C304.994 371.519 261.637 371.965 238.5 405.5 L194 470 L190 475 L162 515 L160.5 517.5 C159.79 518.683 157.464 520 156.085 520 L25.1033 520 C22.3509 520 21.3049 516.692 22.8716 514.429 C31.0178 502.663 44.2308 483.462 51 475 L189.365 275.617 C201.096 258.713 198.871 225.101 186.777 208.453 C148.455 155.699 110.564 102.513 72 50 C65.8235 41.1765 45.6332 12.8893 38.2202 2.92082 C37.411 1.83257 37.8454 0 39.2016 0 L39.2016 0 Z " />
<glyph glyph-name="y" unicode="y" horiz-adv-x="462" d="M244 -76 L302.5 93 L448.696 510.562 C450.417 515.479 447.21 520 442 520 C436.799 520 430.392 515.478 428.65 510.578 L416 475 L348.095 277.358 C328.614 220.658 253.945 219.411 232.582 275.43 L158 471 L149 495 L144 507.5 C141.438 513.906 132.437 520 125.537 520 L74 520 C40.6043 520 20.5514 490.582 32.7576 459.497 L231.11 -45.6413 C232.133 -48.2453 232.385 -57.846 231.5 -60.5 L229 -68 C197 -159 167 -185 94 -185 L51.5 -185 C47.3602 -185 44 -188.36 44 -192.5 C44 -196.64 47.3602 -200 51.5 -200 L94 -200 C176 -200 209 -171 243 -74 L244 -76 Z " />
<glyph glyph-name="z" unicode="z" horiz-adv-x="460" d="M390 162.5 C390 160.568 391.568 159 393.5 159 L436.5 159 C438.432 159 440 160.568 440 162.5 C440 164.432 438.432 166 436.5 166 L393.5 166 C391.568 166 390 164.432 390 162.5 L390 162.5 Z M51.5 507 L145 507 C236.65 507 328.3 507.951 417.169 509.852 C419.93 509.911 424 512.239 424 515 C424 517.76 421.76 520 419 520 L51.5 520 C47.9122 520 45 517.088 45 513.5 C45 509.912 47.9122 507 51.5 507 L51.5 507 Z M30 5.5 C30 2.46416 32.4642 0 35.5 0 L433 0 C436.864 0 440 3.13621 440 7 C440 10.8622 435.459 14.0002 431.596 14.0018 C333.512 14.0428 234.011 14.7537 137.114 12.785 C134.801 12.738 131.219 16.6134 133.5 17 C146.381 19.1832 170.939 36.8699 177.092 48.3946 L390.697 448.494 C405.977 477.115 386.902 507.156 354.5 505.5 L321.097 503.793 C304.399 502.94 277.483 485.664 269.753 470.838 L32.5428 15.8769 C31.8939 14.6324 30 6.90352 30 5.5 L30 5.5 Z " />
<glyph glyph-name="braceleft" unicode="&#x7b;" horiz-adv-x="342" d="M280 750 L242 750 C172 750 125 701 125 627 L125 401 C125 368 105.943 351.335 75.6887 346.513 C66.0436 344.976 55 333.767 55 324 L55 311 C55 301.233 66.0436 290.024 75.6887 288.487 C105.943 283.665 125 267 125 234 L125 8 C125 -66 172 -115 242 -115 L279.5 -115 C297.439 -115 312 -100.439 312 -82.5 C312 -64.561 297.439 -50 279.5 -50 L242 -50 C217 -50 200 -27 200 8 L200 219 C200 263.2 186.272 296.563 163.731 311.718 C160.405 313.954 160.405 322.046 163.73 324.282 C186.272 339.438 200 372.8 200 417 L200 628 C200 663 217 686 242 686 L280 686 C297.663 686 312 700.337 312 718 C312 735.663 297.663 750 280 750 L280 750 Z " />
<glyph glyph-name="bar" unicode="&#x7c;" horiz-adv-x="165" d="M45 762.5 L45 -212.5 C45 -233.199 61.8011 -250 82.5 -250 C103.199 -250 120 -233.199 120 -212.5 L120 762.5 C120 783.199 103.199 800 82.5 800 C61.8011 800 45 783.199 45 762.5 L45 762.5 Z " />
<glyph glyph-name="braceright" unicode="&#x7d;" horiz-adv-x="342" d="M30 717.5 C30 699.561 44.561 685 62.5 685 L100 685 C125 685 142 662 142 627 L142 416 C142 371.8 155.727 338.438 178.269 323.282 C181.595 321.046 181.595 312.954 178.269 310.718 C155.727 295.562 142 262.2 142 218 L142 7 C142 -28 125 -51 100 -51 L62.5 -51 C44.561 -51 30 -65.561 30 -83.5 C30 -101.439 44.561 -116 62.5 -116 L100 -116 C170 -116 217 -67 217 7 L217 233 C217 266 236.058 282.665 266.311 287.487 C275.956 289.024 287 300.233 287 310 L287 323 C287 332.767 275.956 343.976 266.311 345.513 C236.057 350.335 217 367 217 400 L217 626 C217 700 170 749 100 749 L62.4967 749.536 C44.5613 749.792 30 735.437 30 717.5 L30 717.5 Z " />
<glyph glyph-name="asciitilde" unicode="&#x7e;" horiz-adv-x="340" d="M90.7558 280.734 C93.0329 310.149 100.333 329 111 329 C145 329 184 251 237 251 C235 251 229 341 229 341 C229 341 232.969 296.351 232.993 296.077 L234.388 280.384 C236.438 257.327 244.663 247.812 266.036 256.703 C300.743 271.141 324.823 312.108 332.432 369.454 C335.923 395.768 319.044 410 292.5 410 L270.5 410 C260.058 410 250.05 399.677 249.244 389.266 C247.394 365.366 242.228 348.44 234.634 342.934 C228.802 338.704 233.811 335.907 228.865 341.144 C225.363 344.851 154.675 419 103 419 C103.826 419 105.335 403.987 106.962 386.363 C106.963 386.35 107.023 385.99 107.022 386.002 L106 397.5 C104.563 413.663 98.4411 421.56 82.8496 417.064 C43.9148 405.838 16.7409 363.14 8.56837 301.546 C5.11293 275.503 21.7309 260.813 48 260.5 L69.5015 260.244 C79.952 260.12 89.9492 270.314 90.7558 280.734 L90.7558 280.734 Z " />
<glyph glyph-name="nbspace" unicode="&#xa0;" horiz-adv-x="220" d="" />
<glyph glyph-name="exclamdown" unicode="&#xa1;" horiz-adv-x="225" d="M51 688.56 L51 686.44 C51 652.527 78.527 625 112.44 625 L114.56 625 C148.473 625 176 652.527 176 686.44 L176 688.56 C176 722.473 148.473 750 114.56 750 L112.44 750 C78.527 750 51 722.473 51 688.56 L51 688.56 Z M106.44 0 L118.56 0 C152.473 0 180 27.527 180 61.44 L180 303.399 C180 304.173 178.762 315.694 178.598 316.451 L133.718 522.899 C131.712 532.123 121.939 540 112.5 540 C103.061 540 93.2876 532.123 91.2825 522.899 L46.4023 316.451 C46.2379 315.694 45 304.173 45 303.399 L45 61.44 C45 27.527 72.527 0 106.44 0 L106.44 0 Z " />
<glyph glyph-name="cent" unicode="&#xa2;" horiz-adv-x="532" d="M294 561.5 C294 544.685 278.19 526.792 261.596 524.078 C132.14 502.905 50 419.1 50 260 C50 100.9 132.14 17.095 261.596 -4.07825 C278.19 -6.79229 294 -24.6855 294 -41.5 C294 -59.991 309.009 -75 327.5 -75 L333.5 -75 C353.095 -75 369 -59.0949 369 -39.5 L369 -33.6015 C369 -21.9005 387.779 2.18008 398.185 7.52987 C440.034 29.0439 475.787 69.898 497.065 122.644 C498.982 127.397 497.584 134.708 493 137 C488.752 139.124 483.055 135.774 481.252 131.379 C460.482 80.7673 427.392 41.4832 389.662 20.6953 C376.437 13.4085 368 21.8327 368 36.9326 L368 483.288 C368 496.436 376.385 503.384 387.141 495.823 C421.836 471.434 454.285 426.116 483.366 368.291 C484.521 365.994 487.924 363.905 490.25 365 L494.5 367 L498.25 369 C500.337 370.113 500.204 374.623 499.139 376.735 C467.541 439.386 431.842 487.471 391.481 512.006 C382.601 517.404 369 539.82 369 550.212 L369 559.5 C369 579.645 352.647 595.782 332.503 595.513 L327.497 595.447 C309.009 595.2 294 579.989 294 561.5 L294 561.5 Z M258.257 26.6383 C206.309 60.205 175 136.6 175 262 C175 388.225 206.309 464.764 258.257 498.356 C279.11 511.84 294 501.116 294 476.284 L294 48.716 C294 23.8887 279.11 13.1642 258.257 26.6383 L258.257 26.6383 Z " />
<glyph glyph-name="guillemotleft" unicode="&#xab;" horiz-adv-x="565" d="M376.761 442.641 L277.721 294.081 C266.144 276.716 266.144 243.284 277.721 225.919 L376.761 77.3592 C385.137 64.794 412.78 50 427.882 50 L445 50 C467.963 50 480.003 72.4959 467.265 91.6025 L377.721 225.919 C366.144 243.284 366.144 276.716 377.721 294.081 L467.265 428.397 C480.003 447.504 467.963 470 445 470 L427.882 470 C412.78 470 385.137 455.206 376.761 442.641 L376.761 442.641 Z M191.761 442.641 L92.7205 294.081 C81.1442 276.716 81.1442 243.284 92.7205 225.919 L191.761 77.3592 C200.137 64.794 227.78 50 242.882 50 L260 50 C282.963 50 295.003 72.4959 282.265 91.6025 L192.721 225.919 C181.144 243.284 181.144 276.716 192.721 294.081 L282.265 428.397 C295.003 447.504 282.963 470 260 470 L242.882 470 C227.78 470 200.137 455.206 191.761 442.641 L191.761 442.641 Z " />
<glyph glyph-name="logicalnot" unicode="&#xac;" horiz-adv-x="417" d="M367 114.5 L367 208.56 C367 242.473 339.473 270 305.56 270 L57 270 C53.1362 270 50 266.864 50 263 C50 259.136 53.1362 256 57 256 L288.56 256 C322.473 256 350 228.473 350 194.56 L350 114.5 C350 109.808 353.808 106 358.5 106 C363.192 106 367 109.808 367 114.5 L367 114.5 Z " />
<glyph glyph-name="acute" unicode="&#xb4;" horiz-adv-x="340" d="M170.5 600 L189.564 600 C205.062 600 232.741 615.063 241.156 628.077 L279.274 687.021 C298.15 716.212 279.763 750 245 750 L213.728 750 C190.923 750 163.147 730.231 155.677 708.684 L135.196 649.604 C126.228 623.734 143.12 600 170.5 600 L170.5 600 Z " />
<glyph glyph-name="periodcentered" unicode="&#xb7;" horiz-adv-x="225" d="M111.44 198 L113.56 198 C147.473 198 175 225.527 175 259.44 L175 261.56 C175 295.473 147.473 323 113.56 323 L111.44 323 C77.527 323 50 295.473 50 261.56 L50 259.44 C50 225.527 77.527 198 111.44 198 L111.44 198 Z " />
<glyph glyph-name="guillemotright" unicode="&#xbb;" horiz-adv-x="547" d="M264.735 428.397 L354.279 294.081 C365.856 276.716 365.856 243.284 354.279 225.919 L264.735 91.6025 C251.997 72.4959 264.037 50 287 50 L304.118 50 C319.22 50 346.863 64.794 355.239 77.3592 L454.279 225.919 C465.856 243.284 465.856 276.716 454.279 294.081 L355.239 442.641 C346.863 455.206 319.22 470 304.118 470 L287 470 C264.037 470 251.997 447.504 264.735 428.397 L264.735 428.397 Z M79.735 428.397 L169.279 294.081 C180.856 276.716 180.856 243.284 169.279 225.919 L79.735 91.6025 C66.9972 72.4959 79.0367 50 102 50 L119.118 50 C134.22 50 161.863 64.794 170.239 77.3592 L269.279 225.919 C280.856 243.284 280.856 276.716 269.279 294.081 L170.239 442.641 C161.863 455.206 134.22 470 119.118 470 L102 470 C79.0367 470 66.9972 447.504 79.735 428.397 L79.735 428.397 Z " />
<glyph glyph-name="questiondown" unicode="&#xbf;" horiz-adv-x="550" d="M249.56 750 L247.44 750 C213.527 750 186 722.473 186 688.56 L186 686.44 C186 652.527 213.527 625 247.44 625 L249.56 625 C283.473 625 311 652.527 311 686.44 L311 688.56 C311 722.473 283.473 750 249.56 750 L249.56 750 Z M444.99 199.912 L427.046 203.145 C411.022 206.032 386.226 187.333 380.703 172.017 C360.646 116.393 308.65 81 241 81 C168 81 120 127 120 195 C120 231 144 262 205 305 C275.55 354.3 297.693 389.15 302.748 483.859 C304.452 515.79 280.977 540 249 540 L240.5 540 C216.998 540 194.366 515.002 192.384 491.584 C187.68 436 171.2 412.8 124 380 C35 317 0 266 0 195 C0 73 96 -9 241 -9 C364.25 -9 457.878 48.8 489.334 139.221 C502.214 176.244 483.568 192.961 444.99 199.912 L444.99 199.912 Z " />
<glyph glyph-name="Agrave" unicode="&#xc0;" horiz-adv-x="754" d="M375.25 830 L394.5 830 C421.823 830 438.612 853.739 429.51 879.501 L408.477 939.029 C400.942 960.352 373.161 980 350.546 980 L319 980 C284.343 980 266.066 946.226 285.021 917.213 L323.814 857.835 C332.218 844.973 359.885 830 375.25 830 L375.25 830 Z M513 251.5 C512.932 251.722 512.87 253.04 512.952 252.823 C538.349 185.501 564.625 117.275 589 50 L594 38 L601 19.5 C604.614 9.94938 617.569 1 627.78 1 L739.78 1 C742.55 1 745.763 -1.49803 744.954 1.15124 C744.556 2.45408 741.571 12.0714 736 26 L727 48 L476.02 711.303 C468.266 731.797 440.468 751 418.556 751 L344.472 751 C332.881 751 318.126 740.832 314 730 L306 709 C304 705 72 89 48 26 C42 11 39 1 39 1 C39 1 42.0763 1 44.2202 1 L50.9861 1 C55.6637 1 61.5695 5.45677 63.1357 9.86431 C68.1172 23.8828 73.2174 37.7826 79 51 L137.019 205.983 C144.771 226.691 172.618 245.943 194.729 245.882 L508.199 245.019 C511.784 245.009 514.054 248.074 513 251.5 L513 251.5 Z M188.211 344.053 L276.324 578.523 C297.246 634.196 370.572 634.128 391.39 578.416 L479.005 343.946 C495.031 301.059 467.236 261 421.452 261 L245.724 261 C199.881 261 172.085 301.14 188.211 344.053 L188.211 344.053 Z " />
<glyph glyph-name="Aacute" unicode="&#xc1;" horiz-adv-x="754" d="M394.5 830 L413.564 830 C429.062 830 456.741 845.063 465.156 858.077 L503.274 917.021 C522.15 946.212 503.763 980 469 980 L437.728 980 C414.923 980 387.147 960.231 379.677 938.684 L359.196 879.604 C350.228 853.734 367.12 830 394.5 830 L394.5 830 Z M513 251.5 C512.932 251.722 512.87 253.04 512.952 252.823 C538.349 185.501 564.625 117.275 589 50 L594 38 L601 19.5 C604.614 9.94938 617.569 1 627.78 1 L739.78 1 C742.55 1 745.763 -1.49803 744.954 1.15124 C744.556 2.45408 741.571 12.0714 736 26 L727 48 L476.02 711.303 C468.266 731.797 440.468 751 418.556 751 L344.472 751 C332.881 751 318.126 740.832 314 730 L306 709 C304 705 72 89 48 26 C42 11 39 1 39 1 C39 1 42.0763 1 44.2202 1 L50.9861 1 C55.6637 1 61.5695 5.45677 63.1357 9.86431 C68.1172 23.8828 73.2174 37.7826 79 51 L137.019 205.983 C144.771 226.691 172.618 245.943 194.729 245.882 L508.199 245.019 C511.784 245.009 514.054 248.074 513 251.5 L513 251.5 Z M188.211 344.053 L276.324 578.523 C297.246 634.196 370.572 634.128 391.39 578.416 L479.005 343.946 C495.031 301.059 467.236 261 421.452 261 L245.724 261 C199.881 261 172.085 301.14 188.211 344.053 L188.211 344.053 Z " />
<glyph glyph-name="Acircumflex" unicode="&#xc2;" horiz-adv-x="754" d="M402.535 887.422 C424.547 875.938 459 830 459 830 C459 830 455.807 830 489.72 830 L511.5 830 C534.72 830 546.482 853.462 532.59 872.067 L470.429 955.319 C462.278 966.235 434.821 980 421.198 980 L366.802 980 C353.179 980 325.722 966.235 317.571 955.319 L255.41 872.067 C241.518 853.462 253.28 830 276.5 830 L304.978 830 C313.972 830 340.043 840.193 346.651 846.294 L386.652 883.217 C393.522 889.559 394.246 891.747 402.535 887.422 L402.535 887.422 Z M513 251.5 C512.932 251.722 512.87 253.04 512.952 252.823 C538.349 185.501 564.625 117.275 589 50 L594 38 L601 19.5 C604.614 9.94938 617.569 1 627.78 1 L739.78 1 C742.55 1 745.763 -1.49803 744.954 1.15124 C744.556 2.45408 741.571 12.0714 736 26 L727 48 L476.02 711.303 C468.266 731.797 440.468 751 418.556 751 L344.472 751 C332.881 751 318.126 740.832 314 730 L306 709 C304 705 72 89 48 26 C42 11 39 1 39 1 C39 1 42.0763 1 44.2202 1 L50.9861 1 C55.6637 1 61.5695 5.45677 63.1357 9.86431 C68.1172 23.8828 73.2174 37.7826 79 51 L137.019 205.983 C144.771 226.691 172.618 245.943 194.729 245.882 L508.199 245.019 C511.784 245.009 514.054 248.074 513 251.5 L513 251.5 Z M188.211 344.053 L276.324 578.523 C297.246 634.196 370.572 634.128 391.39 578.416 L479.005 343.946 C495.031 301.059 467.236 261 421.452 261 L245.724 261 C199.881 261 172.085 301.14 188.211 344.053 L188.211 344.053 Z " />
<glyph glyph-name="Atilde" unicode="&#xc3;" horiz-adv-x="754" d="M314.756 850.734 C317.033 880.149 324.333 899 335 899 C369 899 408 821 461 821 C459 821 453 911 453 911 C453 911 456.969 866.351 456.993 866.077 L458.388 850.384 C460.438 827.327 468.663 817.812 490.036 826.703 C524.743 841.141 548.823 882.108 556.432 939.454 C559.923 965.768 543.044 980 516.5 980 L494.5 980 C484.058 980 474.05 969.677 473.244 959.266 C471.394 935.366 466.228 918.44 458.634 912.934 C452.802 908.704 457.811 905.907 452.865 911.144 C449.363 914.851 378.675 989 327 989 C327.826 989 329.335 973.987 330.962 956.363 C330.963 956.35 331.023 955.99 331.022 956.002 L330 967.5 C328.563 983.663 322.441 991.56 306.85 987.064 C267.915 975.838 240.741 933.14 232.568 871.546 C229.113 845.503 245.731 830.813 272 830.5 L293.501 830.244 C303.952 830.12 313.949 840.314 314.756 850.734 L314.756 850.734 Z M514 252.5 C513.932 252.722 513.87 254.04 513.952 253.823 C539.349 186.501 565.625 118.275 590 51 L595 39 L602 20.5 C605.614 10.9494 618.569 2 628.78 2 L740.78 2 C743.55 2 746.763 -0.498027 745.954 2.15124 C745.556 3.45408 742.571 13.0714 737 27 L728 49 L477.02 712.303 C469.266 732.797 441.468 752 419.556 752 L345.472 752 C333.881 752 319.126 741.832 315 731 L307 710 C305 706 73 90 49 27 C43 12 40 2 40 2 C40 2 43.0763 2 45.2202 2 L51.9861 2 C56.6637 2 62.5695 6.45677 64.1357 10.8643 C69.1172 24.8828 74.2174 38.7826 80 52 L138.019 206.983 C145.771 227.691 173.618 246.943 195.729 246.882 L509.199 246.019 C512.784 246.009 515.054 249.074 514 252.5 L514 252.5 Z M189.211 345.053 L277.324 579.523 C298.246 635.196 371.572 635.128 392.39 579.416 L480.005 344.946 C496.031 302.059 468.236 262 422.452 262 L246.724 262 C200.881 262 173.085 302.14 189.211 345.053 L189.211 345.053 Z " />
<glyph glyph-name="Adieresis" unicode="&#xc4;" horiz-adv-x="754" d="M473.44 830 L475.56 830 C509.473 830 537 857.527 537 891.44 L537 893.56 C537 927.473 509.473 955 475.56 955 L473.44 955 C439.527 955 412 927.473 412 893.56 L412 891.44 C412 857.527 439.527 830 473.44 830 L473.44 830 Z M312.44 830 L314.56 830 C348.473 830 376 857.527 376 891.44 L376 893.56 C376 927.473 348.473 955 314.56 955 L312.44 955 C278.527 955 251 927.473 251 893.56 L251 891.44 C251 857.527 278.527 830 312.44 830 L312.44 830 Z M513 251.5 C512.932 251.722 512.87 253.04 512.952 252.823 C538.349 185.501 564.625 117.275 589 50 L594 38 L601 19.5 C604.614 9.94938 617.569 1 627.78 1 L739.78 1 C742.55 1 745.763 -1.49803 744.954 1.15124 C744.556 2.45408 741.571 12.0714 736 26 L727 48 L476.02 711.303 C468.266 731.797 440.468 751 418.556 751 L344.472 751 C332.881 751 318.126 740.832 314 730 L306 709 C304 705 72 89 48 26 C42 11 39 1 39 1 C39 1 42.0763 1 44.2202 1 L50.9861 1 C55.6637 1 61.5695 5.45677 63.1357 9.86431 C68.1172 23.8828 73.2174 37.7826 79 51 L137.019 205.983 C144.771 226.691 172.618 245.943 194.729 245.882 L508.199 245.019 C511.784 245.009 514.054 248.074 513 251.5 L513 251.5 Z M188.211 344.053 L276.324 578.523 C297.246 634.196 370.572 634.128 391.39 578.416 L479.005 343.946 C495.031 301.059 467.236 261 421.452 261 L245.724 261 C199.881 261 172.085 301.14 188.211 344.053 L188.211 344.053 Z " />
<glyph glyph-name="Aring" unicode="&#xc5;" horiz-adv-x="754" d="M366 915 C366 935 376 946 394 946 C412 946 423 935 423 915 C423 894 413 883 394 883 C376 883 366 894 366 915 L366 915 Z M309 915 C309 859 338 830 394 830 C451 830 480 859 480 915 C480 968 448 999 394 999 C340 999 309 968 309 915 L309 915 Z M513 251.5 C512.932 251.722 512.87 253.04 512.952 252.823 C538.349 185.501 564.625 117.275 589 50 L594 38 L601 19.5 C604.614 9.94938 617.569 1 627.78 1 L739.78 1 C742.55 1 745.763 -1.49803 744.954 1.15124 C744.556 2.45408 741.571 12.0714 736 26 L727 48 L476.02 711.303 C468.266 731.797 440.468 751 418.556 751 L344.472 751 C332.881 751 318.126 740.832 314 730 L306 709 C304 705 72 89 48 26 C42 11 39 1 39 1 C39 1 42.0763 1 44.2202 1 L50.9861 1 C55.6637 1 61.5695 5.45677 63.1357 9.86431 C68.1172 23.8828 73.2174 37.7826 79 51 L137.019 205.983 C144.771 226.691 172.618 245.943 194.729 245.882 L508.199 245.019 C511.784 245.009 514.054 248.074 513 251.5 L513 251.5 Z M188.211 344.053 L276.324 578.523 C297.246 634.196 370.572 634.128 391.39 578.416 L479.005 343.946 C495.031 301.059 467.236 261 421.452 261 L245.724 261 C199.881 261 172.085 301.14 188.211 344.053 L188.211 344.053 Z " />
<glyph glyph-name="Ccedilla" unicode="&#xc7;" horiz-adv-x="695" d="M352 -92 C374 -92 388 -112 388 -143 C388 -174 372 -195 349 -195 C328.76 -195 315.291 -184.843 314.823 -169.98 C314.78 -168.612 312.968 -168.032 312 -169 C310.895 -170.105 308.798 -173.938 308.666 -175.495 C304.859 -220.531 321.775 -250 352 -250 C413 -250 453 -207 453 -143 C453 -108 413 -84 354 -84 C342.733 -84 332.218 -87.7556 325.708 -93.3138 C325.219 -93.7313 324.712 -92.4214 324.989 -91.8414 L362.85 -12.6764 C364.951 -8.28483 371.006 -4.64299 375.837 -5.24624 C392.154 -7.28402 409.077 -8 426 -8 C525.45 -8 622.999 60.445 672.303 163.041 C674.602 167.825 672.644 173.684 668.5 177 C664.57 180.144 659.557 179.732 657.388 175.191 C609.3 74.5437 517.65 8 426 8 C284 8 190 177 190 376 C190 575 284 744 426 744 C504 744 595.309 677.456 656.364 576.809 C657.761 574.505 662.844 570.383 665 572 L669 575 L672.5 578 C674.446 579.668 672.609 586.768 671.28 588.959 C609.007 691.555 511.8 760 426 760 C202 760 53 583 53 376 C53 208.6 151.01 60.64 307.664 10.852 C332.514 2.95426 348.973 -28.5854 337.5 -52 L314.206 -99.5382 C313.541 -100.896 314.121 -102.504 315.5 -103.125 C316.573 -103.608 318.971 -102.349 319.677 -101.408 C325.043 -94.2531 337.389 -90.5 352.5 -90.5 L352 -92 Z " />
<glyph glyph-name="Egrave" unicode="&#xc8;" horiz-adv-x="640" d="M312.25 830 L331.5 830 C358.823 830 375.612 853.739 366.51 879.501 L345.477 939.029 C337.942 960.352 310.161 980 287.546 980 L256 980 C221.343 980 203.066 946.226 222.021 917.213 L260.814 857.835 C269.218 844.973 296.885 830 312.25 830 L312.25 830 Z M582 16 L276.44 16 C242.527 16 215 43.527 215 77.44 L215 318.56 C215 352.473 242.527 380 276.44 380 L548 380 C551.864 380 555 383.136 555 387 C555 390.864 551.864 394 548 394 L276.44 394 C242.527 394 215 421.527 215 455.44 L215 672.56 C215 706.473 242.527 734 276.44 734 L567 734 C571.416 734 575 737.584 575 742 C575 746.416 571.416 750 567 750 L148.44 750 C114.527 750 87 722.473 87 688.56 L87 61.44 C87 27.527 114.527 0 148.44 0 L582 0 C586.416 0 590 3.58424 590 8 C590 12.4158 586.416 16 582 16 L582 16 Z " />
<glyph glyph-name="Eacute" unicode="&#xc9;" horiz-adv-x="640" d="M331.5 830 L350.564 830 C366.062 830 393.741 845.063 402.156 858.077 L440.274 917.021 C459.15 946.212 440.763 980 406 980 L374.728 980 C351.923 980 324.147 960.231 316.677 938.684 L296.196 879.604 C287.228 853.734 304.12 830 331.5 830 L331.5 830 Z M582 16 L276.44 16 C242.527 16 215 43.527 215 77.44 L215 318.56 C215 352.473 242.527 380 276.44 380 L548 380 C551.864 380 555 383.136 555 387 C555 390.864 551.864 394 548 394 L276.44 394 C242.527 394 215 421.527 215 455.44 L215 672.56 C215 706.473 242.527 734 276.44 734 L567 734 C571.416 734 575 737.584 575 742 C575 746.416 571.416 750 567 750 L148.44 750 C114.527 750 87 722.473 87 688.56 L87 61.44 C87 27.527 114.527 0 148.44 0 L582 0 C586.416 0 590 3.58424 590 8 C590 12.4158 586.416 16 582 16 L582 16 Z " />
<glyph glyph-name="Ecircumflex" unicode="&#xca;" horiz-adv-x="640" d="M339.535 887.422 C361.547 875.938 396 830 396 830 C396 830 392.807 830 426.72 830 L448.5 830 C471.72 830 483.482 853.462 469.59 872.067 L407.429 955.319 C399.278 966.235 371.821 980 358.198 980 L303.802 980 C290.179 980 262.722 966.235 254.571 955.319 L192.41 872.067 C178.518 853.462 190.28 830 213.5 830 L241.978 830 C250.972 830 277.043 840.193 283.651 846.294 L323.652 883.217 C330.522 889.559 331.246 891.747 339.535 887.422 L339.535 887.422 Z M582 16 L276.44 16 C242.527 16 215 43.527 215 77.44 L215 318.56 C215 352.473 242.527 380 276.44 380 L548 380 C551.864 380 555 383.136 555 387 C555 390.864 551.864 394 548 394 L276.44 394 C242.527 394 215 421.527 215 455.44 L215 672.56 C215 706.473 242.527 734 276.44 734 L567 734 C571.416 734 575 737.584 575 742 C575 746.416 571.416 750 567 750 L148.44 750 C114.527 750 87 722.473 87 688.56 L87 61.44 C87 27.527 114.527 0 148.44 0 L582 0 C586.416 0 590 3.58424 590 8 C590 12.4158 586.416 16 582 16 L582 16 Z " />
<glyph glyph-name="Edieresis" unicode="&#xcb;" horiz-adv-x="640" d="M410.44 830 L412.56 830 C446.473 830 474 857.527 474 891.44 L474 893.56 C474 927.473 446.473 955 412.56 955 L410.44 955 C376.527 955 349 927.473 349 893.56 L349 891.44 C349 857.527 376.527 830 410.44 830 L410.44 830 Z M249.44 830 L251.56 830 C285.473 830 313 857.527 313 891.44 L313 893.56 C313 927.473 285.473 955 251.56 955 L249.44 955 C215.527 955 188 927.473 188 893.56 L188 891.44 C188 857.527 215.527 830 249.44 830 L249.44 830 Z M582 16 L276.44 16 C242.527 16 215 43.527 215 77.44 L215 318.56 C215 352.473 242.527 380 276.44 380 L548 380 C551.864 380 555 383.136 555 387 C555 390.864 551.864 394 548 394 L276.44 394 C242.527 394 215 421.527 215 455.44 L215 672.56 C215 706.473 242.527 734 276.44 734 L567 734 C571.416 734 575 737.584 575 742 C575 746.416 571.416 750 567 750 L148.44 750 C114.527 750 87 722.473 87 688.56 L87 61.44 C87 27.527 114.527 0 148.44 0 L582 0 C586.416 0 590 3.58424 590 8 C590 12.4158 586.416 16 582 16 L582 16 Z " />
<glyph glyph-name="Igrave" unicode="&#xcc;" horiz-adv-x="301" d="M133.25 830 L152.5 830 C179.823 830 196.612 853.739 187.51 879.501 L166.477 939.029 C158.942 960.352 131.161 980 108.546 980 L77 980 C42.3432 980 24.0657 946.226 43.0211 917.213 L81.8142 857.835 C90.2177 844.973 117.885 830 133.25 830 L133.25 830 Z M216 61.44 L216 688.56 C216 722.473 188.473 750 154.56 750 L149.44 750 C115.527 750 88 722.473 88 688.56 L88 61.44 C88 27.527 115.527 0 149.44 0 L154.56 0 C188.473 0 216 27.527 216 61.44 L216 61.44 Z " />
<glyph glyph-name="Iacute" unicode="&#xcd;" horiz-adv-x="301" d="M152.5 830 L171.564 830 C187.062 830 214.741 845.063 223.156 858.077 L261.274 917.021 C280.15 946.212 261.763 980 227 980 L195.728 980 C172.923 980 145.147 960.231 137.677 938.684 L117.196 879.604 C108.228 853.734 125.12 830 152.5 830 L152.5 830 Z M216 61.44 L216 688.56 C216 722.473 188.473 750 154.56 750 L149.44 750 C115.527 750 88 722.473 88 688.56 L88 61.44 C88 27.527 115.527 0 149.44 0 L154.56 0 C188.473 0 216 27.527 216 61.44 L216 61.44 Z " />
<glyph glyph-name="Icircumflex" unicode="&#xce;" horiz-adv-x="301" d="M160.535 887.422 C182.547 875.938 217 830 217 830 C217 830 213.807 830 247.72 830 L269.5 830 C292.72 830 304.482 853.462 290.59 872.067 L228.429 955.319 C220.278 966.235 192.821 980 179.198 980 L124.802 980 C111.179 980 83.7221 966.235 75.5714 955.319 L13.4102 872.067 C-0.481995 853.462 11.2802 830 34.5 830 L62.978 830 C71.9716 830 98.0429 840.193 104.651 846.294 L144.652 883.217 C151.522 889.559 152.246 891.747 160.535 887.422 L160.535 887.422 Z M216 61.44 L216 688.56 C216 722.473 188.473 750 154.56 750 L149.44 750 C115.527 750 88 722.473 88 688.56 L88 61.44 C88 27.527 115.527 0 149.44 0 L154.56 0 C188.473 0 216 27.527 216 61.44 L216 61.44 Z " />
<glyph glyph-name="Idieresis" unicode="&#xcf;" horiz-adv-x="301" d="M231.44 830 L233.56 830 C267.473 830 295 857.527 295 891.44 L295 893.56 C295 927.473 267.473 955 233.56 955 L231.44 955 C197.527 955 170 927.473 170 893.56 L170 891.44 C170 857.527 197.527 830 231.44 830 L231.44 830 Z M70.44 830 L72.56 830 C106.473 830 134 857.527 134 891.44 L134 893.56 C134 927.473 106.473 955 72.56 955 L70.44 955 C36.527 955 9 927.473 9 893.56 L9 891.44 C9 857.527 36.527 830 70.44 830 L70.44 830 Z M216 61.44 L216 688.56 C216 722.473 188.473 750 154.56 750 L149.44 750 C115.527 750 88 722.473 88 688.56 L88 61.44 C88 27.527 115.527 0 149.44 0 L154.56 0 C188.473 0 216 27.527 216 61.44 L216 61.44 Z " />
<glyph glyph-name="Ntilde" unicode="&#xd1;" horiz-adv-x="668" d="M269.756 850.734 C272.033 880.149 279.333 899 290 899 C324 899 363 821 416 821 C414 821 408 911 408 911 C408 911 411.969 866.351 411.993 866.077 L413.388 850.384 C415.438 827.327 423.663 817.812 445.036 826.703 C479.743 841.141 503.823 882.108 511.432 939.454 C514.923 965.768 498.044 980 471.5 980 L449.5 980 C439.058 980 429.05 969.677 428.244 959.266 C426.394 935.366 421.228 918.44 413.634 912.934 C407.802 908.704 412.811 905.907 407.865 911.144 C404.363 914.851 333.675 989 282 989 C282.826 989 284.335 973.987 285.962 956.363 C285.963 956.35 286.023 955.99 286.022 956.002 L285 967.5 C283.563 983.663 277.441 991.56 261.85 987.064 C222.915 975.838 195.741 933.14 187.568 871.546 C184.113 845.503 200.731 830.813 227 830.5 L248.501 830.244 C258.952 830.12 268.949 840.314 269.756 850.734 L269.756 850.734 Z M134 10.5 L134 401.902 C134 467.068 226.761 485.809 252.061 425.755 L415.165 38.587 C423.22 19.4675 451.039 1 471.786 1 L522.56 1 C556.473 1 584 28.527 584 62.44 L584 741.5 C584 746.744 579.744 751 574.5 751 C569.256 751 565 746.744 565 741.5 L565 326.199 C565 261.032 472.229 242.294 446.936 302.353 L273.832 713.406 C265.778 732.53 237.959 751 217.208 751 L176.44 751 C142.527 751 115 723.473 115 689.56 L115 10.5 C115 5.25628 119.256 1 124.5 1 C129.744 1 134 5.25628 134 10.5 L134 10.5 Z " />
<glyph glyph-name="Ograve" unicode="&#xd2;" horiz-adv-x="814" d="M389.25 830 L408.5 830 C435.823 830 452.612 853.739 443.51 879.501 L422.477 939.029 C414.942 960.352 387.161 980 364.546 980 L333 980 C298.343 980 280.066 946.226 299.021 917.213 L337.814 857.835 C346.218 844.973 373.885 830 389.25 830 L389.25 830 Z M194 375 C194 585 286 743 408 743 C530 743 622 585 622 375 C622 154 536 7 408 7 C280 7 194 154 194 375 L194 375 Z M57 375 C57 145 197 -9 408 -9 C619 -9 759 145 759 375 C759 594 608 759 408 759 C208 759 57 594 57 375 L57 375 Z " />
<glyph glyph-name="Oacute" unicode="&#xd3;" horiz-adv-x="814" d="M408.5 830 L427.564 830 C443.062 830 470.741 845.063 479.156 858.077 L517.274 917.021 C536.15 946.212 517.763 980 483 980 L451.728 980 C428.923 980 401.147 960.231 393.677 938.684 L373.196 879.604 C364.228 853.734 381.12 830 408.5 830 L408.5 830 Z M194 375 C194 585 286 743 408 743 C530 743 622 585 622 375 C622 154 536 7 408 7 C280 7 194 154 194 375 L194 375 Z M57 375 C57 145 197 -9 408 -9 C619 -9 759 145 759 375 C759 594 608 759 408 759 C208 759 57 594 57 375 L57 375 Z " />
<glyph glyph-name="Ocircumflex" unicode="&#xd4;" horiz-adv-x="814" d="M416.535 887.422 C438.547 875.938 473 830 473 830 C473 830 469.807 830 503.72 830 L525.5 830 C548.72 830 560.482 853.462 546.59 872.067 L484.429 955.319 C476.278 966.235 448.821 980 435.198 980 L380.802 980 C367.179 980 339.722 966.235 331.571 955.319 L269.41 872.067 C255.518 853.462 267.28 830 290.5 830 L318.978 830 C327.972 830 354.043 840.193 360.651 846.294 L400.652 883.217 C407.522 889.559 408.246 891.747 416.535 887.422 L416.535 887.422 Z M194 375 C194 585 286 743 408 743 C530 743 622 585 622 375 C622 154 536 7 408 7 C280 7 194 154 194 375 L194 375 Z M57 375 C57 145 197 -9 408 -9 C619 -9 759 145 759 375 C759 594 608 759 408 759 C208 759 57 594 57 375 L57 375 Z " />
<glyph glyph-name="Otilde" unicode="&#xd5;" horiz-adv-x="814" d="M328.756 850.734 C331.033 880.149 338.333 899 349 899 C383 899 422 821 475 821 C473 821 467 911 467 911 C467 911 470.969 866.351 470.993 866.077 L472.388 850.384 C474.438 827.327 482.663 817.812 504.036 826.703 C538.743 841.141 562.823 882.108 570.432 939.454 C573.923 965.768 557.044 980 530.5 980 L508.5 980 C498.058 980 488.05 969.677 487.244 959.266 C485.394 935.366 480.228 918.44 472.634 912.934 C466.802 908.704 471.811 905.907 466.865 911.144 C463.362 914.851 392.675 989 341 989 C341.826 989 343.335 973.987 344.962 956.363 C344.963 956.35 345.023 955.99 345.022 956.002 L344 967.5 C342.563 983.663 336.441 991.56 320.85 987.064 C281.915 975.838 254.741 933.14 246.568 871.546 C243.113 845.503 259.731 830.813 286 830.5 L307.501 830.244 C317.952 830.12 327.949 840.314 328.756 850.734 L328.756 850.734 Z M195 376 C195 586 287 744 409 744 C531 744 623 586 623 376 C623 155 537 8 409 8 C281 8 195 155 195 376 L195 376 Z M58 376 C58 146 198 -8 409 -8 C620 -8 760 146 760 376 C760 595 609 760 409 760 C209 760 58 595 58 376 L58 376 Z " />
<glyph glyph-name="Odieresis" unicode="&#xd6;" horiz-adv-x="814" d="M487.44 830 L489.56 830 C523.473 830 551 857.527 551 891.44 L551 893.56 C551 927.473 523.473 955 489.56 955 L487.44 955 C453.527 955 426 927.473 426 893.56 L426 891.44 C426 857.527 453.527 830 487.44 830 L487.44 830 Z M326.44 830 L328.56 830 C362.473 830 390 857.527 390 891.44 L390 893.56 C390 927.473 362.473 955 328.56 955 L326.44 955 C292.527 955 265 927.473 265 893.56 L265 891.44 C265 857.527 292.527 830 326.44 830 L326.44 830 Z M194 375 C194 585 286 743 408 743 C530 743 622 585 622 375 C622 154 536 7 408 7 C280 7 194 154 194 375 L194 375 Z M57 375 C57 145 197 -9 408 -9 C619 -9 759 145 759 375 C759 594 608 759 408 759 C208 759 57 594 57 375 L57 375 Z " />
<glyph glyph-name="Oslash" unicode="&#xd8;" horiz-adv-x="814" d="M57 375 C57 282.6 79.4606 202.451 119.89 139.607 C130.768 122.697 132.656 83.2841 119.909 67.7346 L79.5069 18.4534 C69.8996 6.73471 77.3465 -9 92.5 -9 L98.9689 -9 C111.348 -9 138.573 3.86412 146.434 13.4277 L164.299 35.1639 C175.718 49.0564 204.695 50.7471 219.985 41.2812 C272.617 8.69625 336.225 -9 408 -9 C619 -9 759 145 759 375 C759 462.45 734.498 541.733 692.231 604.986 C680.638 622.335 678.509 661.938 691.729 678.08 L735.507 731.535 C745.112 743.264 737.66 759 722.5 759 L715.825 759 C703.589 759 676.396 746.242 668.575 736.833 L647.512 711.49 C635.616 697.178 606.245 695.683 590.598 705.758 C537.505 739.942 474.475 759 406 759 C206 759 56 594 56 375 L57 375 Z M544.641 586.182 L234.588 209.375 C226.269 199.264 212.297 203.998 209.254 216.733 C198.126 263.295 192 316.425 192 375 C192 585 284 743 406 743 C462.95 743 513.398 708.32 551.201 650.014 C564.074 630.16 559.676 604.454 544.641 586.182 L544.641 586.182 Z M601.266 529.845 C613.194 482.797 620 430.1 620 374 C620 153 534 6 406 6 C345.65 6 294.693 38.5125 257.426 95.5539 C244.439 115.434 249.09 140.285 264.162 158.635 L575.034 537.126 C583.589 547.542 597.953 542.91 601.266 529.845 L601.266 529.845 Z " />
<glyph glyph-name="Ugrave" unicode="&#xd9;" horiz-adv-x="704" d="M333.25 821 L352.5 821 C379.823 821 396.612 844.739 387.51 870.501 L366.477 930.029 C358.942 951.352 331.161 971 308.546 971 L277 971 C242.343 971 224.066 937.226 243.021 908.213 L281.814 848.835 C290.218 835.973 317.885 821 333.25 821 L333.25 821 Z M605 740.5 L605 298 C605 107 519 9 352 9 C257 9 208 112 208 312 L208 688.56 C208 722.473 180.473 750 146.56 750 L141.44 750 C107.527 750 80 722.473 80 688.56 L80 289 C80 92 172 -9 352 -9 C532 -9 624 94 624 294 L624 740.5 C624 745.744 619.744 750 614.5 750 C609.256 750 605 745.744 605 740.5 L605 740.5 Z " />
<glyph glyph-name="Uacute" unicode="&#xda;" horiz-adv-x="704" d="M352.5 821 L371.564 821 C387.062 821 414.741 836.063 423.156 849.077 L461.274 908.021 C480.15 937.212 461.763 971 427 971 L395.728 971 C372.923 971 345.147 951.231 337.677 929.684 L317.196 870.604 C308.228 844.734 325.12 821 352.5 821 L352.5 821 Z M605 740.5 L605 298 C605 107 519 9 352 9 C257 9 208 112 208 312 L208 688.56 C208 722.473 180.473 750 146.56 750 L141.44 750 C107.527 750 80 722.473 80 688.56 L80 289 C80 92 172 -9 352 -9 C532 -9 624 94 624 294 L624 740.5 C624 745.744 619.744 750 614.5 750 C609.256 750 605 745.744 605 740.5 L605 740.5 Z " />
<glyph glyph-name="Ucircumflex" unicode="&#xdb;" horiz-adv-x="704" d="M360.535 878.422 C382.547 866.938 417 821 417 821 C417 821 413.807 821 447.72 821 L469.5 821 C492.72 821 504.482 844.462 490.59 863.067 L428.429 946.319 C420.278 957.235 392.821 971 379.198 971 L324.802 971 C311.179 971 283.722 957.235 275.571 946.319 L213.41 863.067 C199.518 844.462 211.28 821 234.5 821 L262.978 821 C271.972 821 298.043 831.193 304.651 837.294 L344.652 874.217 C351.522 880.559 352.246 882.747 360.535 878.422 L360.535 878.422 Z M605 740.5 L605 298 C605 107 519 9 352 9 C257 9 208 112 208 312 L208 688.56 C208 722.473 180.473 750 146.56 750 L141.44 750 C107.527 750 80 722.473 80 688.56 L80 289 C80 92 172 -9 352 -9 C532 -9 624 94 624 294 L624 740.5 C624 745.744 619.744 750 614.5 750 C609.256 750 605 745.744 605 740.5 L605 740.5 Z " />
<glyph glyph-name="Udieresis" unicode="&#xdc;" horiz-adv-x="704" d="M431.44 821 L433.56 821 C467.473 821 495 848.527 495 882.44 L495 884.56 C495 918.473 467.473 946 433.56 946 L431.44 946 C397.527 946 370 918.473 370 884.56 L370 882.44 C370 848.527 397.527 821 431.44 821 L431.44 821 Z M270.44 821 L272.56 821 C306.473 821 334 848.527 334 882.44 L334 884.56 C334 918.473 306.473 946 272.56 946 L270.44 946 C236.527 946 209 918.473 209 884.56 L209 882.44 C209 848.527 236.527 821 270.44 821 L270.44 821 Z M605 740.5 L605 298 C605 107 519 9 352 9 C257 9 208 112 208 312 L208 688.56 C208 722.473 180.473 750 146.56 750 L141.44 750 C107.527 750 80 722.473 80 688.56 L80 289 C80 92 172 -9 352 -9 C532 -9 624 94 624 294 L624 740.5 C624 745.744 619.744 750 614.5 750 C609.256 750 605 745.744 605 740.5 L605 740.5 Z " />
<glyph glyph-name="Yacute" unicode="&#xdd;" horiz-adv-x="600" d="M303.5 830 L322.75 830 C338.115 830 365.782 844.973 374.186 857.835 L412.979 917.213 C431.934 946.226 413.657 980 379 980 L347.454 980 C324.839 980 297.058 960.352 289.523 939.029 L268.49 879.501 C259.388 853.739 276.177 830 303.5 830 L303.5 830 Z M133.338 750 L30.2098 750 C23.8622 750 20.3766 744.026 23.5 738.5 L30 727 C38 713 45 700 45 700 L245.117 344.022 C247.249 340.229 253 318.265 253 313.914 L253 61.44 C253 27.527 280.527 0 314.44 0 L319.56 0 C353.473 0 381 27.527 381 61.44 L381 355.182 C381 359.398 386.602 381.159 388.638 384.851 L585.413 741.681 C587.63 745.702 585.092 750 580.5 750 C575.914 750 573.156 753.883 570.93 749.873 C569.816 747.867 555.8 722.6 551 713 L372.072 384.965 C370.131 381.407 363.551 377.369 359.5 377.25 C355.329 377.127 348.905 380.79 346.886 384.442 L173 699 C173 699 161.745 720.455 151.035 739.175 C148.193 744.143 139.061 750 133.338 750 L133.338 750 Z " />
<glyph glyph-name="Thorn" unicode="&#xde;" horiz-adv-x="624" d="M215 61.44 L215 94.5 C215 125.134 239.866 150 270.5 150 L326 150 C500 150 589 227 589 375 C589 524 500 600 326 600 L270.5 600 C239.866 600 215 624.866 215 655.5 L215 688.56 C215 722.473 187.473 750 153.56 750 L148.44 750 C114.527 750 87 722.473 87 688.56 L87 61.44 C87 27.527 114.527 0 148.44 0 L153.56 0 C187.473 0 215 27.527 215 61.44 L215 61.44 Z M215 221 L215 530 C215 560.358 239.642 585 270 585 L325 585 C415 585 461 514 461 375 C461 236 415 165 327 165 L271 165 C240.09 165 215 190.09 215 221 L215 221 Z " />
<glyph glyph-name="agrave" unicode="&#xe0;" horiz-adv-x="550" d="M257.25 600 L276.5 600 C303.823 600 320.612 623.739 311.51 649.501 L290.477 709.029 C282.942 730.352 255.161 750 232.546 750 L201 750 C166.343 750 148.066 716.226 167.021 687.213 L205.814 627.835 C214.218 614.973 241.885 600 257.25 600 L257.25 600 Z M85 380.5 C89.2799 379.163 93.5803 379.884 95.1107 384.099 C123.656 462.716 195.075 515 276 515 C326 515 360 479 360 385 C360 276 300 245 211 245 C108 245 40 185 40 96 C40 33 88 -9 211 -9 C285.1 -9 339.237 20.4694 358.581 117.409 C358.72 118.107 360 118.211 360 117.5 L360 110 C360 14.6 364.86 1.82 478.098 0.218 C501.886 -0.118536 520 18.7094 520 42.5 L520 63.5 C520 74.7284 508.676 84.7581 497.464 85.3626 C476.229 86.5077 475 91.1892 475 110 L475 336 C475 475 395 529 276 529 C187.275 529 109.007 473.864 79.1969 389.543 C77.6061 385.044 80.4448 381.924 85 380.5 L85 380.5 Z M360 281.902 L360 171 C352 41 296 3 216 3 C172 3 155 42 155 101 C155 181 182 234 222 234 C278.1 234 322.289 246.932 347.267 285.71 C350.089 290.09 360 287.112 360 281.902 L360 281.902 Z " />
<glyph glyph-name="aacute" unicode="&#xe1;" horiz-adv-x="550" d="M276.5 600 L295.564 600 C311.062 600 338.741 615.063 347.156 628.077 L385.274 687.021 C404.15 716.212 385.763 750 351 750 L319.728 750 C296.923 750 269.147 730.231 261.677 708.684 L241.196 649.604 C232.228 623.734 249.12 600 276.5 600 L276.5 600 Z M85 380.5 C89.2799 379.163 93.5803 379.884 95.1107 384.099 C123.656 462.716 195.075 515 276 515 C326 515 360 479 360 385 C360 276 300 245 211 245 C108 245 40 185 40 96 C40 33 88 -9 211 -9 C285.1 -9 339.237 20.4694 358.581 117.409 C358.72 118.107 360 118.211 360 117.5 L360 110 C360 14.6 364.86 1.82 478.098 0.218 C501.886 -0.118536 520 18.7094 520 42.5 L520 63.5 C520 74.7284 508.676 84.7581 497.464 85.3626 C476.229 86.5077 475 91.1892 475 110 L475 336 C475 475 395 529 276 529 C187.275 529 109.007 473.864 79.1969 389.543 C77.6061 385.044 80.4448 381.924 85 380.5 L85 380.5 Z M360 281.902 L360 171 C352 41 296 3 216 3 C172 3 155 42 155 101 C155 181 182 234 222 234 C278.1 234 322.289 246.932 347.267 285.71 C350.089 290.09 360 287.112 360 281.902 L360 281.902 Z " />
<glyph glyph-name="acircumflex" unicode="&#xe2;" horiz-adv-x="550" d="M284.535 657.422 C306.547 645.938 341 600 341 600 C341 600 337.807 600 371.72 600 L393.5 600 C416.72 600 428.482 623.462 414.59 642.067 L352.429 725.319 C344.278 736.235 316.821 750 303.198 750 L248.802 750 C235.179 750 207.722 736.235 199.571 725.319 L137.41 642.067 C123.518 623.462 135.28 600 158.5 600 L186.978 600 C195.972 600 222.043 610.193 228.651 616.294 L268.652 653.217 C275.522 659.559 276.246 661.747 284.535 657.422 L284.535 657.422 Z M85 380.5 C89.2799 379.163 93.5803 379.884 95.1107 384.099 C123.656 462.716 195.075 515 276 515 C326 515 360 479 360 385 C360 276 300 245 211 245 C108 245 40 185 40 96 C40 33 88 -9 211 -9 C285.1 -9 339.237 20.4694 358.581 117.409 C358.72 118.107 360 118.211 360 117.5 L360 110 C360 14.6 364.86 1.82 478.098 0.218 C501.886 -0.118536 520 18.7094 520 42.5 L520 63.5 C520 74.7284 508.676 84.7581 497.464 85.3626 C476.229 86.5077 475 91.1892 475 110 L475 336 C475 475 395 529 276 529 C187.275 529 109.007 473.864 79.1969 389.543 C77.6061 385.044 80.4448 381.924 85 380.5 L85 380.5 Z M360 281.902 L360 171 C352 41 296 3 216 3 C172 3 155 42 155 101 C155 181 182 234 222 234 C278.1 234 322.289 246.932 347.267 285.71 C350.089 290.09 360 287.112 360 281.902 L360 281.902 Z " />
<glyph glyph-name="atilde" unicode="&#xe3;" horiz-adv-x="550" d="M196.756 620.734 C199.033 650.149 206.333 669 217 669 C251 669 290 591 343 591 C341 591 335 681 335 681 C335 681 338.969 636.351 338.993 636.077 L340.388 620.384 C342.438 597.327 350.663 587.812 372.036 596.703 C406.743 611.141 430.823 652.108 438.432 709.454 C441.923 735.768 425.044 750 398.5 750 L376.5 750 C366.058 750 356.05 739.677 355.244 729.266 C353.394 705.366 348.228 688.44 340.634 682.934 C334.802 678.704 339.811 675.907 334.865 681.144 C331.362 684.851 260.675 759 209 759 C209.826 759 211.335 743.987 212.962 726.363 C212.963 726.35 213.023 725.99 213.022 726.002 L212 737.5 C210.563 753.663 204.441 761.56 188.85 757.064 C149.915 745.838 122.741 703.14 114.568 641.546 C111.113 615.503 127.731 600.813 154 600.5 L175.501 600.244 C185.952 600.12 195.949 610.314 196.756 620.734 L196.756 620.734 Z M86 381.5 C90.2799 380.163 94.5803 380.884 96.1107 385.099 C124.656 463.716 196.075 516 277 516 C327 516 361 480 361 386 C361 277 301 246 212 246 C109 246 41 186 41 97 C41 34 89 -8 212 -8 C286.1 -8 340.237 21.4694 359.581 118.409 C359.72 119.107 361 119.211 361 118.5 L361 111 C361 15.6 365.86 2.82 479.098 1.218 C502.886 0.881464 521 19.7094 521 43.5 L521 64.5 C521 75.7284 509.676 85.7581 498.464 86.3626 C477.229 87.5077 476 92.1892 476 111 L476 337 C476 476 396 530 277 530 C188.275 530 110.007 474.864 80.1969 390.543 C78.6061 386.044 81.4448 382.924 86 381.5 L86 381.5 Z M361 282.902 L361 172 C353 42 297 4 217 4 C173 4 156 43 156 102 C156 182 183 235 223 235 C279.1 235 323.289 247.932 348.267 286.71 C351.089 291.09 361 288.112 361 282.902 L361 282.902 Z " />
<glyph glyph-name="adieresis" unicode="&#xe4;" horiz-adv-x="550" d="M385.44 600 L387.56 600 C421.473 600 449 627.527 449 661.44 L449 663.56 C449 697.473 421.473 725 387.56 725 L385.44 725 C351.527 725 324 697.473 324 663.56 L324 661.44 C324 627.527 351.527 600 385.44 600 L385.44 600 Z M165.44 600 L167.56 600 C201.473 600 229 627.527 229 661.44 L229 663.56 C229 697.473 201.473 725 167.56 725 L165.44 725 C131.527 725 104 697.473 104 663.56 L104 661.44 C104 627.527 131.527 600 165.44 600 L165.44 600 Z M85 380.5 C89.2799 379.163 93.5803 379.884 95.1107 384.099 C123.656 462.716 195.075 515 276 515 C326 515 360 479 360 385 C360 276 300 245 211 245 C108 245 40 185 40 96 C40 33 88 -9 211 -9 C285.1 -9 339.237 20.4694 358.581 117.409 C358.72 118.107 360 118.211 360 117.5 L360 110 C360 14.6 364.86 1.82 478.098 0.218 C501.886 -0.118536 520 18.7094 520 42.5 L520 63.5 C520 74.7284 508.676 84.7581 497.464 85.3626 C476.229 86.5077 475 91.1892 475 110 L475 336 C475 475 395 529 276 529 C187.275 529 109.007 473.864 79.1969 389.543 C77.6061 385.044 80.4448 381.924 85 380.5 L85 380.5 Z M360 281.902 L360 171 C352 41 296 3 216 3 C172 3 155 42 155 101 C155 181 182 234 222 234 C278.1 234 322.289 246.932 347.267 285.71 C350.089 290.09 360 287.112 360 281.902 L360 281.902 Z " />
<glyph glyph-name="aring" unicode="&#xe5;" horiz-adv-x="550" d="M248 685 C248 705 258 716 276 716 C294 716 305 705 305 685 C305 664 295 653 276 653 C258 653 248 664 248 685 L248 685 Z M191 685 C191 629 220 600 276 600 C333 600 362 629 362 685 C362 738 330 769 276 769 C222 769 191 738 191 685 L191 685 Z M85 380.5 C89.2799 379.163 93.5803 379.884 95.1107 384.099 C123.656 462.716 195.075 515 276 515 C326 515 360 479 360 385 C360 276 300 245 211 245 C108 245 40 185 40 96 C40 33 88 -9 211 -9 C285.1 -9 339.237 20.4694 358.581 117.409 C358.72 118.107 360 118.211 360 117.5 L360 110 C360 14.6 364.86 1.82 478.098 0.218 C501.886 -0.118536 520 18.7094 520 42.5 L520 63.5 C520 74.7284 508.676 84.7581 497.464 85.3626 C476.229 86.5077 475 91.1892 475 110 L475 336 C475 475 395 529 276 529 C187.275 529 109.007 473.864 79.1969 389.543 C77.6061 385.044 80.4448 381.924 85 380.5 L85 380.5 Z M360 281.902 L360 171 C352 41 296 3 216 3 C172 3 155 42 155 101 C155 181 182 234 222 234 C278.1 234 322.289 246.932 347.267 285.71 C350.089 290.09 360 287.112 360 281.902 L360 281.902 Z " />
<glyph glyph-name="ccedilla" unicode="&#xe7;" horiz-adv-x="532" d="M227.5 -105 C228.555 -105.422 231.007 -104.056 231.693 -103.15 C237.136 -95.9506 249.778 -92 264 -92 C285 -92 299 -112 299 -143 C299 -174 284 -195 261 -195 C240.76 -195 227.291 -184.843 226.823 -169.98 C226.78 -168.612 224.968 -168.032 224 -169 C222.895 -170.105 220.798 -173.938 220.666 -175.495 C216.859 -220.531 233.775 -250 264 -250 C324 -250 364 -207 364 -143 C364 -108 324 -84 265 -84 C253.733 -84 243.969 -87.7556 237.66 -93.9647 C237.273 -94.3452 236.904 -92.9697 237.136 -92.4793 L274.343 -13.7382 C276.198 -9.81394 282.64 -6.54124 286.96 -6.95274 C301.291 -8.31758 316.304 -9 332 -9 C402.2 -9 468.598 45.1856 500.606 126.678 C502.449 131.369 499.508 134.746 495 137 C490.702 139.149 486.444 139.377 484.69 134.903 C453.899 56.3337 393.425 5 332 5 C238 5 176 84 176 260 C176 437 238 516 332 516 C388.55 516 440.347 457.061 484.61 368.843 C485.761 366.55 489.929 362.908 492.25 364 L496.5 366 L500.25 368 C502.342 369.116 501.531 374.953 500.456 377.066 C454.144 468.16 398.325 529 333 529 C164 529 52 446 52 260 C52 121.45 114.135 39.9775 216.296 7.59888 C240.269 0.000977657 260.655 -31.9614 249.5 -54.5 L226.194 -101.587 C225.537 -102.915 226.124 -104.45 227.5 -105 L227.5 -105 Z " />
<glyph glyph-name="egrave" unicode="&#xe8;" horiz-adv-x="538" d="M268.25 600 L287.5 600 C314.823 600 331.612 623.739 322.51 649.501 L301.477 709.029 C293.942 730.352 266.161 750 243.546 750 L212 750 C177.343 750 159.066 716.226 178.021 687.213 L216.814 627.835 C225.218 614.973 252.885 600 268.25 600 L268.25 600 Z M490.233 133.976 C465.737 56.3337 382.35 5 279 5 C225.625 5 186.797 63.1875 176.584 190.951 C173.666 227.45 199.556 250 236.171 250 L461.56 250 C499.258 250 524.037 272.473 519.83 309.936 C504.859 443.25 435.625 529 286 529 C144 529 49 446 49 260 C49 74 141 -9 278 -9 C390.125 -9 479.435 45.1856 505.148 126.678 C506.569 131.182 503.78 134.503 499.5 136.5 C495.56 138.339 491.541 138.122 490.233 133.976 L490.233 133.976 Z M345.752 262 L235.44 262 C199.1 262 173.464 287.199 176.064 323.445 C185.594 456.281 227.375 516 286 516 C359.1 516 394.63 443.028 404.872 327.175 C408.122 290.418 382.651 262 345.752 262 L345.752 262 Z " />
<glyph glyph-name="eacute" unicode="&#xe9;" horiz-adv-x="538" d="M287.5 600 L306.564 600 C322.062 600 349.741 615.063 358.156 628.077 L396.274 687.021 C415.15 716.212 396.763 750 362 750 L330.728 750 C307.923 750 280.147 730.231 272.677 708.684 L252.196 649.604 C243.228 623.734 260.12 600 287.5 600 L287.5 600 Z M490.233 133.976 C465.737 56.3337 382.35 5 279 5 C225.625 5 186.797 63.1875 176.584 190.951 C173.666 227.45 199.556 250 236.171 250 L461.56 250 C499.258 250 524.037 272.473 519.83 309.936 C504.859 443.25 435.625 529 286 529 C144 529 49 446 49 260 C49 74 141 -9 278 -9 C390.125 -9 479.435 45.1856 505.148 126.678 C506.569 131.182 503.78 134.503 499.5 136.5 C495.56 138.339 491.541 138.122 490.233 133.976 L490.233 133.976 Z M345.752 262 L235.44 262 C199.1 262 173.464 287.199 176.064 323.445 C185.594 456.281 227.375 516 286 516 C359.1 516 394.63 443.028 404.872 327.175 C408.122 290.418 382.651 262 345.752 262 L345.752 262 Z " />
<glyph glyph-name="ecircumflex" unicode="&#xea;" horiz-adv-x="538" d="M295.535 657.422 C317.547 645.938 352 600 352 600 C352 600 348.807 600 382.72 600 L404.5 600 C427.72 600 439.482 623.462 425.59 642.067 L363.429 725.319 C355.278 736.235 327.821 750 314.198 750 L259.802 750 C246.179 750 218.722 736.235 210.571 725.319 L148.41 642.067 C134.518 623.462 146.28 600 169.5 600 L197.978 600 C206.972 600 233.043 610.193 239.651 616.294 L279.652 653.217 C286.522 659.559 287.246 661.747 295.535 657.422 L295.535 657.422 Z M490.233 133.976 C465.737 56.3337 382.35 5 279 5 C225.625 5 186.797 63.1875 176.584 190.951 C173.666 227.45 199.556 250 236.171 250 L461.56 250 C499.258 250 524.037 272.473 519.83 309.936 C504.859 443.25 435.625 529 286 529 C144 529 49 446 49 260 C49 74 141 -9 278 -9 C390.125 -9 479.435 45.1856 505.148 126.678 C506.569 131.182 503.78 134.503 499.5 136.5 C495.56 138.339 491.541 138.122 490.233 133.976 L490.233 133.976 Z M345.752 262 L235.44 262 C199.1 262 173.464 287.199 176.064 323.445 C185.594 456.281 227.375 516 286 516 C359.1 516 394.63 443.028 404.872 327.175 C408.122 290.418 382.651 262 345.752 262 L345.752 262 Z " />
<glyph glyph-name="edieresis" unicode="&#xeb;" horiz-adv-x="538" d="M366.44 600 L368.56 600 C402.473 600 430 627.527 430 661.44 L430 663.56 C430 697.473 402.473 725 368.56 725 L366.44 725 C332.527 725 305 697.473 305 663.56 L305 661.44 C305 627.527 332.527 600 366.44 600 L366.44 600 Z M205.44 600 L207.56 600 C241.473 600 269 627.527 269 661.44 L269 663.56 C269 697.473 241.473 725 207.56 725 L205.44 725 C171.527 725 144 697.473 144 663.56 L144 661.44 C144 627.527 171.527 600 205.44 600 L205.44 600 Z M490.233 133.976 C465.737 56.3337 382.35 5 279 5 C225.625 5 186.797 63.1875 176.584 190.951 C173.666 227.45 199.556 250 236.171 250 L461.56 250 C499.258 250 524.037 272.473 519.83 309.936 C504.859 443.25 435.625 529 286 529 C144 529 49 446 49 260 C49 74 141 -9 278 -9 C390.125 -9 479.435 45.1856 505.148 126.678 C506.569 131.182 503.78 134.503 499.5 136.5 C495.56 138.339 491.541 138.122 490.233 133.976 L490.233 133.976 Z M345.752 262 L235.44 262 C199.1 262 173.464 287.199 176.064 323.445 C185.594 456.281 227.375 516 286 516 C359.1 516 394.63 443.028 404.872 327.175 C408.122 290.418 382.651 262 345.752 262 L345.752 262 Z " />
<glyph glyph-name="igrave" unicode="&#xec;" horiz-adv-x="295" d="M148.25 600 L167.5 600 C194.823 600 211.612 623.739 202.51 649.501 L181.477 709.029 C173.942 730.352 146.161 750 123.546 750 L92 750 C57.3432 750 39.0657 716.226 58.0211 687.213 L96.8142 627.835 C105.218 614.973 132.885 600 148.25 600 L148.25 600 Z M167.5 0 C199.238 0 225 25.7617 225 57.5 L225 462.5 C225 494.238 199.238 520 167.5 520 C135.762 520 110 494.238 110 462.5 L110 57.5 C110 25.7617 135.762 0 167.5 0 L167.5 0 Z " />
<glyph glyph-name="iacute" unicode="&#xed;" horiz-adv-x="295" d="M167.5 600 L186.564 600 C202.062 600 229.741 615.063 238.156 628.077 L276.274 687.021 C295.15 716.212 276.763 750 242 750 L210.728 750 C187.923 750 160.147 730.231 152.677 708.684 L132.196 649.604 C123.228 623.734 140.12 600 167.5 600 L167.5 600 Z M167.5 0 C199.238 0 225 25.7617 225 57.5 L225 462.5 C225 494.238 199.238 520 167.5 520 C135.762 520 110 494.238 110 462.5 L110 57.5 C110 25.7617 135.762 0 167.5 0 L167.5 0 Z " />
<glyph glyph-name="icircumflex" unicode="&#xee;" horiz-adv-x="295" d="M175.535 657.422 C197.547 645.938 232 600 232 600 C232 600 228.807 600 262.72 600 L284.5 600 C307.72 600 319.482 623.462 305.59 642.067 L243.429 725.319 C235.278 736.235 207.821 750 194.198 750 L139.802 750 C126.179 750 98.7221 736.235 90.5714 725.319 L28.4102 642.067 C14.518 623.462 26.2802 600 49.5 600 L77.978 600 C86.9716 600 113.043 610.193 119.651 616.294 L159.652 653.217 C166.522 659.559 167.246 661.747 175.535 657.422 L175.535 657.422 Z M167.5 0 C199.238 0 225 25.7617 225 57.5 L225 462.5 C225 494.238 199.238 520 167.5 520 C135.762 520 110 494.238 110 462.5 L110 57.5 C110 25.7617 135.762 0 167.5 0 L167.5 0 Z " />
<glyph glyph-name="idieresis" unicode="&#xef;" horiz-adv-x="295" d="M276.44 600 L278.56 600 C312.473 600 340 627.527 340 661.44 L340 663.56 C340 697.473 312.473 725 278.56 725 L276.44 725 C242.527 725 215 697.473 215 663.56 L215 661.44 C215 627.527 242.527 600 276.44 600 L276.44 600 Z M56.44 600 L58.56 600 C92.473 600 120 627.527 120 661.44 L120 663.56 C120 697.473 92.473 725 58.56 725 L56.44 725 C22.527 725 -5 697.473 -5 663.56 L-5 661.44 C-5 627.527 22.527 600 56.44 600 L56.44 600 Z M167.5 0 C199.238 0 225 25.7617 225 57.5 L225 462.5 C225 494.238 199.238 520 167.5 520 C135.762 520 110 494.238 110 462.5 L110 57.5 C110 25.7617 135.762 0 167.5 0 L167.5 0 Z " />
<glyph glyph-name="ntilde" unicode="&#xf1;" horiz-adv-x="550" d="M198.756 620.734 C201.033 650.149 208.333 669 219 669 C253 669 292 591 345 591 C343 591 337 681 337 681 C337 681 340.969 636.351 340.993 636.077 L342.388 620.384 C344.438 597.327 352.663 587.812 374.036 596.703 C408.743 611.141 432.823 652.108 440.432 709.454 C443.923 735.768 427.044 750 400.5 750 L378.5 750 C368.058 750 358.05 739.677 357.244 729.266 C355.394 705.366 350.228 688.44 342.634 682.934 C336.802 678.704 341.811 675.907 336.865 681.144 C333.362 684.851 262.675 759 211 759 C211.826 759 213.335 743.987 214.962 726.363 C214.963 726.35 215.023 725.99 215.022 726.002 L214 737.5 C212.563 753.663 206.441 761.56 190.85 757.064 C151.915 745.838 124.741 703.14 116.568 641.546 C113.113 615.503 129.731 600.813 156 600.5 L177.501 600.244 C187.952 600.12 197.949 610.314 198.756 620.734 L198.756 620.734 Z M486 58.5022 L486 316 C486 455 431 526 348 526 C279.525 526 226.704 487.885 199.645 424.57 C197.646 419.89 186 421.414 186 426.503 L186 462.5 C186 494.238 160.238 520 128.5 520 C96.7617 520 71 494.238 71 462.5 L71 57.5 C71 25.7617 96.7617 0 128.5 0 C160.238 0 186 25.7617 186 57.5 L186 320 C186 433 248 509 342 509 C359 509 371 443 371 315 L371 57.5022 C371 25.7639 396.763 0.224025 428.5 0.5 C460.237 0.775975 486 26.7639 486 58.5022 L486 58.5022 Z " />
<glyph glyph-name="ograve" unicode="&#xf2;" horiz-adv-x="590" d="M276.25 600 L295.5 600 C322.823 600 339.612 623.739 330.51 649.501 L309.477 709.029 C301.942 730.352 274.161 750 251.546 750 L220 750 C185.343 750 167.066 716.226 186.021 687.213 L224.814 627.835 C233.218 614.973 260.885 600 276.25 600 L276.25 600 Z M175 260 C175 437 223 516 295 516 C378 516 415 414 415 260 C415 83 367 4 295 4 C212 4 175 106 175 260 L175 260 Z M50 260 C50 99 126 -9 295 -9 C442 -9 540 74 540 260 C540 421 464 529 295 529 C148 529 50 446 50 260 L50 260 Z " />
<glyph glyph-name="oacute" unicode="&#xf3;" horiz-adv-x="590" d="M295.5 600 L314.564 600 C330.062 600 357.741 615.063 366.156 628.077 L404.274 687.021 C423.15 716.212 404.763 750 370 750 L338.728 750 C315.923 750 288.147 730.231 280.677 708.684 L260.196 649.604 C251.228 623.734 268.12 600 295.5 600 L295.5 600 Z M175 260 C175 437 223 516 295 516 C378 516 415 414 415 260 C415 83 367 4 295 4 C212 4 175 106 175 260 L175 260 Z M50 260 C50 99 126 -9 295 -9 C442 -9 540 74 540 260 C540 421 464 529 295 529 C148 529 50 446 50 260 L50 260 Z " />
<glyph glyph-name="ocircumflex" unicode="&#xf4;" horiz-adv-x="590" d="M303.535 657.422 C325.547 645.938 360 600 360 600 C360 600 356.807 600 390.72 600 L412.5 600 C435.72 600 447.482 623.462 433.59 642.067 L371.429 725.319 C363.278 736.235 335.821 750 322.198 750 L267.802 750 C254.179 750 226.722 736.235 218.571 725.319 L156.41 642.067 C142.518 623.462 154.28 600 177.5 600 L205.978 600 C214.972 600 241.043 610.193 247.651 616.294 L287.652 653.217 C294.522 659.559 295.246 661.747 303.535 657.422 L303.535 657.422 Z M175 260 C175 437 223 516 295 516 C378 516 415 414 415 260 C415 83 367 4 295 4 C212 4 175 106 175 260 L175 260 Z M50 260 C50 99 126 -9 295 -9 C442 -9 540 74 540 260 C540 421 464 529 295 529 C148 529 50 446 50 260 L50 260 Z " />
<glyph glyph-name="otilde" unicode="&#xf5;" horiz-adv-x="590" d="M215.756 620.734 C218.033 650.149 225.333 669 236 669 C270 669 309 591 362 591 C360 591 354 681 354 681 C354 681 357.969 636.351 357.993 636.077 L359.388 620.384 C361.438 597.327 369.663 587.812 391.036 596.703 C425.743 611.141 449.823 652.108 457.432 709.454 C460.923 735.768 444.044 750 417.5 750 L395.5 750 C385.058 750 375.05 739.677 374.244 729.266 C372.394 705.366 367.228 688.44 359.634 682.934 C353.802 678.704 358.811 675.907 353.865 681.144 C350.362 684.851 279.675 759 228 759 C228.826 759 230.335 743.987 231.962 726.363 C231.963 726.35 232.023 725.99 232.022 726.002 L231 737.5 C229.563 753.663 223.441 761.56 207.85 757.064 C168.915 745.838 141.741 703.14 133.568 641.546 C130.113 615.503 146.731 600.813 173 600.5 L194.501 600.244 C204.952 600.12 214.949 610.314 215.756 620.734 L215.756 620.734 Z M176 261 C176 438 224 517 296 517 C379 517 416 415 416 261 C416 84 368 5 296 5 C213 5 176 107 176 261 L176 261 Z M51 261 C51 100 127 -8 296 -8 C443 -8 541 75 541 261 C541 422 465 530 296 530 C149 530 51 447 51 261 L51 261 Z " />
<glyph glyph-name="odieresis" unicode="&#xf6;" horiz-adv-x="590" d="M374.44 600 L376.56 600 C410.473 600 438 627.527 438 661.44 L438 663.56 C438 697.473 410.473 725 376.56 725 L374.44 725 C340.527 725 313 697.473 313 663.56 L313 661.44 C313 627.527 340.527 600 374.44 600 L374.44 600 Z M213.44 600 L215.56 600 C249.473 600 277 627.527 277 661.44 L277 663.56 C277 697.473 249.473 725 215.56 725 L213.44 725 C179.527 725 152 697.473 152 663.56 L152 661.44 C152 627.527 179.527 600 213.44 600 L213.44 600 Z M175 260 C175 437 223 516 295 516 C378 516 415 414 415 260 C415 83 367 4 295 4 C212 4 175 106 175 260 L175 260 Z M50 260 C50 99 126 -9 295 -9 C442 -9 540 74 540 260 C540 421 464 529 295 529 C148 529 50 446 50 260 L50 260 Z " />
<glyph glyph-name="oslash" unicode="&#xf8;" horiz-adv-x="590" d="M50 260 C50 193.175 62.9319 135.198 90.4802 90.5615 C97.6976 78.8671 98.9245 50.5249 90.1987 39.9084 L65.8741 10.3135 C59.1051 2.07786 64.3395 -9 75 -9 C85.7307 -9 108.971 2.09623 115.718 10.4408 L122.532 18.8689 C129.942 28.0339 149.485 29.3878 159.675 23.4658 C195.629 2.57062 240.55 -9 295 -9 C442 -9 540 74 540 260 C540 326.825 527.068 384.802 499.52 429.438 C492.302 441.133 491.075 469.475 499.801 480.092 L524.126 509.686 C530.895 517.922 525.66 529 515 529 C504.269 529 481.029 517.904 474.282 509.559 L467.468 501.131 C460.058 491.966 440.515 490.612 430.325 496.534 C394.371 517.429 349.45 529 295 529 C148 529 50 446 50 260 L50 260 Z M376.209 389.664 L192.273 165.519 C187.975 160.281 180.448 163.434 179.645 170.162 C176.361 197.692 175 227.825 175 260 C175 437 223 516 295 516 C336.25 516 365.929 490.477 385.723 446.168 C393.371 429.047 388.104 404.159 376.209 389.664 L376.209 389.664 Z M410.355 350.838 C413.639 323.308 415 293.175 415 261 C415 84 367 5 295 5 C253.75 5 224.071 30.1831 204.277 74.3727 C196.623 91.4618 201.846 115.821 213.697 130.318 L397.75 355.462 C402.032 360.699 409.554 357.554 410.355 350.838 L410.355 350.838 Z " />
<glyph glyph-name="ugrave" unicode="&#xf9;" horiz-adv-x="550" d="M253.436 600 L272.5 600 C299.88 600 316.772 623.734 307.804 649.604 L287.323 708.684 C279.853 730.231 252.077 750 229.272 750 L198 750 C163.237 750 144.85 716.212 163.726 687.021 L201.844 628.077 C210.259 615.063 237.938 600 253.436 600 L253.436 600 Z M480 57.5 L480 462.5 C480 494.238 454.238 520 422.5 520 C390.762 520 365 494.238 365 462.5 L365 148 C365 63 312 7 232 7 C191 7 180 73 180 200 L180 462.5 C180 494.238 154.238 520 122.5 520 C90.7617 520 65 494.238 65 462.5 L65 200 C65 62 101 -9 227 -9 C285.575 -9 330.538 20.2669 353.465 68.6933 C355.288 72.5437 365 71.3315 365 67.0715 L365 51 C365 22.8495 387.85 0 416 0 L422.5 0 C454.238 0 480 25.7617 480 57.5 L480 57.5 Z " />
<glyph glyph-name="uacute" unicode="&#xfa;" horiz-adv-x="550" d="M272.5 600 L291.75 600 C307.115 600 334.782 614.973 343.186 627.835 L381.979 687.213 C400.934 716.226 382.657 750 348 750 L316.454 750 C293.839 750 266.058 730.352 258.523 709.029 L237.49 649.501 C228.388 623.739 245.177 600 272.5 600 L272.5 600 Z M480 57.5 L480 462.5 C480 494.238 454.238 520 422.5 520 C390.762 520 365 494.238 365 462.5 L365 148 C365 63 312 7 232 7 C191 7 180 73 180 200 L180 462.5 C180 494.238 154.238 520 122.5 520 C90.7617 520 65 494.238 65 462.5 L65 200 C65 62 101 -9 227 -9 C285.575 -9 330.538 20.2669 353.465 68.6933 C355.288 72.5437 365 71.3315 365 67.0715 L365 51 C365 22.8495 387.85 0 416 0 L422.5 0 C454.238 0 480 25.7617 480 57.5 L480 57.5 Z " />
<glyph glyph-name="ucircumflex" unicode="&#xfb;" horiz-adv-x="550" d="M281.535 657.422 C303.547 645.938 338 600 338 600 C338 600 334.807 600 368.72 600 L390.5 600 C413.72 600 425.482 623.462 411.59 642.067 L349.429 725.319 C341.278 736.235 313.821 750 300.198 750 L245.802 750 C232.179 750 204.722 736.235 196.571 725.319 L134.41 642.067 C120.518 623.462 132.28 600 155.5 600 L183.978 600 C192.972 600 219.043 610.193 225.651 616.294 L265.652 653.217 C272.522 659.559 273.246 661.747 281.535 657.422 L281.535 657.422 Z M480 57.5 L480 462.5 C480 494.238 454.238 520 422.5 520 C390.762 520 365 494.238 365 462.5 L365 148 C365 63 312 7 232 7 C191 7 180 73 180 200 L180 462.5 C180 494.238 154.238 520 122.5 520 C90.7617 520 65 494.238 65 462.5 L65 200 C65 62 101 -9 227 -9 C285.575 -9 330.538 20.2669 353.465 68.6933 C355.288 72.5437 365 71.3315 365 67.0715 L365 51 C365 22.8495 387.85 0 416 0 L422.5 0 C454.238 0 480 25.7617 480 57.5 L480 57.5 Z " />
<glyph glyph-name="udieresis" unicode="&#xfc;" horiz-adv-x="550" d="M351.44 600 L353.56 600 C387.473 600 415 627.527 415 661.44 L415 663.56 C415 697.473 387.473 725 353.56 725 L351.44 725 C317.527 725 290 697.473 290 663.56 L290 661.44 C290 627.527 317.527 600 351.44 600 L351.44 600 Z M191.44 600 L193.56 600 C227.473 600 255 627.527 255 661.44 L255 663.56 C255 697.473 227.473 725 193.56 725 L191.44 725 C157.527 725 130 697.473 130 663.56 L130 661.44 C130 627.527 157.527 600 191.44 600 L191.44 600 Z M480 57.5 L480 462.5 C480 494.238 454.238 520 422.5 520 C390.762 520 365 494.238 365 462.5 L365 148 C365 63 312 7 232 7 C191 7 180 73 180 200 L180 462.5 C180 494.238 154.238 520 122.5 520 C90.7617 520 65 494.238 65 462.5 L65 200 C65 62 101 -9 227 -9 C285.575 -9 330.538 20.2669 353.465 68.6933 C355.288 72.5437 365 71.3315 365 67.0715 L365 51 C365 22.8495 387.85 0 416 0 L422.5 0 C454.238 0 480 25.7617 480 57.5 L480 57.5 Z " />
<glyph glyph-name="yacute" unicode="&#xfd;" horiz-adv-x="462" d="M231.5 600 L250.564 600 C266.062 600 293.741 615.063 302.156 628.077 L340.274 687.021 C359.15 716.212 340.763 750 306 750 L274.728 750 C251.923 750 224.147 730.231 216.677 708.684 L196.196 649.604 C187.228 623.734 204.12 600 231.5 600 L231.5 600 Z M244 -76 L302.5 93 L448.696 510.562 C450.417 515.479 447.21 520 442 520 C436.799 520 430.392 515.478 428.65 510.578 L416 475 L348.095 277.358 C328.614 220.658 253.945 219.411 232.582 275.43 L158 471 L149 495 L144 507.5 C141.438 513.906 132.437 520 125.537 520 L74 520 C40.6043 520 20.5514 490.582 32.7576 459.497 L231.11 -45.6413 C232.133 -48.2453 232.385 -57.846 231.5 -60.5 L229 -68 C197 -159 167 -185 94 -185 L51.5 -185 C47.3602 -185 44 -188.36 44 -192.5 C44 -196.64 47.3602 -200 51.5 -200 L94 -200 C176 -200 209 -171 243 -74 L244 -76 Z " />
<glyph glyph-name="thorn" unicode="&#xfe;" horiz-adv-x="599" d="M128 750 L99 750 C82.9929 750 70 737.007 70 721 L70 -192.5 C70 -224.238 95.7617 -250 127.5 -250 C159.238 -250 185 -224.238 185 -192.5 L185 106.61 C185 112.273 198.126 115.847 200.052 110.522 C229.866 28.115 287.925 -10 363 -10 C475 -10 549 98 549 259 C549 420 475 528 363 528 C287.925 528 229.866 489.885 200.052 407.478 C198.126 402.153 185 405.727 185 411.39 L185 719.482 C185 735.214 172.221 748.448 156.5 749 L128 750 L128 750 Z M185 258 C185 434 254 513 357 513 C397 513 424 411 424 258 C424 115 395 19 351 19 C251 19 185 93 185 258 L185 258 Z " />
<glyph glyph-name="ydieresis" unicode="&#xff;" horiz-adv-x="462" d="M310.44 600 L312.56 600 C346.473 600 374 627.527 374 661.44 L374 663.56 C374 697.473 346.473 725 312.56 725 L310.44 725 C276.527 725 249 697.473 249 663.56 L249 661.44 C249 627.527 276.527 600 310.44 600 L310.44 600 Z M149.44 600 L151.56 600 C185.473 600 213 627.527 213 661.44 L213 663.56 C213 697.473 185.473 725 151.56 725 L149.44 725 C115.527 725 88 697.473 88 663.56 L88 661.44 C88 627.527 115.527 600 149.44 600 L149.44 600 Z M244 -76 L302.5 93 L448.696 510.562 C450.417 515.479 447.21 520 442 520 C436.799 520 430.392 515.478 428.65 510.578 L416 475 L348.095 277.358 C328.614 220.658 253.945 219.411 232.582 275.43 L158 471 L149 495 L144 507.5 C141.438 513.906 132.437 520 125.537 520 L74 520 C40.6043 520 20.5514 490.582 32.7576 459.497 L231.11 -45.6413 C232.133 -48.2453 232.385 -57.846 231.5 -60.5 L229 -68 C197 -159 167 -185 94 -185 L51.5 -185 C47.3602 -185 44 -188.36 44 -192.5 C44 -196.64 47.3602 -200 51.5 -200 L94 -200 C176 -200 209 -171 243 -74 L244 -76 Z " />
<glyph glyph-name="Amacron" unicode="&#x100;" horiz-adv-x="754" d="M294 830 L494 830 C516.079 830 534 847.921 534 870 C534 892.079 516.079 910 494 910 L294 910 C271.921 910 254 892.079 254 870 C254 847.921 271.921 830 294 830 L294 830 Z M513 251.5 C512.932 251.722 512.87 253.04 512.952 252.823 C538.349 185.501 564.625 117.275 589 50 L594 38 L601 19.5 C604.614 9.94938 617.569 1 627.78 1 L739.78 1 C742.55 1 745.763 -1.49803 744.954 1.15124 C744.556 2.45408 741.571 12.0714 736 26 L727 48 L476.02 711.303 C468.266 731.797 440.468 751 418.556 751 L344.472 751 C332.881 751 318.126 740.832 314 730 L306 709 C304 705 72 89 48 26 C42 11 39 1 39 1 C39 1 42.0763 1 44.2202 1 L50.9861 1 C55.6637 1 61.5695 5.45677 63.1357 9.86431 C68.1172 23.8828 73.2174 37.7826 79 51 L137.019 205.983 C144.771 226.691 172.618 245.943 194.729 245.882 L508.199 245.019 C511.784 245.009 514.054 248.074 513 251.5 L513 251.5 Z M188.211 344.053 L276.324 578.523 C297.246 634.196 370.572 634.128 391.39 578.416 L479.005 343.946 C495.031 301.059 467.236 261 421.452 261 L245.724 261 C199.881 261 172.085 301.14 188.211 344.053 L188.211 344.053 Z " />
<glyph glyph-name="amacron" unicode="&#x101;" horiz-adv-x="550" d="M176 600 L376 600 C398.079 600 416 617.921 416 640 C416 662.079 398.079 680 376 680 L176 680 C153.921 680 136 662.079 136 640 C136 617.921 153.921 600 176 600 L176 600 Z M85 380.5 C89.2799 379.163 93.5803 379.884 95.1107 384.099 C123.656 462.716 195.075 515 276 515 C326 515 360 479 360 385 C360 276 300 245 211 245 C108 245 40 185 40 96 C40 33 88 -9 211 -9 C285.1 -9 339.237 20.4694 358.581 117.409 C358.72 118.107 360 118.211 360 117.5 L360 110 C360 14.6 364.86 1.82 478.098 0.218 C501.886 -0.118536 520 18.7094 520 42.5 L520 63.5 C520 74.7284 508.676 84.7581 497.464 85.3626 C476.229 86.5077 475 91.1892 475 110 L475 336 C475 475 395 529 276 529 C187.275 529 109.007 473.864 79.1969 389.543 C77.6061 385.044 80.4448 381.924 85 380.5 L85 380.5 Z M360 281.902 L360 171 C352 41 296 3 216 3 C172 3 155 42 155 101 C155 181 182 234 222 234 C278.1 234 322.289 246.932 347.267 285.71 C350.089 290.09 360 287.112 360 281.902 L360 281.902 Z " />
<glyph glyph-name="Abreve" unicode="&#x102;" horiz-adv-x="754" d="M248.357 922.583 C264.949 860.476 318.925 821 394 821 C469.075 821 523.051 860.476 539.643 922.583 C547.26 951.097 532.014 965 502.5 965 L479 965 C471.167 965 459.658 953.805 457.676 946.228 C450.471 918.696 427 901 394 901 C361 901 337.529 918.696 330.324 946.228 C328.342 953.805 316.833 965 309 965 L285.5 965 C255.986 965 240.74 951.097 248.357 922.583 L248.357 922.583 Z M513 251.5 C512.932 251.722 512.87 253.04 512.952 252.823 C538.349 185.501 564.625 117.275 589 50 L594 38 L601 19.5 C604.614 9.94938 617.569 1 627.78 1 L739.78 1 C742.55 1 745.763 -1.49803 744.954 1.15124 C744.556 2.45408 741.571 12.0714 736 26 L727 48 L476.02 711.303 C468.266 731.797 440.468 751 418.556 751 L344.472 751 C332.881 751 318.126 740.832 314 730 L306 709 C304 705 72 89 48 26 C42 11 39 1 39 1 C39 1 42.0763 1 44.2202 1 L50.9861 1 C55.6637 1 61.5695 5.45677 63.1357 9.86431 C68.1172 23.8828 73.2174 37.7826 79 51 L137.019 205.983 C144.771 226.691 172.618 245.943 194.729 245.882 L508.199 245.019 C511.784 245.009 514.054 248.074 513 251.5 L513 251.5 Z M188.211 344.053 L276.324 578.523 C297.246 634.196 370.572 634.128 391.39 578.416 L479.005 343.946 C495.031 301.059 467.236 261 421.452 261 L245.724 261 C199.881 261 172.085 301.14 188.211 344.053 L188.211 344.053 Z " />
<glyph glyph-name="abreve" unicode="&#x103;" horiz-adv-x="550" d="M130.357 692.583 C146.949 630.476 200.925 591 276 591 C351.075 591 405.051 630.476 421.643 692.583 C429.26 721.097 414.014 735 384.5 735 L361 735 C353.167 735 341.658 723.805 339.676 716.228 C332.471 688.696 309 671 276 671 C243 671 219.529 688.696 212.324 716.228 C210.342 723.805 198.833 735 191 735 L167.5 735 C137.986 735 122.74 721.097 130.357 692.583 L130.357 692.583 Z M85 380.5 C89.2799 379.163 93.5803 379.884 95.1107 384.099 C123.656 462.716 195.075 515 276 515 C326 515 360 479 360 385 C360 276 300 245 211 245 C108 245 40 185 40 96 C40 33 88 -9 211 -9 C285.1 -9 339.237 20.4694 358.581 117.409 C358.72 118.107 360 118.211 360 117.5 L360 110 C360 14.6 364.86 1.82 478.098 0.218 C501.886 -0.118536 520 18.7094 520 42.5 L520 63.5 C520 74.7284 508.676 84.7581 497.464 85.3626 C476.229 86.5077 475 91.1892 475 110 L475 336 C475 475 395 529 276 529 C187.275 529 109.007 473.864 79.1969 389.543 C77.6061 385.044 80.4448 381.924 85 380.5 L85 380.5 Z M360 281.902 L360 171 C352 41 296 3 216 3 C172 3 155 42 155 101 C155 181 182 234 222 234 C278.1 234 322.289 246.932 347.267 285.71 C350.089 290.09 360 287.112 360 281.902 L360 281.902 Z " />
<glyph glyph-name="Aogonek" unicode="&#x104;" horiz-adv-x="754" d="M513 251.5 C512.932 251.722 512.87 253.04 512.952 252.823 C538.349 185.501 564.625 117.275 589 50 L594 38 L601 19.5 C604.614 9.94938 617.569 1 627.78 1 L711.949 1 C718.455 1 720.717 -8.02132 715.47 -11.8689 C677.575 -39.6575 627 -84.75 627 -106 C627 -163 683 -201 766 -201 C794.462 -201 822.923 -189.299 840.284 -171.021 C841.701 -169.529 842.727 -165.545 842.5 -163.5 C842.305 -161.748 840.574 -160.671 839.36 -161.949 C822.845 -179.332 794.474 -191 767 -191 C721 -191 691 -153 691 -95 C691 -58.925 723.514 -15.1494 741.054 -1.66287 C742.905 -0.239424 745.636 -1.08218 744.954 1.15124 C744.556 2.45408 741.571 12.0714 736 26 L727 48 L476.02 711.303 C468.266 731.797 440.468 751 418.556 751 L344.472 751 C332.881 751 318.126 740.832 314 730 L306 709 C304 705 72 89 48 26 C42 11 39 1 39 1 C39 1 42.0763 1 44.2202 1 L50.9861 1 C55.6637 1 61.5695 5.45677 63.1357 9.86431 C68.1172 23.8828 73.2174 37.7826 79 51 L137.019 205.983 C144.771 226.691 172.618 245.943 194.729 245.882 L508.199 245.019 C511.784 245.009 514.054 248.074 513 251.5 L513 251.5 Z M188.211 344.053 L276.324 578.523 C297.246 634.196 370.572 634.128 391.39 578.416 L479.005 343.946 C495.031 301.059 467.236 261 421.452 261 L245.724 261 C199.881 261 172.085 301.14 188.211 344.053 L188.211 344.053 Z " />
<glyph glyph-name="aogonek" unicode="&#x105;" horiz-adv-x="550" d="M85 380.5 C89.2799 379.163 93.5803 379.884 95.1107 384.099 C123.656 462.716 195.075 515 276 515 C326 515 360 479 360 385 C360 276 300 245 211 245 C108 245 40 185 40 96 C40 33 88 -9 211 -9 C285.1 -9 339.237 20.4694 358.581 117.409 C358.72 118.107 360 118.211 360 117.5 L360 110 C360 11.2 365.415 0.845 489.418 0.0565 C496.19 0.013444 496.192 -9.23589 490.698 -13.194 C451.575 -41.38 401 -85.75 401 -107 C401 -164 457 -202 540 -202 C568.462 -202 596.923 -190.299 614.284 -172.021 C615.701 -170.529 616.727 -166.545 616.5 -164.5 C616.305 -162.748 614.574 -161.671 613.36 -162.949 C596.845 -180.332 568.474 -192 541 -192 C495 -192 465 -153 465 -95 C465 -61.75 494.094 -20.8438 512.086 -5.10742 C514.314 -3.15892 519 6.21907 519 9.17878 L519 63.5 C519 74.7284 507.676 84.7581 496.464 85.3626 C475.229 86.5077 474 91.1892 474 110 L474 336 C474 475 394 529 275 529 C186.275 529 108.482 473.864 78.6959 389.543 C77.1067 385.044 80.4459 381.923 85 380.5 L85 380.5 Z M359 281.902 L359 171 C351 41 295 3 215 3 C171 3 154 42 154 101 C154 181 181 234 221 234 C277.1 234 321.289 246.932 346.267 285.71 C349.089 290.09 359 287.112 359 281.902 L359 281.902 Z " />
<glyph glyph-name="Cacute" unicode="&#x106;" horiz-adv-x="695" d="M363.5 830 L382.75 830 C398.115 830 425.782 844.973 434.186 857.835 L472.979 917.213 C491.934 946.226 473.657 980 439 980 L407.454 980 C384.839 980 357.058 960.352 349.523 939.029 L328.49 879.501 C319.388 853.739 336.177 830 363.5 830 L363.5 830 Z M656.388 174.191 C608.3 73.5438 516.65 7 425 7 C283 7 189 176 189 375 C189 574 283 743 425 743 C503 743 594.309 676.456 655.364 575.809 C656.761 573.505 661.844 569.383 664 571 L668 574 L671.5 577 C673.446 578.668 671.609 585.768 670.28 587.959 C608.007 690.555 510.8 759 425 759 C201 759 52 582 52 375 C52 168 201 -9 425 -9 C524.45 -9 621.999 59.445 671.303 162.041 C673.602 166.825 671.644 172.684 667.5 176 C663.57 179.144 658.557 178.732 656.388 174.191 L656.388 174.191 Z " />
<glyph glyph-name="cacute" unicode="&#x107;" horiz-adv-x="532" d="M331.5 600 L350.564 600 C366.062 600 393.741 615.063 402.156 628.077 L440.274 687.021 C459.15 716.212 440.763 750 406 750 L374.728 750 C351.923 750 324.147 730.231 316.677 708.684 L296.196 649.604 C287.228 623.734 304.12 600 331.5 600 L331.5 600 Z M483.69 134.903 C452.899 56.3337 392.425 5 331 5 C237 5 175 84 175 260 C175 437 237 516 331 516 C387.55 516 439.347 457.061 483.61 368.843 C484.761 366.55 488.929 362.908 491.25 364 L495.5 366 L499.25 368 C501.342 369.116 500.531 374.953 499.456 377.066 C453.144 468.16 397.325 529 332 529 C163 529 51 446 51 260 C51 74 163 -9 332 -9 C402.2 -9 468.598 45.1856 500.606 126.678 C502.545 131.614 499.298 134.742 494.5 137 C489.924 139.153 485.536 139.611 483.69 134.903 L483.69 134.903 Z " />
<glyph glyph-name="Ccircumflex" unicode="&#x108;" horiz-adv-x="695" d="M372.535 887.422 C394.547 875.938 429 830 429 830 C429 830 425.807 830 459.72 830 L481.5 830 C504.72 830 516.482 853.462 502.59 872.067 L440.429 955.319 C432.278 966.235 404.821 980 391.198 980 L336.802 980 C323.179 980 295.722 966.235 287.571 955.319 L225.41 872.067 C211.518 853.462 223.28 830 246.5 830 L274.978 830 C283.972 830 310.043 840.193 316.651 846.294 L356.652 883.217 C363.522 889.559 364.246 891.747 372.535 887.422 L372.535 887.422 Z M656.388 174.191 C608.3 73.5438 516.65 7 425 7 C283 7 189 176 189 375 C189 574 283 743 425 743 C503 743 594.309 676.456 655.364 575.809 C656.761 573.505 661.844 569.383 664 571 L668 574 L671.5 577 C673.446 578.668 671.609 585.768 670.28 587.959 C608.007 690.555 510.8 759 425 759 C201 759 52 582 52 375 C52 168 201 -9 425 -9 C524.45 -9 621.999 59.445 671.303 162.041 C673.602 166.825 671.644 172.684 667.5 176 C663.57 179.144 658.557 178.732 656.388 174.191 L656.388 174.191 Z " />
<glyph glyph-name="Cdot" unicode="&#x10a;" horiz-adv-x="695" d="M362.44 830 L364.56 830 C398.473 830 426 857.527 426 891.44 L426 893.56 C426 927.473 398.473 955 364.56 955 L362.44 955 C328.527 955 301 927.473 301 893.56 L301 891.44 C301 857.527 328.527 830 362.44 830 L362.44 830 Z M656.388 174.191 C608.3 73.5438 516.65 7 425 7 C283 7 189 176 189 375 C189 574 283 743 425 743 C503 743 594.309 676.456 655.364 575.809 C656.761 573.505 661.844 569.383 664 571 L668 574 L671.5 577 C673.446 578.668 671.609 585.768 670.28 587.959 C608.007 690.555 510.8 759 425 759 C201 759 52 582 52 375 C52 168 201 -9 425 -9 C524.45 -9 621.999 59.445 671.303 162.041 C673.602 166.825 671.644 172.684 667.5 176 C663.57 179.144 658.557 178.732 656.388 174.191 L656.388 174.191 Z " />
<glyph glyph-name="cdot" unicode="&#x10b;" horiz-adv-x="532" d="M330.44 600 L332.56 600 C366.473 600 394 627.527 394 661.44 L394 663.56 C394 697.473 366.473 725 332.56 725 L330.44 725 C296.527 725 269 697.473 269 663.56 L269 661.44 C269 627.527 296.527 600 330.44 600 L330.44 600 Z M483.69 134.903 C452.899 56.3337 392.425 5 331 5 C237 5 175 84 175 260 C175 437 237 516 331 516 C387.55 516 439.347 457.061 483.61 368.843 C484.761 366.55 488.929 362.908 491.25 364 L495.5 366 L499.25 368 C501.342 369.116 500.531 374.953 499.456 377.066 C453.144 468.16 397.325 529 332 529 C163 529 51 446 51 260 C51 74 163 -9 332 -9 C402.2 -9 468.598 45.1856 500.606 126.678 C502.545 131.614 499.298 134.742 494.5 137 C489.924 139.153 485.536 139.611 483.69 134.903 L483.69 134.903 Z " />
<glyph glyph-name="Ccaron" unicode="&#x10c;" horiz-adv-x="695" d="M356.652 926.783 L316.651 963.706 C310.043 969.807 283.972 980 274.978 980 L246.5 980 C223.28 980 211.518 956.538 225.41 937.933 L287.571 854.681 C295.722 843.765 323.179 830 336.802 830 L391.198 830 C404.821 830 432.278 843.765 440.429 854.681 L502.59 937.933 C516.482 956.538 504.72 980 481.5 980 L459.72 980 C446.229 980 437.041 990.66 428.917 979.889 C427.041 977.403 393.918 933.734 372.535 922.578 C364.246 918.253 363.522 920.441 356.652 926.783 L356.652 926.783 Z M656.388 174.191 C608.3 73.5438 516.65 7 425 7 C283 7 189 176 189 375 C189 574 283 743 425 743 C503 743 594.309 676.456 655.364 575.809 C656.761 573.505 661.844 569.383 664 571 L668 574 L671.5 577 C673.446 578.668 671.609 585.768 670.28 587.959 C608.007 690.555 510.8 759 425 759 C201 759 52 582 52 375 C52 168 201 -9 425 -9 C524.45 -9 621.999 59.445 671.303 162.041 C673.602 166.825 671.644 172.684 667.5 176 C663.57 179.144 658.557 178.732 656.388 174.191 L656.388 174.191 Z " />
<glyph glyph-name="ccaron" unicode="&#x10d;" horiz-adv-x="532" d="M323.652 696.783 L283.651 733.706 C277.043 739.807 250.972 750 241.978 750 L213.5 750 C190.28 750 178.518 726.538 192.41 707.933 L254.571 624.681 C262.722 613.765 290.179 600 303.802 600 L358.198 600 C371.821 600 399.278 613.765 407.429 624.681 L469.59 707.933 C483.482 726.538 471.72 750 448.5 750 L426.72 750 C413.229 750 404.041 760.66 395.917 749.889 C394.041 747.403 360.918 703.734 339.535 692.578 C331.246 688.253 330.522 690.441 323.652 696.783 L323.652 696.783 Z M483.69 134.903 C452.899 56.3337 392.425 5 331 5 C237 5 175 84 175 260 C175 437 237 516 331 516 C387.55 516 439.347 457.061 483.61 368.843 C484.761 366.55 488.929 362.908 491.25 364 L495.5 366 L499.25 368 C501.342 369.116 500.531 374.953 499.456 377.066 C453.144 468.16 397.325 529 332 529 C163 529 51 446 51 260 C51 74 163 -9 332 -9 C402.2 -9 468.598 45.1856 500.606 126.678 C502.545 131.614 499.298 134.742 494.5 137 C489.924 139.153 485.536 139.611 483.69 134.903 L483.69 134.903 Z " />
<glyph glyph-name="Dcaron" unicode="&#x10e;" horiz-adv-x="765" d="M322.652 926.783 L282.651 963.706 C276.043 969.807 249.972 980 240.978 980 L212.5 980 C189.28 980 177.518 956.538 191.41 937.933 L253.571 854.681 C261.722 843.765 289.179 830 302.802 830 L357.198 830 C370.821 830 398.278 843.765 406.429 854.681 L468.59 937.933 C482.482 956.538 470.72 980 447.5 980 L425.72 980 C412.229 980 403.041 990.66 394.917 979.889 C393.041 977.403 359.918 933.734 338.535 922.578 C330.246 918.253 329.522 920.441 322.652 926.783 L322.652 926.783 Z M350 0 C594 0 710 121 710 375 C710 623 577 750 320 750 L148.44 750 C114.527 750 87 722.473 87 688.56 L87 61.44 C87 27.527 114.527 0 148.44 0 L350 0 L350 0 Z M215 76.44 L215 682 C215 711.254 238.746 735 268 735 L321 735 C487 735 573 613 573 375 C573 131 501 15 349 15 L276.44 15 C242.527 15 215 42.527 215 76.44 L215 76.44 Z " />
<glyph glyph-name="dcaron" unicode="&#x10f;" horiz-adv-x="632" d="M612 697.56 L612 651.5 C612 628.041 631.041 609 654.5 609 C677.167 609 702.11 628.164 707.951 650.065 L720.896 698.61 C729.485 730.818 707.833 759 674.5 759 L673.44 759 C639.527 759 612 731.473 612 697.56 L612 697.56 Z M175 260 C175 413 208 515 258 515 C371 515 447 413 447 260 C447 107 371 5 258 5 C208 5 175 107 175 260 L175 260 Z M50 260 C50 99 131 -9 253 -9 C334.675 -9 397.973 40.005 430.541 121.17 C432.843 126.905 447 125.032 447 118.851 L447 57.5 C447 25.7617 472.762 0 504.5 0 C536.238 0 562 25.7617 562 57.5 L562 692.5 C562 724.238 536.238 750 504.5 750 C472.762 750 447 724.238 447 692.5 L447 401.149 C447 394.968 432.843 393.095 430.541 398.83 C397.973 479.995 334.675 529 253 529 C131 529 50 421 50 260 L50 260 Z " />
<glyph glyph-name="Dcroat" unicode="&#x110;" horiz-adv-x="765" d="M13 369 L47 369 C69.0788 369 87 351.079 87 329 L87 61.44 C87 27.527 114.527 0 148.44 0 L350 0 C594 0 710 121 710 375 C710 623 577 750 320 750 L148.44 750 C114.527 750 87 722.473 87 688.56 L87 421 C87 398.921 69.0788 381 47 381 L13 381 C9.68818 381 7 378.312 7 375 C7 371.688 9.68818 369 13 369 L13 369 Z M215 76.44 L215 311.5 C215 343.238 240.762 369 272.5 369 L324 369 C327.312 369 330 371.688 330 375 C330 378.312 327.312 381 324 381 L272.5 381 C240.762 381 215 406.762 215 438.5 L215 682 C215 711.254 238.746 735 268 735 L321 735 C487 735 573 613 573 375 C573 131 501 15 349 15 L276.44 15 C242.527 15 215 42.527 215 76.44 L215 76.44 Z " />
<glyph glyph-name="dcroat" unicode="&#x111;" horiz-adv-x="632" d="M259 634 L385.56 634 C419.473 634 447 606.473 447 572.56 L447 401.149 C447 394.968 432.843 393.095 430.541 398.83 C397.973 479.995 334.675 529 253 529 C131 529 50 421 50 260 C50 99 131 -9 253 -9 C334.675 -9 397.973 40.005 430.541 121.17 C432.843 126.905 447 125.032 447 118.851 L447 57.5 C447 25.7617 472.762 0 504.5 0 C536.238 0 562 25.7617 562 57.5 L562 577.5 C562 608.686 587.314 634 618.5 634 L669 634 C672.312 634 675 636.688 675 640 C675 643.312 672.312 646 669 646 L614 646 C585.298 646 562 669.298 562 698 C562 726.702 538.702 750 510 750 L499 750 C470.298 750 447 726.702 447 698 C447 669.298 423.702 646 395 646 L259 646 C255.688 646 253 643.312 253 640 C253 636.688 255.688 634 259 634 L259 634 Z M175 260 C175 413 208 515 258 515 C371 515 447 413 447 260 C447 107 371 5 258 5 C208 5 175 107 175 260 L175 260 Z " />
<glyph glyph-name="Emacron" unicode="&#x112;" horiz-adv-x="640" d="M231 830 L431 830 C453.079 830 471 847.921 471 870 C471 892.079 453.079 910 431 910 L231 910 C208.921 910 191 892.079 191 870 C191 847.921 208.921 830 231 830 L231 830 Z M582 16 L276.44 16 C242.527 16 215 43.527 215 77.44 L215 318.56 C215 352.473 242.527 380 276.44 380 L548 380 C551.864 380 555 383.136 555 387 C555 390.864 551.864 394 548 394 L276.44 394 C242.527 394 215 421.527 215 455.44 L215 672.56 C215 706.473 242.527 734 276.44 734 L567 734 C571.416 734 575 737.584 575 742 C575 746.416 571.416 750 567 750 L148.44 750 C114.527 750 87 722.473 87 688.56 L87 61.44 C87 27.527 114.527 0 148.44 0 L582 0 C586.416 0 590 3.58424 590 8 C590 12.4158 586.416 16 582 16 L582 16 Z " />
<glyph glyph-name="emacron" unicode="&#x113;" horiz-adv-x="538" d="M187 600 L387 600 C409.079 600 427 617.921 427 640 C427 662.079 409.079 680 387 680 L187 680 C164.921 680 147 662.079 147 640 C147 617.921 164.921 600 187 600 L187 600 Z M490.233 133.976 C465.737 56.3337 382.35 5 279 5 C225.625 5 186.797 63.1875 176.584 190.951 C173.666 227.45 199.556 250 236.171 250 L461.56 250 C499.258 250 524.037 272.473 519.83 309.936 C504.859 443.25 435.625 529 286 529 C144 529 49 446 49 260 C49 74 141 -9 278 -9 C390.125 -9 479.435 45.1856 505.148 126.678 C506.569 131.182 503.78 134.503 499.5 136.5 C495.56 138.339 491.541 138.122 490.233 133.976 L490.233 133.976 Z M345.752 262 L235.44 262 C199.1 262 173.464 287.199 176.064 323.445 C185.594 456.281 227.375 516 286 516 C359.1 516 394.63 443.028 404.872 327.175 C408.122 290.418 382.651 262 345.752 262 L345.752 262 Z " />
<glyph glyph-name="Ebreve" unicode="&#x114;" horiz-adv-x="640" d="M185.357 922.583 C201.949 860.476 255.925 821 331 821 C406.075 821 460.051 860.476 476.643 922.583 C484.26 951.097 469.014 965 439.5 965 L416 965 C408.167 965 396.658 953.805 394.676 946.228 C387.471 918.696 364 901 331 901 C298 901 274.529 918.696 267.324 946.228 C265.342 953.805 253.833 965 246 965 L222.5 965 C192.986 965 177.74 951.097 185.357 922.583 L185.357 922.583 Z M582 16 L276.44 16 C242.527 16 215 43.527 215 77.44 L215 318.56 C215 352.473 242.527 380 276.44 380 L548 380 C551.864 380 555 383.136 555 387 C555 390.864 551.864 394 548 394 L276.44 394 C242.527 394 215 421.527 215 455.44 L215 672.56 C215 706.473 242.527 734 276.44 734 L567 734 C571.416 734 575 737.584 575 742 C575 746.416 571.416 750 567 750 L148.44 750 C114.527 750 87 722.473 87 688.56 L87 61.44 C87 27.527 114.527 0 148.44 0 L582 0 C586.416 0 590 3.58424 590 8 C590 12.4158 586.416 16 582 16 L582 16 Z " />
<glyph glyph-name="ebreve" unicode="&#x115;" horiz-adv-x="538" d="M141.357 692.583 C157.949 630.476 211.925 591 287 591 C362.075 591 416.051 630.476 432.643 692.583 C440.26 721.097 425.014 735 395.5 735 L372 735 C364.167 735 352.658 723.805 350.676 716.228 C343.471 688.696 320 671 287 671 C254 671 230.529 688.696 223.324 716.228 C221.342 723.805 209.833 735 202 735 L178.5 735 C148.986 735 133.74 721.097 141.357 692.583 L141.357 692.583 Z M490.233 133.976 C465.737 56.3337 382.35 5 279 5 C225.625 5 186.797 63.1875 176.584 190.951 C173.666 227.45 199.556 250 236.171 250 L461.56 250 C499.258 250 524.037 272.473 519.83 309.936 C504.859 443.25 435.625 529 286 529 C144 529 49 446 49 260 C49 74 141 -9 278 -9 C390.125 -9 479.435 45.1856 505.148 126.678 C506.569 131.182 503.78 134.503 499.5 136.5 C495.56 138.339 491.541 138.122 490.233 133.976 L490.233 133.976 Z M345.752 262 L235.44 262 C199.1 262 173.464 287.199 176.064 323.445 C185.594 456.281 227.375 516 286 516 C359.1 516 394.63 443.028 404.872 327.175 C408.122 290.418 382.651 262 345.752 262 L345.752 262 Z " />
<glyph glyph-name="Edot" unicode="&#x116;" horiz-adv-x="640" d="M330.44 830 L332.56 830 C366.473 830 394 857.527 394 891.44 L394 893.56 C394 927.473 366.473 955 332.56 955 L330.44 955 C296.527 955 269 927.473 269 893.56 L269 891.44 C269 857.527 296.527 830 330.44 830 L330.44 830 Z M582 16 L276.44 16 C242.527 16 215 43.527 215 77.44 L215 318.56 C215 352.473 242.527 380 276.44 380 L548 380 C551.864 380 555 383.136 555 387 C555 390.864 551.864 394 548 394 L276.44 394 C242.527 394 215 421.527 215 455.44 L215 672.56 C215 706.473 242.527 734 276.44 734 L567 734 C571.416 734 575 737.584 575 742 C575 746.416 571.416 750 567 750 L148.44 750 C114.527 750 87 722.473 87 688.56 L87 61.44 C87 27.527 114.527 0 148.44 0 L582 0 C586.416 0 590 3.58424 590 8 C590 12.4158 586.416 16 582 16 L582 16 Z " />
<glyph glyph-name="edot" unicode="&#x117;" horiz-adv-x="538" d="M286.44 600 L288.56 600 C322.473 600 350 627.527 350 661.44 L350 663.56 C350 697.473 322.473 725 288.56 725 L286.44 725 C252.527 725 225 697.473 225 663.56 L225 661.44 C225 627.527 252.527 600 286.44 600 L286.44 600 Z M490.233 133.976 C465.737 56.3337 382.35 5 279 5 C225.625 5 186.797 63.1875 176.584 190.951 C173.666 227.45 199.556 250 236.171 250 L461.56 250 C499.258 250 524.037 272.473 519.83 309.936 C504.859 443.25 435.625 529 286 529 C144 529 49 446 49 260 C49 74 141 -9 278 -9 C390.125 -9 479.435 45.1856 505.148 126.678 C506.569 131.182 503.78 134.503 499.5 136.5 C495.56 138.339 491.541 138.122 490.233 133.976 L490.233 133.976 Z M345.752 262 L235.44 262 C199.1 262 173.464 287.199 176.064 323.445 C185.594 456.281 227.375 516 286 516 C359.1 516 394.63 443.028 404.872 327.175 C408.122 290.418 382.651 262 345.752 262 L345.752 262 Z " />
<glyph glyph-name="Eogonek" unicode="&#x118;" horiz-adv-x="640" d="M581.984 16 L276.44 16 C242.527 16 215 43.527 215 77.44 L215 318.56 C215 352.473 242.527 380 276.44 380 L548 380 C551.864 380 555 383.136 555 387 C555 390.864 551.864 394 548 394 L276.44 394 C242.527 394 215 421.527 215 455.44 L215 672.56 C215 706.473 242.527 734 276.44 734 L567 734 C571.416 734 575 737.584 575 742 C575 746.416 571.416 750 567 750 L148.44 750 C114.527 750 87 722.473 87 688.56 L87 61.44 C87 27.527 114.527 0 148.44 0 L321.838 0 C328.623 0 331.204 -9.22771 325.698 -13.194 C286.575 -41.38 236 -85.75 236 -107 C236 -164 292 -202 375 -202 C403.462 -202 431.923 -190.299 449.284 -172.021 C450.701 -170.529 451.727 -166.545 451.5 -164.5 C451.305 -162.748 449.574 -161.671 448.36 -162.949 C431.845 -180.332 403.474 -192 376 -192 C330 -192 300 -153 300 -95 C300 -61.75 329.094 -20.8438 347.086 -5.10742 C350.686 -1.95877 358.396 0 363.179 0 L580.984 0 C585.4 0 589.225 3.59284 589.5 8 C589.775 12.4072 586.4 16 581.984 16 L581.984 16 Z " />
<glyph glyph-name="eogonek" unicode="&#x119;" horiz-adv-x="538" d="M490.233 133.976 C465.737 56.3337 382.35 5 279 5 C225.625 5 186.797 63.1875 176.584 190.951 C173.666 227.45 199.556 250 236.171 250 L461.56 250 C499.258 250 524.037 272.473 519.83 309.936 C504.859 443.25 435.625 529 286 529 C144 529 49 446 49 260 C49 74 141 -9 278 -9 C315.125 -9 349.528 -2.87438 380.084 8.25384 C382.807 9.24533 387.52 5.79775 385.398 3.82422 C353.625 -25.7344 323 -62.375 323 -86 C323 -156 379 -202 462 -202 C490.462 -202 518.923 -190.299 536.284 -172.021 C537.701 -170.529 538.727 -166.545 538.5 -164.5 C538.305 -162.748 536.574 -161.671 535.36 -162.949 C518.845 -180.332 490.474 -192 463 -192 C417 -192 387 -145 387 -75 C387 -34.3 411.813 9.8225 429.781 30.4581 C430.305 31.0595 438.683 38.3428 439.324 38.8171 C469.938 61.4731 492.705 90.9048 504.274 125.103 C505.786 129.572 503.881 135.248 499.5 137 C495.536 138.586 491.517 138.048 490.233 133.976 L490.233 133.976 Z M345.752 263 L235.44 263 C199.1 263 173.464 288.199 176.064 324.445 C185.594 457.281 227.375 517 286 517 C359.1 517 394.63 444.027 404.872 328.175 C408.122 291.418 382.651 263 345.752 263 L345.752 263 Z " />
<glyph glyph-name="Ecaron" unicode="&#x11a;" horiz-adv-x="640" d="M323.652 926.783 L283.651 963.706 C277.043 969.807 250.972 980 241.978 980 L213.5 980 C190.28 980 178.518 956.538 192.41 937.933 L254.571 854.681 C262.722 843.765 290.179 830 303.802 830 L358.198 830 C371.821 830 399.278 843.765 407.429 854.681 L469.59 937.933 C483.482 956.538 471.72 980 448.5 980 L426.72 980 C413.229 980 404.041 990.66 395.917 979.889 C394.041 977.403 360.918 933.734 339.535 922.578 C331.246 918.253 330.522 920.441 323.652 926.783 L323.652 926.783 Z M582 16 L276.44 16 C242.527 16 215 43.527 215 77.44 L215 318.56 C215 352.473 242.527 380 276.44 380 L548 380 C551.864 380 555 383.136 555 387 C555 390.864 551.864 394 548 394 L276.44 394 C242.527 394 215 421.527 215 455.44 L215 672.56 C215 706.473 242.527 734 276.44 734 L567 734 C571.416 734 575 737.584 575 742 C575 746.416 571.416 750 567 750 L148.44 750 C114.527 750 87 722.473 87 688.56 L87 61.44 C87 27.527 114.527 0 148.44 0 L582 0 C586.416 0 590 3.58424 590 8 C590 12.4158 586.416 16 582 16 L582 16 Z " />
<glyph glyph-name="ecaron" unicode="&#x11b;" horiz-adv-x="538" d="M279.652 696.783 L239.651 733.706 C233.043 739.807 206.972 750 197.978 750 L169.5 750 C146.28 750 134.518 726.538 148.41 707.933 L210.571 624.681 C218.722 613.765 246.179 600 259.802 600 L314.198 600 C327.821 600 355.278 613.765 363.429 624.681 L425.59 707.933 C439.482 726.538 427.72 750 404.5 750 L382.72 750 C369.229 750 360.041 760.66 351.917 749.889 C350.041 747.403 316.918 703.734 295.535 692.578 C287.246 688.253 286.522 690.441 279.652 696.783 L279.652 696.783 Z M490.233 133.976 C465.737 56.3337 382.35 5 279 5 C225.625 5 186.797 63.1875 176.584 190.951 C173.666 227.45 199.556 250 236.171 250 L461.56 250 C499.258 250 524.037 272.473 519.83 309.936 C504.859 443.25 435.625 529 286 529 C144 529 49 446 49 260 C49 74 141 -9 278 -9 C390.125 -9 479.435 45.1856 505.148 126.678 C506.569 131.182 503.78 134.503 499.5 136.5 C495.56 138.339 491.541 138.122 490.233 133.976 L490.233 133.976 Z M345.752 262 L235.44 262 C199.1 262 173.464 287.199 176.064 323.445 C185.594 456.281 227.375 516 286 516 C359.1 516 394.63 443.028 404.872 327.175 C408.122 290.418 382.651 262 345.752 262 L345.752 262 Z " />
<glyph glyph-name="Gcircumflex" unicode="&#x11c;" horiz-adv-x="746" d="M455.535 887.422 C477.547 875.938 512 830 512 830 C512 830 508.807 830 542.72 830 L564.5 830 C587.72 830 599.482 853.462 585.59 872.067 L523.429 955.319 C515.278 966.235 487.821 980 474.198 980 L419.802 980 C406.179 980 378.722 966.235 370.571 955.319 L308.41 872.067 C294.518 853.462 306.28 830 329.5 830 L357.978 830 C366.972 830 393.043 840.193 399.651 846.294 L439.652 883.217 C446.522 889.559 447.246 891.747 455.535 887.422 L455.535 887.422 Z M460 395 L620.56 395 C654.473 395 682 367.473 682 333.56 L682 141.584 C682 128.228 669.519 102.576 658.896 94.48 C588.75 41.02 511.8 7 447 7 C292 7 189 154 189 375 C189 596 292 743 447 743 C511.35 743 592.811 676.456 653.383 575.809 C654.776 573.493 659.837 569.378 662 571 L666 574 L669.5 577 C671.438 578.661 669.615 585.772 668.298 587.959 C606.51 690.555 519.15 759 447 759 C210 759 52 605 52 375 C52 145 210 -9 447 -9 C518.1 -9 601.35 27.45 676.338 84.312 C687.033 92.4219 701 119.219 701 132.641 L701 349.56 C701 383.473 673.473 411 639.56 411 L460 411 C455.584 411 452 407.416 452 403 C452 398.584 455.584 395 460 395 L460 395 Z " />
<glyph glyph-name="Gbreve" unicode="&#x11e;" horiz-adv-x="746" d="M301.357 922.583 C317.949 860.476 371.925 821 447 821 C522.075 821 576.051 860.476 592.643 922.583 C600.26 951.097 585.014 965 555.5 965 L532 965 C524.167 965 512.658 953.805 510.676 946.228 C503.471 918.696 480 901 447 901 C414 901 390.529 918.696 383.324 946.228 C381.342 953.805 369.833 965 362 965 L338.5 965 C308.986 965 293.74 951.097 301.357 922.583 L301.357 922.583 Z M460 395 L620.56 395 C654.473 395 682 367.473 682 333.56 L682 141.584 C682 128.228 669.519 102.576 658.896 94.48 C588.75 41.02 511.8 7 447 7 C292 7 189 154 189 375 C189 596 292 743 447 743 C511.35 743 592.811 676.456 653.383 575.809 C654.776 573.493 659.837 569.378 662 571 L666 574 L669.5 577 C671.438 578.661 669.615 585.772 668.298 587.959 C606.51 690.555 519.15 759 447 759 C210 759 52 605 52 375 C52 145 210 -9 447 -9 C518.1 -9 601.35 27.45 676.338 84.312 C687.033 92.4219 701 119.219 701 132.641 L701 349.56 C701 383.473 673.473 411 639.56 411 L460 411 C455.584 411 452 407.416 452 403 C452 398.584 455.584 395 460 395 L460 395 Z " />
<glyph glyph-name="gbreve" unicode="&#x11f;" horiz-adv-x="622" d="M155.357 692.583 C171.949 630.476 225.925 591 301 591 C376.075 591 430.051 630.476 446.643 692.583 C454.26 721.097 439.014 735 409.5 735 L386 735 C378.167 735 366.658 723.805 364.676 716.228 C357.471 688.696 334 671 301 671 C268 671 244.529 688.696 237.324 716.228 C235.342 723.805 223.833 735 216 735 L192.5 735 C162.986 735 147.74 721.097 155.357 692.583 L155.357 692.583 Z M76.6992 -95.7114 C85.52 -143.047 177.1 -162 312 -162 C485 -162 552 -78 552 49 L552 462.5 C552 494.238 526.238 520 494.5 520 C462.762 520 437 494.238 437 462.5 L437 401.658 C437 395.474 423.008 393.566 420.719 399.311 C388.704 479.676 327.2 528 248 528 C129 528 50 453 50 259 C50 72 129 -1 248 -1 C327.2 -1 388.704 45.9631 420.719 124.167 C423.059 129.883 437 127.987 437 121.811 L437 0 C437 -89 402 -148 311 -148 C190.75 -148 108.147 -133.454 96.4335 -97.24 C95.3164 -93.7863 89.1299 -88 85.5 -88 C79.2957 -88 75.5627 -89.6121 76.6992 -95.7114 L76.6992 -95.7114 Z M175 260 C175 444 206 515 253 515 C363 515 437 413 437 260 C437 112 363 14 253 14 C206 14 175 83 175 260 L175 260 Z " />
<glyph glyph-name="Gdot" unicode="&#x120;" horiz-adv-x="746" d="M446.44 830 L448.56 830 C482.473 830 510 857.527 510 891.44 L510 893.56 C510 927.473 482.473 955 448.56 955 L446.44 955 C412.527 955 385 927.473 385 893.56 L385 891.44 C385 857.527 412.527 830 446.44 830 L446.44 830 Z M460 395 L620.56 395 C654.473 395 682 367.473 682 333.56 L682 141.584 C682 128.228 669.519 102.576 658.896 94.48 C588.75 41.02 511.8 7 447 7 C292 7 189 154 189 375 C189 596 292 743 447 743 C511.35 743 592.811 676.456 653.383 575.809 C654.776 573.493 659.837 569.378 662 571 L666 574 L669.5 577 C671.438 578.661 669.615 585.772 668.298 587.959 C606.51 690.555 519.15 759 447 759 C210 759 52 605 52 375 C52 145 210 -9 447 -9 C518.1 -9 601.35 27.45 676.338 84.312 C687.033 92.4219 701 119.219 701 132.641 L701 349.56 C701 383.473 673.473 411 639.56 411 L460 411 C455.584 411 452 407.416 452 403 C452 398.584 455.584 395 460 395 L460 395 Z " />
<glyph glyph-name="gdot" unicode="&#x121;" horiz-adv-x="622" d="M300.44 600 L302.56 600 C336.473 600 364 627.527 364 661.44 L364 663.56 C364 697.473 336.473 725 302.56 725 L300.44 725 C266.527 725 239 697.473 239 663.56 L239 661.44 C239 627.527 266.527 600 300.44 600 L300.44 600 Z M76.6992 -95.7114 C85.52 -143.047 177.1 -162 312 -162 C485 -162 552 -78 552 49 L552 462.5 C552 494.238 526.238 520 494.5 520 C462.762 520 437 494.238 437 462.5 L437 401.658 C437 395.474 423.008 393.566 420.719 399.311 C388.704 479.676 327.2 528 248 528 C129 528 50 453 50 259 C50 72 129 -1 248 -1 C327.2 -1 388.704 45.9631 420.719 124.167 C423.059 129.883 437 127.987 437 121.811 L437 0 C437 -89 402 -148 311 -148 C190.75 -148 108.147 -133.454 96.4335 -97.24 C95.3164 -93.7863 89.1299 -88 85.5 -88 C79.2957 -88 75.5627 -89.6121 76.6992 -95.7114 L76.6992 -95.7114 Z M175 260 C175 444 206 515 253 515 C363 515 437 413 437 260 C437 112 363 14 253 14 C206 14 175 83 175 260 L175 260 Z " />
<glyph glyph-name="Hcircumflex" unicode="&#x124;" horiz-adv-x="778" d="M398.535 887.422 C420.547 875.938 455 830 455 830 C455 830 451.807 830 485.72 830 L507.5 830 C530.72 830 542.482 853.462 528.59 872.067 L466.429 955.319 C458.278 966.235 430.821 980 417.198 980 L362.802 980 C349.179 980 321.722 966.235 313.571 955.319 L251.41 872.067 C237.518 853.462 249.28 830 272.5 830 L300.978 830 C309.972 830 336.043 840.193 342.651 846.294 L382.652 883.217 C389.522 889.559 390.246 891.747 398.535 887.422 L398.535 887.422 Z M693 61.44 L693 688.56 C693 722.473 665.473 750 631.56 750 L626.44 750 C592.527 750 565 722.473 565 688.56 L565 464.44 C565 430.527 537.473 403 503.56 403 L276.44 403 C242.527 403 215 430.527 215 464.44 L215 688.56 C215 722.473 187.473 750 153.56 750 L148.44 750 C114.527 750 87 722.473 87 688.56 L87 61.44 C87 27.527 114.527 0 148.44 0 L153.56 0 C187.473 0 215 27.527 215 61.44 L215 325.56 C215 359.473 242.527 387 276.44 387 L503.56 387 C537.473 387 565 359.473 565 325.56 L565 61.44 C565 27.527 592.527 0 626.44 0 L631.56 0 C665.473 0 693 27.527 693 61.44 L693 61.44 Z " />
<glyph glyph-name="Itilde" unicode="&#x128;" horiz-adv-x="301" d="M72.7558 850.734 C75.0329 880.149 82.3333 899 93 899 C127 899 166 821 219 821 C217 821 211 911 211 911 C211 911 214.969 866.351 214.993 866.077 L216.388 850.384 C218.438 827.327 226.663 817.812 248.036 826.703 C282.743 841.141 306.823 882.108 314.432 939.454 C317.923 965.768 301.044 980 274.5 980 L252.5 980 C242.058 980 232.05 969.677 231.244 959.266 C229.394 935.366 224.228 918.44 216.634 912.934 C210.802 908.704 215.811 905.907 210.865 911.144 C207.362 914.851 136.675 989 85 989 C85.8261 989 87.3346 973.987 88.9618 956.363 C88.9629 956.35 89.0231 955.99 89.022 956.002 L88 967.5 C86.5633 983.663 80.4411 991.56 64.8496 987.064 C25.9148 975.838 -1.25906 933.14 -9.43162 871.546 C-12.8871 845.503 3.73092 830.813 30 830.5 L51.5015 830.244 C61.952 830.12 71.9492 840.314 72.7558 850.734 L72.7558 850.734 Z M217 62.44 L217 689.56 C217 723.473 189.473 751 155.56 751 L150.44 751 C116.527 751 89 723.473 89 689.56 L89 62.44 C89 28.527 116.527 1 150.44 1 L155.56 1 C189.473 1 217 28.527 217 62.44 L217 62.44 Z " />
<glyph glyph-name="itilde" unicode="&#x129;" horiz-adv-x="295" d="M87.7558 620.734 C90.0329 650.149 97.3333 669 108 669 C142 669 181 591 234 591 C232 591 226 681 226 681 C226 681 229.969 636.351 229.993 636.077 L231.388 620.384 C233.438 597.327 241.663 587.812 263.036 596.703 C297.743 611.141 321.823 652.108 329.432 709.454 C332.923 735.768 316.044 750 289.5 750 L267.5 750 C257.058 750 247.05 739.677 246.244 729.266 C244.394 705.366 239.228 688.44 231.634 682.934 C225.802 678.704 230.811 675.907 225.865 681.144 C222.363 684.851 151.675 759 100 759 C100.826 759 102.335 743.987 103.962 726.363 C103.963 726.35 104.023 725.99 104.022 726.002 L103 737.5 C101.563 753.663 95.4411 761.56 79.8496 757.064 C40.9148 745.838 13.7409 703.14 5.56837 641.546 C2.11293 615.503 18.7309 600.813 45 600.5 L66.5015 600.244 C76.952 600.12 86.9492 610.314 87.7558 620.734 L87.7558 620.734 Z M168.5 1 C200.238 1 226 26.7617 226 58.5 L226 463.5 C226 495.238 200.238 521 168.5 521 C136.762 521 111 495.238 111 463.5 L111 58.5 C111 26.7617 136.762 1 168.5 1 L168.5 1 Z " />
<glyph glyph-name="Imacron" unicode="&#x12a;" horiz-adv-x="301" d="M52 830 L252 830 C274.079 830 292 847.921 292 870 C292 892.079 274.079 910 252 910 L52 910 C29.9212 910 12 892.079 12 870 C12 847.921 29.9212 830 52 830 L52 830 Z M216 61.44 L216 688.56 C216 722.473 188.473 750 154.56 750 L149.44 750 C115.527 750 88 722.473 88 688.56 L88 61.44 C88 27.527 115.527 0 149.44 0 L154.56 0 C188.473 0 216 27.527 216 61.44 L216 61.44 Z " />
<glyph glyph-name="imacron" unicode="&#x12b;" horiz-adv-x="295" d="M67 600 L267 600 C289.079 600 307 617.921 307 640 C307 662.079 289.079 680 267 680 L67 680 C44.9212 680 27 662.079 27 640 C27 617.921 44.9212 600 67 600 L67 600 Z M167.5 0 C199.238 0 225 25.7617 225 57.5 L225 462.5 C225 494.238 199.238 520 167.5 520 C135.762 520 110 494.238 110 462.5 L110 57.5 C110 25.7617 135.762 0 167.5 0 L167.5 0 Z " />
<glyph glyph-name="Ibreve" unicode="&#x12c;" horiz-adv-x="301" d="M6.35708 922.583 C22.9494 860.476 76.925 821 152 821 C227.075 821 281.051 860.476 297.643 922.583 C305.26 951.097 290.014 965 260.5 965 L237 965 C229.167 965 217.658 953.805 215.676 946.228 C208.471 918.696 185 901 152 901 C119 901 95.5288 918.696 88.3244 946.228 C86.3416 953.805 74.8325 965 67 965 L43.5 965 C13.9865 965 -1.26049 951.097 6.35708 922.583 L6.35708 922.583 Z M216 61.44 L216 688.56 C216 722.473 188.473 750 154.56 750 L149.44 750 C115.527 750 88 722.473 88 688.56 L88 61.44 C88 27.527 115.527 0 149.44 0 L154.56 0 C188.473 0 216 27.527 216 61.44 L216 61.44 Z " />
<glyph glyph-name="ibreve" unicode="&#x12d;" horiz-adv-x="295" d="M21.3571 692.583 C37.9494 630.476 91.925 591 167 591 C242.075 591 296.051 630.476 312.643 692.583 C320.26 721.097 305.014 735 275.5 735 L252 735 C244.167 735 232.658 723.805 230.676 716.228 C223.471 688.696 200 671 167 671 C134 671 110.529 688.696 103.324 716.228 C101.342 723.805 89.8325 735 82 735 L58.5 735 C28.9865 735 13.7395 721.097 21.3571 692.583 L21.3571 692.583 Z M167.5 0 C199.238 0 225 25.7617 225 57.5 L225 462.5 C225 494.238 199.238 520 167.5 520 C135.762 520 110 494.238 110 462.5 L110 57.5 C110 25.7617 135.762 0 167.5 0 L167.5 0 Z " />
<glyph glyph-name="Idot" unicode="&#x130;" horiz-adv-x="301" d="M151.44 830 L153.56 830 C187.473 830 215 857.527 215 891.44 L215 893.56 C215 927.473 187.473 955 153.56 955 L151.44 955 C117.527 955 90 927.473 90 893.56 L90 891.44 C90 857.527 117.527 830 151.44 830 L151.44 830 Z M216 61.44 L216 688.56 C216 722.473 188.473 750 154.56 750 L149.44 750 C115.527 750 88 722.473 88 688.56 L88 61.44 C88 27.527 115.527 0 149.44 0 L154.56 0 C188.473 0 216 27.527 216 61.44 L216 61.44 Z " />
<glyph glyph-name="dotlessi" unicode="&#x131;" horiz-adv-x="295" d="M167.5 0 C199.238 0 225 25.7617 225 57.5 L225 462.5 C225 494.238 199.238 520 167.5 520 C135.762 520 110 494.238 110 462.5 L110 57.5 C110 25.7617 135.762 0 167.5 0 L167.5 0 Z " />
<glyph glyph-name="Jcircumflex" unicode="&#x134;" horiz-adv-x="565" d="M424.535 887.422 C446.547 875.938 481 830 481 830 C481 830 477.807 830 511.72 830 L533.5 830 C556.72 830 568.482 853.462 554.59 872.067 L492.429 955.319 C484.278 966.235 456.821 980 443.198 980 L388.802 980 C375.179 980 347.722 966.235 339.571 955.319 L277.41 872.067 C263.518 853.462 275.28 830 298.5 830 L326.978 830 C335.972 830 362.043 840.193 368.651 846.294 L408.652 883.217 C415.522 889.559 416.246 891.747 424.535 887.422 L424.535 887.422 Z M49 247.5 L49 216 C49 61 116 -9 265 -9 C407 -9 480 83 480 220 L480 688.56 C480 722.473 452.473 750 418.56 750 L413.44 750 C379.527 750 352 722.473 352 688.56 L352 220 C352 93 322 9 265 9 C204 9 177 84 177 252 L177 277 C177 290.582 165.762 299.981 152.394 297.579 L80.0035 284.571 C63.1602 281.544 49 264.613 49 247.5 L49 247.5 Z " />
<glyph glyph-name="Lacute" unicode="&#x139;" horiz-adv-x="571" d="M152.5 830 L171.564 830 C187.062 830 214.741 845.063 223.156 858.077 L261.274 917.021 C280.15 946.212 261.763 980 227 980 L195.728 980 C172.923 980 145.147 960.231 137.677 938.684 L117.196 879.604 C108.228 853.734 125.12 830 152.5 830 L152.5 830 Z M533 16 L277.44 16 C243.527 16 216 43.527 216 77.44 L216 688.56 C216 722.473 188.473 750 154.56 750 L149.44 750 C115.527 750 88 722.473 88 688.56 L88 61.44 C88 27.527 115.527 0 149.44 0 L533 0 C537.416 0 541 3.58424 541 8 C541 12.4158 537.416 16 533 16 L533 16 Z " />
<glyph glyph-name="lacute" unicode="&#x13a;" horiz-adv-x="255" d="M98.5 790 L117.75 790 C133.115 790 160.782 804.973 169.186 817.835 L207.979 877.213 C226.934 906.226 208.657 940 174 940 L142.454 940 C119.839 940 92.0576 920.352 84.5235 899.029 L63.4903 839.501 C54.3877 813.739 71.177 790 98.5 790 L98.5 790 Z M185 57.5 L185 692.5 C185 724.238 159.238 750 127.5 750 C95.7617 750 70 724.238 70 692.5 L70 57.5 C70 25.7617 95.7617 0 127.5 0 C159.238 0 185 25.7617 185 57.5 L185 57.5 Z " />
<glyph glyph-name="Lcaron" unicode="&#x13d;" horiz-adv-x="571" d="M316 697.56 L316 651.5 C316 628.041 335.041 609 358.5 609 C381.167 609 406.11 628.164 411.951 650.065 L424.896 698.61 C433.485 730.818 411.833 759 378.5 759 L377.44 759 C343.527 759 316 731.473 316 697.56 L316 697.56 Z M533 16 L277.44 16 C243.527 16 216 43.527 216 77.44 L216 688.56 C216 722.473 188.473 750 154.56 750 L149.44 750 C115.527 750 88 722.473 88 688.56 L88 61.44 C88 27.527 115.527 0 149.44 0 L533 0 C537.416 0 541 3.58424 541 8 C541 12.4158 537.416 16 533 16 L533 16 Z " />
<glyph glyph-name="lcaron" unicode="&#x13e;" horiz-adv-x="255" d="M235 697.56 L235 651.5 C235 628.041 254.041 609 277.5 609 C300.167 609 325.11 628.164 330.951 650.065 L343.896 698.61 C352.485 730.818 330.833 759 297.5 759 L296.44 759 C262.527 759 235 731.473 235 697.56 L235 697.56 Z M185 57.5 L185 692.5 C185 724.238 159.238 750 127.5 750 C95.7617 750 70 724.238 70 692.5 L70 57.5 C70 25.7617 95.7617 0 127.5 0 C159.238 0 185 25.7617 185 57.5 L185 57.5 Z " />
<glyph glyph-name="Lslash" unicode="&#x141;" horiz-adv-x="571" d="M533 16 L277.44 16 C243.527 16 216 43.527 216 77.44 L216 327.946 C216 353.021 237.22 380.728 261.428 387.263 L373.207 417.436 C376.294 418.27 379 421.803 379 425 C379 428.197 376.294 430.27 373.207 429.436 L293.452 407.907 C252.178 396.766 216 424.473 216 467.224 L216 688.56 C216 722.473 188.473 750 154.56 750 L149.44 750 C115.527 750 88 722.473 88 688.56 L88 394.485 C88 372.406 69.2885 347.854 48 342 L13.7852 332.591 C10.7063 331.744 8 328.193 8 325 C8 321.807 10.7063 319.744 13.7852 320.591 L48 330 C69.2885 335.854 88 321.594 88 299.515 L88 61.44 C88 27.527 115.527 0 149.44 0 L533 0 C537.416 0 541 3.58424 541 8 C541 12.4158 537.416 16 533 16 L533 16 Z " />
<glyph glyph-name="lslash" unicode="&#x142;" horiz-adv-x="255" d="M-4.35918 321.045 L30 333.5 C50.7571 341.024 70 327.532 70 305.453 L70 57.5 C70 25.7617 95.7617 0 127.5 0 C159.238 0 185 25.7617 185 57.5 L185 347.453 C185 369.532 204.243 396.976 225 404.5 L259.359 416.955 C262.286 418.016 265 421.886 265 425 C265 428.114 262.286 430.016 259.359 428.955 L225 416.5 C204.243 408.976 185 422.468 185 444.547 L185 692.5 C185 724.238 159.238 750 127.5 750 C95.7617 750 70 724.238 70 692.5 L70 402.547 C70 380.468 50.7571 353.024 30 345.5 L-4.35918 333.045 C-7.28635 331.984 -10 328.114 -10 325 C-10 321.886 -7.28635 319.984 -4.35918 321.045 L-4.35918 321.045 Z " />
<glyph glyph-name="Nacute" unicode="&#x143;" horiz-adv-x="668" d="M248.5 830 L267.75 830 C283.115 830 310.782 844.973 319.186 857.835 L357.979 917.213 C376.934 946.226 358.657 980 324 980 L292.454 980 C269.839 980 242.058 960.352 234.523 939.029 L213.49 879.501 C204.388 853.739 221.177 830 248.5 830 L248.5 830 Z M133 9.5 L133 400.902 C133 466.068 225.761 484.809 251.061 424.755 L414.165 37.587 C422.22 18.4675 450.039 0 470.786 0 L521.56 0 C555.473 0 583 27.527 583 61.44 L583 740.5 C583 745.744 578.744 750 573.5 750 C568.256 750 564 745.744 564 740.5 L564 325.199 C564 260.032 471.229 241.294 445.936 301.353 L272.832 712.406 C264.778 731.53 236.959 750 216.208 750 L175.44 750 C141.527 750 114 722.473 114 688.56 L114 9.5 C114 4.25628 118.256 0 123.5 0 C128.744 0 133 4.25628 133 9.5 L133 9.5 Z " />
<glyph glyph-name="nacute" unicode="&#x144;" horiz-adv-x="550" d="M277.5 600 L296.75 600 C312.115 600 339.782 614.973 348.186 627.835 L386.979 687.213 C405.934 716.226 387.657 750 353 750 L321.454 750 C298.839 750 271.058 730.352 263.523 709.029 L242.49 649.501 C233.388 623.739 250.177 600 277.5 600 L277.5 600 Z M485 57.5022 L485 315 C485 454 430 525 347 525 C278.525 525 225.704 486.885 198.645 423.57 C196.646 418.89 185 420.414 185 425.503 L185 461.5 C185 493.238 159.238 519 127.5 519 C95.7617 519 70 493.238 70 461.5 L70 56.5 C70 24.7617 95.7617 -1 127.5 -1 C159.238 -1 185 24.7617 185 56.5 L185 319 C185 432 247 508 341 508 C358 508 370 442 370 314 L370 56.5022 C370 24.7639 395.763 -0.775975 427.5 -0.5 C459.237 -0.224025 485 25.7639 485 57.5022 L485 57.5022 Z " />
<glyph glyph-name="Ncaron" unicode="&#x147;" horiz-adv-x="668" d="M341.652 926.783 L301.651 963.706 C295.043 969.807 268.972 980 259.978 980 L231.5 980 C208.28 980 196.518 956.538 210.41 937.933 L272.571 854.681 C280.722 843.765 308.179 830 321.802 830 L376.198 830 C389.821 830 417.278 843.765 425.429 854.681 L487.59 937.933 C501.482 956.538 489.72 980 466.5 980 L444.72 980 C431.229 980 422.041 990.66 413.917 979.889 C412.041 977.403 378.918 933.734 357.535 922.578 C349.246 918.253 348.522 920.441 341.652 926.783 L341.652 926.783 Z M133 9.5 L133 400.902 C133 466.068 225.761 484.809 251.061 424.755 L414.165 37.587 C422.22 18.4675 450.039 0 470.786 0 L521.56 0 C555.473 0 583 27.527 583 61.44 L583 740.5 C583 745.744 578.744 750 573.5 750 C568.256 750 564 745.744 564 740.5 L564 325.199 C564 260.032 471.229 241.294 445.936 301.353 L272.832 712.406 C264.778 731.53 236.959 750 216.208 750 L175.44 750 C141.527 750 114 722.473 114 688.56 L114 9.5 C114 4.25628 118.256 0 123.5 0 C128.744 0 133 4.25628 133 9.5 L133 9.5 Z " />
<glyph glyph-name="ncaron" unicode="&#x148;" horiz-adv-x="550" d="M270.652 696.783 L230.651 733.706 C224.043 739.807 197.972 750 188.978 750 L160.5 750 C137.28 750 125.518 726.538 139.41 707.933 L201.571 624.681 C209.722 613.765 237.179 600 250.802 600 L305.198 600 C318.821 600 346.278 613.765 354.429 624.681 L416.59 707.933 C430.482 726.538 418.72 750 395.5 750 L373.72 750 C360.229 750 351.041 760.66 342.917 749.889 C341.041 747.403 307.918 703.734 286.535 692.578 C278.246 688.253 277.522 690.441 270.652 696.783 L270.652 696.783 Z M485 57.5022 L485 315 C485 454 430 525 347 525 C278.525 525 225.704 486.885 198.645 423.57 C196.646 418.89 185 420.414 185 425.503 L185 461.5 C185 493.238 159.238 519 127.5 519 C95.7617 519 70 493.238 70 461.5 L70 56.5 C70 24.7617 95.7617 -1 127.5 -1 C159.238 -1 185 24.7617 185 56.5 L185 319 C185 432 247 508 341 508 C358 508 370 442 370 314 L370 56.5022 C370 24.7639 395.763 -0.775975 427.5 -0.5 C459.237 -0.224025 485 25.7639 485 57.5022 L485 57.5022 Z " />
<glyph glyph-name="Omacron" unicode="&#x14c;" horiz-adv-x="814" d="M308 830 L508 830 C530.079 830 548 847.921 548 870 C548 892.079 530.079 910 508 910 L308 910 C285.921 910 268 892.079 268 870 C268 847.921 285.921 830 308 830 L308 830 Z M194 375 C194 585 286 743 408 743 C530 743 622 585 622 375 C622 154 536 7 408 7 C280 7 194 154 194 375 L194 375 Z M57 375 C57 145 197 -9 408 -9 C619 -9 759 145 759 375 C759 594 608 759 408 759 C208 759 57 594 57 375 L57 375 Z " />
<glyph glyph-name="omacron" unicode="&#x14d;" horiz-adv-x="590" d="M195 600 L395 600 C417.079 600 435 617.921 435 640 C435 662.079 417.079 680 395 680 L195 680 C172.921 680 155 662.079 155 640 C155 617.921 172.921 600 195 600 L195 600 Z M175 260 C175 437 223 516 295 516 C378 516 415 414 415 260 C415 83 367 4 295 4 C212 4 175 106 175 260 L175 260 Z M50 260 C50 99 126 -9 295 -9 C442 -9 540 74 540 260 C540 421 464 529 295 529 C148 529 50 446 50 260 L50 260 Z " />
<glyph glyph-name="Obreve" unicode="&#x14e;" horiz-adv-x="814" d="M262.357 922.583 C278.949 860.476 332.925 821 408 821 C483.075 821 537.051 860.476 553.643 922.583 C561.26 951.097 546.014 965 516.5 965 L493 965 C485.167 965 473.658 953.805 471.676 946.228 C464.471 918.696 441 901 408 901 C375 901 351.529 918.696 344.324 946.228 C342.342 953.805 330.833 965 323 965 L299.5 965 C269.986 965 254.74 951.097 262.357 922.583 L262.357 922.583 Z M194 375 C194 585 286 743 408 743 C530 743 622 585 622 375 C622 154 536 7 408 7 C280 7 194 154 194 375 L194 375 Z M57 375 C57 145 197 -9 408 -9 C619 -9 759 145 759 375 C759 594 608 759 408 759 C208 759 57 594 57 375 L57 375 Z " />
<glyph glyph-name="obreve" unicode="&#x14f;" horiz-adv-x="590" d="M149.357 692.583 C165.949 630.476 219.925 591 295 591 C370.075 591 424.051 630.476 440.643 692.583 C448.26 721.097 433.014 735 403.5 735 L380 735 C372.167 735 360.658 723.805 358.676 716.228 C351.471 688.696 328 671 295 671 C262 671 238.529 688.696 231.324 716.228 C229.342 723.805 217.833 735 210 735 L186.5 735 C156.986 735 141.74 721.097 149.357 692.583 L149.357 692.583 Z M175 260 C175 437 223 516 295 516 C378 516 415 414 415 260 C415 83 367 4 295 4 C212 4 175 106 175 260 L175 260 Z M50 260 C50 99 126 -9 295 -9 C442 -9 540 74 540 260 C540 421 464 529 295 529 C148 529 50 446 50 260 L50 260 Z " />
<glyph glyph-name="Racute" unicode="&#x154;" horiz-adv-x="624" d="M338.5 830 L357.564 830 C373.062 830 400.741 845.063 409.156 858.077 L447.274 917.021 C466.15 946.212 447.763 980 413 980 L381.728 980 C358.923 980 331.147 960.231 323.677 938.684 L303.196 879.604 C294.228 853.734 311.12 830 338.5 830 L338.5 830 Z M590 50 L443.642 308.804 C435.166 323.793 407.38 340 390.161 340 L352.5 340 C317.174 340 297.771 306.76 315.141 276 L453.365 31.2287 C461.841 16.2193 489.627 0 506.864 0 L605.907 0 C611.702 0 614.875 5.46794 612 10.5 L606 21 C599 34 590 50 590 50 L590 50 Z M215 61.44 L215 286.5 C215 317.134 239.866 342 270.5 342 L326 342 C500 342 589 404 589 525 C589 674 500 750 326 750 L148.44 750 C114.527 750 87 722.473 87 688.56 L87 61.44 C87 27.527 114.527 0 148.44 0 L153.56 0 C187.473 0 215 27.527 215 61.44 L215 61.44 Z M215 413 L215 680 C215 710.358 239.642 735 270 735 L325 735 C415 735 461 664 461 525 C461 414 415 357 327 357 L271 357 C240.09 357 215 382.09 215 413 L215 413 Z " />
<glyph glyph-name="racute" unicode="&#x155;" horiz-adv-x="370" d="M210.5 600 L229.564 600 C245.062 600 272.741 615.063 281.156 628.077 L319.274 687.021 C338.15 716.212 319.763 750 285 750 L253.728 750 C230.923 750 203.147 730.231 195.677 708.684 L175.196 649.604 C166.228 623.734 183.12 600 210.5 600 L210.5 600 Z M350 507 L350 515 C350 517.76 347.76 520 345 520 L340 520 C264.1 520 218.828 470.314 196.323 387.227 C195.184 383.02 185 384.685 185 389.044 L185 462.5 C185 494.238 159.238 520 127.5 520 C95.7617 520 70 494.238 70 462.5 L70 57.5 C70 25.7617 95.7617 0 127.5 0 C159.238 0 185 25.7617 185 57.5 L185 230 C185 393 228 501 338 501 L344 501 C347.312 501 350 503.688 350 507 L350 507 Z " />
<glyph glyph-name="Rcaron" unicode="&#x158;" horiz-adv-x="624" d="M330.652 926.783 L290.651 963.706 C284.043 969.807 257.972 980 248.978 980 L220.5 980 C197.28 980 185.518 956.538 199.41 937.933 L261.571 854.681 C269.722 843.765 297.179 830 310.802 830 L365.198 830 C378.821 830 406.278 843.765 414.429 854.681 L476.59 937.933 C490.482 956.538 478.72 980 455.5 980 L433.72 980 C420.229 980 411.041 990.66 402.917 979.889 C401.041 977.403 367.918 933.734 346.535 922.578 C338.246 918.253 337.522 920.441 330.652 926.783 L330.652 926.783 Z M590 50 L443.642 308.804 C435.166 323.793 407.38 340 390.161 340 L352.5 340 C317.174 340 297.771 306.76 315.141 276 L453.365 31.2287 C461.841 16.2193 489.627 0 506.864 0 L605.907 0 C611.702 0 614.875 5.46794 612 10.5 L606 21 C599 34 590 50 590 50 L590 50 Z M215 61.44 L215 286.5 C215 317.134 239.866 342 270.5 342 L326 342 C500 342 589 404 589 525 C589 674 500 750 326 750 L148.44 750 C114.527 750 87 722.473 87 688.56 L87 61.44 C87 27.527 114.527 0 148.44 0 L153.56 0 C187.473 0 215 27.527 215 61.44 L215 61.44 Z M215 413 L215 680 C215 710.358 239.642 735 270 735 L325 735 C415 735 461 664 461 525 C461 414 415 357 327 357 L271 357 C240.09 357 215 382.09 215 413 L215 413 Z " />
<glyph glyph-name="rcaron" unicode="&#x159;" horiz-adv-x="370" d="M202.652 696.783 L162.651 733.706 C156.043 739.807 129.972 750 120.978 750 L92.5 750 C69.2802 750 57.518 726.538 71.4102 707.933 L133.571 624.681 C141.722 613.765 169.179 600 182.802 600 L237.198 600 C250.821 600 278.278 613.765 286.429 624.681 L348.59 707.933 C362.482 726.538 350.72 750 327.5 750 L305.72 750 C292.229 750 283.041 760.66 274.917 749.889 C273.041 747.403 239.918 703.734 218.535 692.578 C210.246 688.253 209.522 690.441 202.652 696.783 L202.652 696.783 Z M350 507 L350 515 C350 517.76 347.76 520 345 520 L340 520 C264.1 520 218.828 470.314 196.323 387.227 C195.184 383.02 185 384.685 185 389.044 L185 462.5 C185 494.238 159.238 520 127.5 520 C95.7617 520 70 494.238 70 462.5 L70 57.5 C70 25.7617 95.7617 0 127.5 0 C159.238 0 185 25.7617 185 57.5 L185 230 C185 393 228 501 338 501 L344 501 C347.312 501 350 503.688 350 507 L350 507 Z " />
<glyph glyph-name="Sacute" unicode="&#x15a;" horiz-adv-x="625" d="M303.5 830 L322.564 830 C338.062 830 365.741 845.063 374.156 858.077 L412.274 917.021 C431.15 946.212 412.763 980 378 980 L346.728 980 C323.923 980 296.147 960.231 288.677 938.684 L268.196 879.604 C259.228 853.734 276.12 830 303.5 830 L303.5 830 Z M543 608 C544.656 609.656 544.656 612.344 543 614 L540 617 C540 617 418 759 270 759 C130 759 36 674 36 546 C36 426 123 350 293 321 C404 302 461 263 461 206 C461 87 422 8 345 8 C236.775 8 136.155 66.9387 79.2875 180.182 C76.9123 184.912 71.2343 186.176 67 183 C62.5372 179.653 60.8912 172.884 63.3719 167.888 C121.457 50.8894 228 -9 345 -9 C506 -9 589 79 589 210 C589 340 500 422 328 451 C222 469 168 506 168 559 C168 669 209 742 270 742 C348 742 442.161 695.419 525.603 605.966 C527.446 603.99 533.839 600.379 536 602 L536.606 602.454 C536.871 602.653 542.766 607.766 543 608 L543 608 Z " />
<glyph glyph-name="sacute" unicode="&#x15b;" horiz-adv-x="524" d="M259.5 600 L278.564 600 C294.062 600 321.741 615.063 330.156 628.077 L368.274 687.021 C387.15 716.212 368.763 750 334 750 L302.728 750 C279.923 750 252.147 730.231 244.677 708.684 L224.196 649.604 C215.228 623.734 232.12 600 259.5 600 L259.5 600 Z M54 126 C91 48 179 -4 280 -4 C408 -4 494 55 494 143 C494 229 423 294 284 311 C207 320 168 350 168 387 C168 462 204 512 259 512 C331.15 512 403.3 458.765 441.156 378.247 C443.053 374.213 447.461 373.615 451.5 375.5 L453.323 376.351 C456.45 377.81 457.653 381.47 456 384.5 L453 390 C412 472 335 525 257 525 C137 525 57 466 57 378 C57 291 124 225 255 209 C336 199 377 169 377 132 C377 58 337 9 278 9 C182.45 9 98.3075 60.3337 65.4275 138.903 C64.549 141.002 61.1306 144.299 59 143.5 L58.0195 143.132 C57.845 143.067 52.2823 140.641 52.1157 140.558 L47 138 C47 137 53 126 53 126 L54 126 Z " />
<glyph glyph-name="Scircumflex" unicode="&#x15c;" horiz-adv-x="625" d="M311.535 887.422 C333.547 875.938 368 830 368 830 C368 830 364.807 830 398.72 830 L420.5 830 C443.72 830 455.482 853.462 441.59 872.067 L379.429 955.319 C371.278 966.235 343.821 980 330.198 980 L275.802 980 C262.179 980 234.722 966.235 226.571 955.319 L164.41 872.067 C150.518 853.462 162.28 830 185.5 830 L213.978 830 C222.972 830 249.043 840.193 255.651 846.294 L295.652 883.217 C302.522 889.559 303.246 891.747 311.535 887.422 L311.535 887.422 Z M543 608 C544.656 609.656 544.656 612.344 543 614 L540 617 C540 617 418 759 270 759 C130 759 36 674 36 546 C36 426 123 350 293 321 C404 302 461 263 461 206 C461 87 422 8 345 8 C236.775 8 136.155 66.9387 79.2875 180.182 C76.9123 184.912 71.2343 186.176 67 183 C62.5372 179.653 60.8912 172.884 63.3719 167.888 C121.457 50.8894 228 -9 345 -9 C506 -9 589 79 589 210 C589 340 500 422 328 451 C222 469 168 506 168 559 C168 669 209 742 270 742 C348 742 442.161 695.419 525.603 605.966 C527.446 603.99 533.839 600.379 536 602 L536.606 602.454 C536.871 602.653 542.766 607.766 543 608 L543 608 Z " />
<glyph glyph-name="Scedilla" unicode="&#x15e;" horiz-adv-x="625" d="M300 -106 C300 -107 300 -107 300 -107 L300 -107 L300 -106 L300 -106 Z M335 -93 C356 -93 370 -113 370 -144 C370 -175 355 -196 332 -196 C311.76 -196 298.291 -185.843 297.823 -170.98 C297.78 -169.612 295.968 -169.032 295 -170 C293.895 -171.105 291.798 -174.938 291.666 -176.495 C287.859 -221.531 304.775 -251 335 -251 C395 -251 435 -208 435 -144 C435 -109 395 -85 336 -85 C324.625 -85 314.57 -88.3008 307.981 -93.8296 C307.544 -94.1969 305.833 -93.9684 306.069 -93.4482 L327.629 -46.0159 C334.791 -30.26 361.886 -10.0201 379.131 -8.54959 C518.128 3.30312 590 86.9 590 209 C590 339 501 421 329 450 C223 468 169 505 169 558 C169 668 210 741 271 741 C351 741 448 692 533 598 C534.706 596.113 534.569 599.345 536.5 601 L540 604 L543 607 C544.656 608.656 544.656 611.344 543 613 L540 616 C540 616 418 758 270 758 C130 758 36 673 36 545 C36 425 123 349 293 320 C404 301 461 262 461 205 C461 86 422 7 345 7 C236.775 7 136.155 65.9387 79.2875 179.182 C76.9123 183.912 71.2343 185.176 67 182 C62.5378 178.653 60.802 172.098 63.2931 167.107 C111.536 70.4597 193.146 12.6592 286.224 -4.61012 C309.485 -8.92582 326.255 -35.9472 316.5 -57.5 L296.202 -102.344 C295.543 -103.8 296.129 -105.678 297.5 -106.5 C298.613 -107.168 300.913 -106.165 301.677 -105.115 C307.043 -97.7407 319.389 -93 334.5 -93 L335 -93 Z " />
<glyph glyph-name="scedilla" unicode="&#x15f;" horiz-adv-x="524" d="M234 -106 C234 -107 234 -107 234 -107 L234 -107 L234 -106 L234 -106 Z M269 -93 C290 -93 304 -113 304 -144 C304 -175 289 -196 266 -196 C245.76 -196 232.291 -185.843 231.823 -170.98 C231.78 -169.612 229.968 -169.032 229 -170 C227.895 -171.105 225.798 -174.938 225.666 -176.495 C221.859 -221.531 238.775 -251 269 -251 C329 -251 369 -208 369 -144 C369 -109 329 -85 270 -85 C258.625 -85 248.57 -88.3008 241.981 -93.8296 C241.522 -94.2154 239.775 -93.9741 240.017 -93.4249 L262.84 -41.6552 C269.825 -25.8117 298.861 -4.92331 316.096 -3.26 C423.34 7.09 493 62.8 493 142 C493 228 422 293 283 310 C206 319 167 349 167 386 C167 461 203 511 258 511 C330.15 511 402.3 457.765 440.156 377.247 C442.053 373.213 446.461 372.615 450.5 374.5 L452.323 375.351 C455.45 376.81 456.653 380.47 455 383.5 L452 389 C411 471 334 524 256 524 C136 524 56 465 56 377 C56 290 123 224 254 208 C335 198 376 168 376 131 C376 57 336 8 277 8 C181.45 8 97.3075 59.3337 64.4275 137.903 C63.549 140.002 60.1306 143.299 58 142.5 L57.0195 142.132 C56.845 142.067 51.2823 139.641 51.1157 139.558 L46 137 C47 134 51 129 51 126 C80.7 62.475 143.751 16.6463 219.937 1.42861 C241.453 -2.86891 259.098 -28.7774 250.262 -48.8598 L227.174 -101.331 C226.531 -102.793 227.131 -104.679 228.5 -105.5 C229.592 -106.155 231.852 -105.293 232.618 -104.277 C238.18 -96.903 251.789 -92.5 267 -92.5 L269 -93 Z " />
<glyph glyph-name="Scaron" unicode="&#x160;" horiz-adv-x="625" d="M295.652 926.783 L255.651 963.706 C249.043 969.807 222.972 980 213.978 980 L185.5 980 C162.28 980 150.518 956.538 164.41 937.933 L226.571 854.681 C234.722 843.765 262.179 830 275.802 830 L330.198 830 C343.821 830 371.278 843.765 379.429 854.681 L441.59 937.933 C455.482 956.538 443.72 980 420.5 980 L398.72 980 C385.229 980 376.041 990.66 367.917 979.889 C366.041 977.403 332.918 933.734 311.535 922.578 C303.246 918.253 302.522 920.441 295.652 926.783 L295.652 926.783 Z M543 608 C544.656 609.656 544.656 612.344 543 614 L540 617 C540 617 418 759 270 759 C130 759 36 674 36 546 C36 426 123 350 293 321 C404 302 461 263 461 206 C461 87 422 8 345 8 C236.775 8 136.155 66.9387 79.2875 180.182 C76.9123 184.912 71.2343 186.176 67 183 C62.5372 179.653 60.8912 172.884 63.3719 167.888 C121.457 50.8894 228 -9 345 -9 C506 -9 589 79 589 210 C589 340 500 422 328 451 C222 469 168 506 168 559 C168 669 209 742 270 742 C348 742 442.161 695.419 525.603 605.966 C527.446 603.99 533.839 600.379 536 602 L536.606 602.454 C536.871 602.653 542.766 607.766 543 608 L543 608 Z " />
<glyph glyph-name="scaron" unicode="&#x161;" horiz-adv-x="524" d="M251.652 696.783 L211.651 733.706 C205.043 739.807 178.972 750 169.978 750 L141.5 750 C118.28 750 106.518 726.538 120.41 707.933 L182.571 624.681 C190.722 613.765 218.179 600 231.802 600 L286.198 600 C299.821 600 327.278 613.765 335.429 624.681 L397.59 707.933 C411.482 726.538 399.72 750 376.5 750 L354.72 750 C341.229 750 332.041 760.66 323.917 749.889 C322.041 747.403 288.918 703.734 267.535 692.578 C259.246 688.253 258.522 690.441 251.652 696.783 L251.652 696.783 Z M54 126 C91 48 179 -4 280 -4 C408 -4 494 55 494 143 C494 229 423 294 284 311 C207 320 168 350 168 387 C168 462 204 512 259 512 C331.15 512 403.3 458.765 441.156 378.247 C443.053 374.213 447.461 373.615 451.5 375.5 L453.323 376.351 C456.45 377.81 457.653 381.47 456 384.5 L453 390 C412 472 335 525 257 525 C137 525 57 466 57 378 C57 291 124 225 255 209 C336 199 377 169 377 132 C377 58 337 9 278 9 C182.45 9 98.3075 60.3337 65.4275 138.903 C64.549 141.002 61.1306 144.299 59 143.5 L58.0195 143.132 C57.845 143.067 52.2823 140.641 52.1157 140.558 L47 138 C47 137 53 126 53 126 L54 126 Z " />
<glyph glyph-name="Tcaron" unicode="&#x164;" horiz-adv-x="595" d="M290.652 926.783 L250.651 963.706 C244.043 969.807 217.972 980 208.978 980 L180.5 980 C157.28 980 145.518 956.538 159.41 937.933 L221.571 854.681 C229.722 843.765 257.179 830 270.802 830 L325.198 830 C338.821 830 366.278 843.765 374.429 854.681 L436.59 937.933 C450.482 956.538 438.72 980 415.5 980 L393.72 980 C380.229 980 371.041 990.66 362.917 979.889 C361.041 977.403 327.918 933.734 306.535 922.578 C298.246 918.253 297.522 920.441 290.652 926.783 L290.652 926.783 Z M577 750 L18 750 C13.5842 750 10 746.416 10 742 C10 737.584 13.5842 734 18 734 L171.56 734 C205.473 734 233 706.473 233 672.56 L233 61.44 C233 27.527 260.527 0 294.44 0 L300.56 0 C334.473 0 362 27.527 362 61.44 L362 672.56 C362 706.473 389.527 734 423.44 734 L577 734 C581.416 734 585 737.584 585 742 C585 746.416 581.416 750 577 750 L577 750 Z " />
<glyph glyph-name="tcaron" unicode="&#x165;" horiz-adv-x="345" d="M255 697.56 L255 651.5 C255 628.041 274.041 609 297.5 609 C320.167 609 345.11 628.164 350.951 650.065 L363.896 698.61 C372.485 730.818 350.833 759 317.5 759 L316.44 759 C282.527 759 255 731.473 255 697.56 L255 697.56 Z M308.5 520 L260 520 C229.642 520 205 544.642 205 575 L205 676.098 C205 707.837 171.865 723.339 147.5 703 L112.067 673.421 C102.716 665.615 90 638.435 90 626.255 L90 560 C90 537.921 72.0788 520 50 520 L16.5 520 C12.9122 520 10 517.088 10 513.5 C10 509.912 12.9122 507 16.5 507 L50 507 C72.0788 507 90 489.079 90 467 L90 145 C90 36 95 0 203 0 L308 0 C311.864 0 315 3.13621 315 7 C315 10.8638 311.864 14 308 14 L210 14 C205 14 205 47 205 145 L205 452 C205 482.358 229.642 507 260 507 L308.5 507 C312.088 507 315 509.912 315 513.5 C315 517.088 312.088 520 308.5 520 L308.5 520 Z " />
<glyph glyph-name="Utilde" unicode="&#x168;" horiz-adv-x="704" d="M272.756 841.734 C275.033 871.149 282.333 890 293 890 C327 890 366 812 419 812 C417 812 411 902 411 902 C411 902 414.969 857.351 414.993 857.077 L416.388 841.384 C418.438 818.327 426.663 808.812 448.036 817.703 C482.743 832.141 506.823 873.108 514.432 930.454 C517.923 956.768 501.044 971 474.5 971 L452.5 971 C442.058 971 432.05 960.677 431.244 950.266 C429.394 926.366 424.228 909.44 416.634 903.934 C410.802 899.704 415.811 896.907 410.865 902.144 C407.363 905.851 336.675 980 285 980 C285.826 980 287.335 964.987 288.962 947.363 C288.963 947.35 289.023 946.99 289.022 947.002 L288 958.5 C286.563 974.663 280.441 982.56 264.85 978.064 C225.915 966.838 198.741 924.14 190.568 862.546 C187.113 836.503 203.731 821.813 230 821.5 L251.501 821.244 C261.952 821.12 271.949 831.314 272.756 841.734 L272.756 841.734 Z M606 741.5 L606 299 C606 108 520 10 353 10 C258 10 209 113 209 313 L209 689.56 C209 723.473 181.473 751 147.56 751 L142.44 751 C108.527 751 81 723.473 81 689.56 L81 290 C81 93 173 -8 353 -8 C533 -8 625 95 625 295 L625 741.5 C625 746.744 620.744 751 615.5 751 C610.256 751 606 746.744 606 741.5 L606 741.5 Z " />
<glyph glyph-name="utilde" unicode="&#x169;" horiz-adv-x="550" d="M193.756 620.734 C196.033 650.149 203.333 669 214 669 C248 669 287 591 340 591 C338 591 332 681 332 681 C332 681 335.969 636.351 335.993 636.077 L337.388 620.384 C339.438 597.327 347.663 587.812 369.036 596.703 C403.743 611.141 427.823 652.108 435.432 709.454 C438.923 735.768 422.044 750 395.5 750 L373.5 750 C363.058 750 353.05 739.677 352.244 729.266 C350.394 705.366 345.228 688.44 337.634 682.934 C331.802 678.704 336.811 675.907 331.865 681.144 C328.363 684.851 257.675 759 206 759 C206.826 759 208.335 743.987 209.962 726.363 C209.963 726.35 210.023 725.99 210.022 726.002 L209 737.5 C207.563 753.663 201.441 761.56 185.85 757.064 C146.915 745.838 119.741 703.14 111.568 641.546 C108.113 615.503 124.731 600.813 151 600.5 L172.501 600.244 C182.952 600.12 192.949 610.314 193.756 620.734 L193.756 620.734 Z M481 58.5 L481 463.5 C481 495.238 455.238 521 423.5 521 C391.762 521 366 495.238 366 463.5 L366 149 C366 64 313 8 233 8 C192 8 181 74 181 201 L181 463.5 C181 495.238 155.238 521 123.5 521 C91.7617 521 66 495.238 66 463.5 L66 201 C66 63 102 -8 228 -8 C286.575 -8 331.538 21.2669 354.465 69.6933 C356.288 73.5437 366 72.3315 366 68.0715 L366 52 C366 23.8495 388.85 1 417 1 L423.5 1 C455.238 1 481 26.7617 481 58.5 L481 58.5 Z " />
<glyph glyph-name="Umacron" unicode="&#x16a;" horiz-adv-x="704" d="M252 821 L452 821 C474.079 821 492 838.921 492 861 C492 883.079 474.079 901 452 901 L252 901 C229.921 901 212 883.079 212 861 C212 838.921 229.921 821 252 821 L252 821 Z M605 740.5 L605 298 C605 107 519 9 352 9 C257 9 208 112 208 312 L208 688.56 C208 722.473 180.473 750 146.56 750 L141.44 750 C107.527 750 80 722.473 80 688.56 L80 289 C80 92 172 -9 352 -9 C532 -9 624 94 624 294 L624 740.5 C624 745.744 619.744 750 614.5 750 C609.256 750 605 745.744 605 740.5 L605 740.5 Z " />
<glyph glyph-name="umacron" unicode="&#x16b;" horiz-adv-x="550" d="M173 600 L373 600 C395.079 600 413 617.921 413 640 C413 662.079 395.079 680 373 680 L173 680 C150.921 680 133 662.079 133 640 C133 617.921 150.921 600 173 600 L173 600 Z M480 57.5 L480 462.5 C480 494.238 454.238 520 422.5 520 C390.762 520 365 494.238 365 462.5 L365 148 C365 63 312 7 232 7 C191 7 180 73 180 200 L180 462.5 C180 494.238 154.238 520 122.5 520 C90.7617 520 65 494.238 65 462.5 L65 200 C65 62 101 -9 227 -9 C285.575 -9 330.538 20.2669 353.465 68.6933 C355.288 72.5437 365 71.3315 365 67.0715 L365 51 C365 22.8495 387.85 0 416 0 L422.5 0 C454.238 0 480 25.7617 480 57.5 L480 57.5 Z " />
<glyph glyph-name="Ubreve" unicode="&#x16c;" horiz-adv-x="704" d="M206.357 913.583 C222.949 851.476 276.925 812 352 812 C427.075 812 481.051 851.476 497.643 913.583 C505.26 942.097 490.014 956 460.5 956 L437 956 C429.167 956 417.658 944.805 415.676 937.228 C408.471 909.696 385 892 352 892 C319 892 295.529 909.696 288.324 937.228 C286.342 944.805 274.833 956 267 956 L243.5 956 C213.986 956 198.74 942.097 206.357 913.583 L206.357 913.583 Z M605 740.5 L605 298 C605 107 519 9 352 9 C257 9 208 112 208 312 L208 688.56 C208 722.473 180.473 750 146.56 750 L141.44 750 C107.527 750 80 722.473 80 688.56 L80 289 C80 92 172 -9 352 -9 C532 -9 624 94 624 294 L624 740.5 C624 745.744 619.744 750 614.5 750 C609.256 750 605 745.744 605 740.5 L605 740.5 Z " />
<glyph glyph-name="ubreve" unicode="&#x16d;" horiz-adv-x="550" d="M126.438 692.583 C143.269 630.476 197.925 591 273 591 C348.075 591 402.051 630.476 418.643 692.583 C426.26 721.097 411.014 735 381.5 735 L358 735 C350.167 735 338.658 723.805 336.676 716.228 C329.471 688.696 306 671 273 671 C240 671 215.848 688.696 208.406 716.228 C206.383 723.71 194.751 735 187 735 L163.5 735 C133.905 735 118.698 721.148 126.438 692.583 L126.438 692.583 Z M480 57.5 L480 462.5 C480 494.238 454.238 520 422.5 520 C390.762 520 365 494.238 365 462.5 L365 148 C365 63 312 7 232 7 C191 7 180 73 180 200 L180 462.5 C180 494.238 154.238 520 122.5 520 C90.7617 520 65 494.238 65 462.5 L65 200 C65 62 101 -9 227 -9 C285.575 -9 330.538 20.2669 353.465 68.6933 C355.288 72.5437 365 71.3315 365 67.0715 L365 51 C365 22.8495 387.85 0 416 0 L422.5 0 C454.238 0 480 25.7617 480 57.5 L480 57.5 Z " />
<glyph glyph-name="Uring" unicode="&#x16e;" horiz-adv-x="704" d="M324 906 C324 926 334 937 352 937 C370 937 381 926 381 906 C381 885 371 874 352 874 C334 874 324 885 324 906 L324 906 Z M267 906 C267 850 296 821 352 821 C409 821 438 850 438 906 C438 959 406 990 352 990 C298 990 267 959 267 906 L267 906 Z M605 740.5 L605 298 C605 107 519 9 352 9 C257 9 208 112 208 312 L208 688.56 C208 722.473 180.473 750 146.56 750 L141.44 750 C107.527 750 80 722.473 80 688.56 L80 289 C80 92 172 -9 352 -9 C532 -9 624 94 624 294 L624 740.5 C624 745.744 619.744 750 614.5 750 C609.256 750 605 745.744 605 740.5 L605 740.5 Z " />
<glyph glyph-name="uring" unicode="&#x16f;" horiz-adv-x="550" d="M244 685 C244 705 255 716 273 716 C291 716 301 705 301 685 C301 664 291 653 273 653 C254 653 244 664 244 685 L244 685 Z M187 685 C187 629 216 600 273 600 C329 600 358 629 358 685 C358 738 327 769 273 769 C219 769 187 738 187 685 L187 685 Z M480 57.5 L480 462.5 C480 494.238 454.238 520 422.5 520 C390.762 520 365 494.238 365 462.5 L365 148 C365 63 312 7 232 7 C191 7 180 73 180 200 L180 462.5 C180 494.238 154.238 520 122.5 520 C90.7617 520 65 494.238 65 462.5 L65 200 C65 62 101 -9 227 -9 C285.575 -9 330.538 20.2669 353.465 68.6933 C355.288 72.5437 365 71.3315 365 67.0715 L365 51 C365 22.8495 387.85 0 416 0 L422.5 0 C454.238 0 480 25.7617 480 57.5 L480 57.5 Z " />
<glyph glyph-name="Wcircumflex" unicode="&#x174;" horiz-adv-x="793" d="M406.535 887.422 C428.547 875.938 463 830 463 830 C463 830 459.807 830 493.72 830 L515.5 830 C538.72 830 550.482 853.462 536.59 872.067 L474.429 955.319 C466.278 966.235 438.821 980 425.198 980 L370.802 980 C357.179 980 329.722 966.235 321.571 955.319 L259.41 872.067 C245.518 853.462 257.28 830 280.5 830 L308.978 830 C317.972 830 344.043 840.193 350.651 846.294 L390.652 883.217 C397.522 889.559 398.246 891.747 406.535 887.422 L406.535 887.422 Z M761.315 740.637 L754 700 L697 374 C686.11 311.715 591.977 311.374 580.635 373.578 L521.193 699.581 C516.201 726.959 488.58 750 460.75 750 L439.296 750 C411.437 750 383.816 726.94 378.843 699.528 L322.015 386.303 C310.843 324.725 216.888 325.703 207 387.5 L153 725 C151 740 149 750 149 750 C149 750 147.334 750 143.901 750 L17.0249 750 C14.2516 750 11.7248 752.607 12.0157 749.849 C12.1531 748.546 13.2143 738.929 16 725 L20 703 L136.931 50.6007 C141.858 23.1087 169.477 0 197.407 0 L217.802 0 C245.598 0 273.221 23.0177 278.235 50.3579 L336.568 368.455 C348.404 432.998 445.596 432.998 457.432 368.455 L515.765 50.3579 C520.779 23.0177 548.402 0 576.198 0 L597.515 0 C625.516 0 653.778 26.8933 658.659 54.4656 C698.311 278.439 737.3 503.075 778 726 C781 741 782 751 782 751 C782 751 779.359 750.861 776.982 750.736 L772.5 750.5 C767.395 750.231 762.22 745.668 761.315 740.637 L761.315 740.637 Z " />
<glyph glyph-name="Ycircumflex" unicode="&#x176;" horiz-adv-x="600" d="M312.535 887.422 C334.547 875.938 369 830 369 830 C369 830 365.807 830 399.72 830 L421.5 830 C444.72 830 456.482 853.462 442.59 872.067 L380.429 955.319 C372.278 966.235 344.821 980 331.198 980 L276.802 980 C263.179 980 235.722 966.235 227.571 955.319 L165.41 872.067 C151.518 853.462 163.28 830 186.5 830 L214.978 830 C223.972 830 250.043 840.193 256.651 846.294 L296.652 883.217 C303.522 889.559 304.246 891.747 312.535 887.422 L312.535 887.422 Z M133.338 750 L30.2098 750 C23.8622 750 20.3766 744.026 23.5 738.5 L30 727 C38 713 45 700 45 700 L245.117 344.022 C247.249 340.229 253 318.265 253 313.914 L253 61.44 C253 27.527 280.527 0 314.44 0 L319.56 0 C353.473 0 381 27.527 381 61.44 L381 355.182 C381 359.398 386.602 381.159 388.638 384.851 L585.413 741.681 C587.63 745.702 585.092 750 580.5 750 C575.914 750 573.156 753.883 570.93 749.873 C569.816 747.867 555.8 722.6 551 713 L372.072 384.965 C370.131 381.407 363.551 377.369 359.5 377.25 C355.329 377.127 348.905 380.79 346.886 384.442 L173 699 C173 699 161.745 720.455 151.035 739.175 C148.193 744.143 139.061 750 133.338 750 L133.338 750 Z " />
<glyph glyph-name="Ydieresis" unicode="&#x178;" horiz-adv-x="600" d="M382.44 830 L384.56 830 C418.473 830 446 857.527 446 891.44 L446 893.56 C446 927.473 418.473 955 384.56 955 L382.44 955 C348.527 955 321 927.473 321 893.56 L321 891.44 C321 857.527 348.527 830 382.44 830 L382.44 830 Z M222.44 830 L224.56 830 C258.473 830 286 857.527 286 891.44 L286 893.56 C286 927.473 258.473 955 224.56 955 L222.44 955 C188.527 955 161 927.473 161 893.56 L161 891.44 C161 857.527 188.527 830 222.44 830 L222.44 830 Z M133.338 750 L30.2098 750 C23.8622 750 20.3766 744.026 23.5 738.5 L30 727 C38 713 45 700 45 700 L245.117 344.022 C247.249 340.229 253 318.265 253 313.914 L253 61.44 C253 27.527 280.527 0 314.44 0 L319.56 0 C353.473 0 381 27.527 381 61.44 L381 355.182 C381 359.398 386.602 381.159 388.638 384.851 L585.413 741.681 C587.63 745.702 585.092 750 580.5 750 C575.914 750 573.156 753.883 570.93 749.873 C569.816 747.867 555.8 722.6 551 713 L372.072 384.965 C370.131 381.407 363.551 377.369 359.5 377.25 C355.329 377.127 348.905 380.79 346.886 384.442 L173 699 C173 699 161.745 720.455 151.035 739.175 C148.193 744.143 139.061 750 133.338 750 L133.338 750 Z " />
<glyph glyph-name="Zacute" unicode="&#x179;" horiz-adv-x="655" d="M335.5 830 L354.564 830 C370.062 830 397.741 845.063 406.156 858.077 L444.274 917.021 C463.15 946.212 444.763 980 410 980 L378.728 980 C355.923 980 328.147 960.231 320.677 938.684 L300.196 879.604 C291.228 853.734 308.12 830 335.5 830 L335.5 830 Z M602 16 L295.377 16 C244.28 16 216.518 64.5203 242.409 108.572 L605.946 727.103 C607.08 729.032 610 739.763 610 742 C610 746.416 606.416 750 602 750 L68 750 C63.5842 750 60 746.416 60 742 C60 737.584 63.5842 734 68 734 L359.623 734 C410.72 734 438.482 685.48 412.591 641.428 L49.0536 22.897 C47.9199 20.968 45 10.2375 45 8 C45 3.58424 48.5842 0 53 0 L602 0 C606.416 0 610 3.58424 610 8 C610 12.4158 606.416 16 602 16 L602 16 Z " />
<glyph glyph-name="zacute" unicode="&#x17a;" horiz-adv-x="460" d="M242.5 600 L261.75 600 C277.115 600 304.782 614.973 313.186 627.835 L351.979 687.213 C370.934 716.226 352.657 750 318 750 L286.454 750 C263.839 750 236.058 730.352 228.523 709.029 L207.49 649.501 C198.388 623.739 215.177 600 242.5 600 L242.5 600 Z M390 162.5 C390 160.568 391.568 159 393.5 159 L436.5 159 C438.432 159 440 160.568 440 162.5 C440 164.432 438.432 166 436.5 166 L393.5 166 C391.568 166 390 164.432 390 162.5 L390 162.5 Z M51.5 507 L145 507 C236.65 507 328.3 507.951 417.169 509.852 C419.93 509.911 424 512.239 424 515 C424 517.76 421.76 520 419 520 L51.5 520 C47.9122 520 45 517.088 45 513.5 C45 509.912 47.9122 507 51.5 507 L51.5 507 Z M30 5.5 C30 2.46416 32.4642 0 35.5 0 L433 0 C436.864 0 440 3.13621 440 7 C440 10.8622 435.459 14.0002 431.596 14.0018 C333.512 14.0428 234.011 14.7537 137.114 12.785 C134.801 12.738 131.219 16.6134 133.5 17 C146.381 19.1832 170.939 36.8699 177.092 48.3946 L390.697 448.494 C405.977 477.115 386.902 507.156 354.5 505.5 L321.097 503.793 C304.399 502.94 277.483 485.664 269.753 470.838 L32.5428 15.8769 C31.8939 14.6324 30 6.90352 30 5.5 L30 5.5 Z " />
<glyph glyph-name="Zdot" unicode="&#x17b;" horiz-adv-x="655" d="M334.44 830 L336.56 830 C370.473 830 398 857.527 398 891.44 L398 893.56 C398 927.473 370.473 955 336.56 955 L334.44 955 C300.527 955 273 927.473 273 893.56 L273 891.44 C273 857.527 300.527 830 334.44 830 L334.44 830 Z M602 16 L295.377 16 C244.28 16 216.518 64.5203 242.409 108.572 L605.946 727.103 C607.08 729.032 610 739.763 610 742 C610 746.416 606.416 750 602 750 L68 750 C63.5842 750 60 746.416 60 742 C60 737.584 63.5842 734 68 734 L359.623 734 C410.72 734 438.482 685.48 412.591 641.428 L49.0536 22.897 C47.9199 20.968 45 10.2375 45 8 C45 3.58424 48.5842 0 53 0 L602 0 C606.416 0 610 3.58424 610 8 C610 12.4158 606.416 16 602 16 L602 16 Z " />
<glyph glyph-name="zdot" unicode="&#x17c;" horiz-adv-x="460" d="M241.44 600 L243.56 600 C277.473 600 305 627.527 305 661.44 L305 663.56 C305 697.473 277.473 725 243.56 725 L241.44 725 C207.527 725 180 697.473 180 663.56 L180 661.44 C180 627.527 207.527 600 241.44 600 L241.44 600 Z M390 162.5 C390 160.568 391.568 159 393.5 159 L436.5 159 C438.432 159 440 160.568 440 162.5 C440 164.432 438.432 166 436.5 166 L393.5 166 C391.568 166 390 164.432 390 162.5 L390 162.5 Z M51.5 507 L145 507 C236.65 507 328.3 507.951 417.169 509.852 C419.93 509.911 424 512.239 424 515 C424 517.76 421.76 520 419 520 L51.5 520 C47.9122 520 45 517.088 45 513.5 C45 509.912 47.9122 507 51.5 507 L51.5 507 Z M30 5.5 C30 2.46416 32.4642 0 35.5 0 L433 0 C436.864 0 440 3.13621 440 7 C440 10.8622 435.459 14.0002 431.596 14.0018 C333.512 14.0428 234.011 14.7537 137.114 12.785 C134.801 12.738 131.219 16.6134 133.5 17 C146.381 19.1832 170.939 36.8699 177.092 48.3946 L390.697 448.494 C405.977 477.115 386.902 507.156 354.5 505.5 L321.097 503.793 C304.399 502.94 277.483 485.664 269.753 470.838 L32.5428 15.8769 C31.8939 14.6324 30 6.90352 30 5.5 L30 5.5 Z " />
<glyph glyph-name="Zcaron" unicode="&#x17d;" horiz-adv-x="655" d="M327.652 926.783 L287.651 963.706 C281.043 969.807 254.972 980 245.978 980 L217.5 980 C194.28 980 182.518 956.538 196.41 937.933 L258.571 854.681 C266.722 843.765 294.179 830 307.802 830 L362.198 830 C375.821 830 403.278 843.765 411.429 854.681 L473.59 937.933 C487.482 956.538 475.72 980 452.5 980 L430.72 980 C417.229 980 408.041 990.66 399.917 979.889 C398.041 977.403 364.918 933.734 343.535 922.578 C335.246 918.253 334.522 920.441 327.652 926.783 L327.652 926.783 Z M602 16 L295.377 16 C244.28 16 216.518 64.5203 242.409 108.572 L605.946 727.103 C607.08 729.032 610 739.763 610 742 C610 746.416 606.416 750 602 750 L68 750 C63.5842 750 60 746.416 60 742 C60 737.584 63.5842 734 68 734 L359.623 734 C410.72 734 438.482 685.48 412.591 641.428 L49.0536 22.897 C47.9199 20.968 45 10.2375 45 8 C45 3.58424 48.5842 0 53 0 L602 0 C606.416 0 610 3.58424 610 8 C610 12.4158 606.416 16 602 16 L602 16 Z " />
<glyph glyph-name="zcaron" unicode="&#x17e;" horiz-adv-x="460" d="M235.652 696.783 L195.651 733.706 C189.043 739.807 162.972 750 153.978 750 L125.5 750 C102.28 750 90.518 726.538 104.41 707.933 L166.571 624.681 C174.722 613.765 202.179 600 215.802 600 L270.198 600 C283.821 600 311.278 613.765 319.429 624.681 L381.59 707.933 C395.482 726.538 383.72 750 360.5 750 L338.72 750 C325.229 750 316.041 760.66 307.917 749.889 C306.041 747.403 272.918 703.734 251.535 692.578 C243.246 688.253 242.522 690.441 235.652 696.783 L235.652 696.783 Z M390 162.5 C390 160.568 391.568 159 393.5 159 L436.5 159 C438.432 159 440 160.568 440 162.5 C440 164.432 438.432 166 436.5 166 L393.5 166 C391.568 166 390 164.432 390 162.5 L390 162.5 Z M51.5 507 L145 507 C236.65 507 328.3 507.951 417.169 509.852 C419.93 509.911 424 512.239 424 515 C424 517.76 421.76 520 419 520 L51.5 520 C47.9122 520 45 517.088 45 513.5 C45 509.912 47.9122 507 51.5 507 L51.5 507 Z M30 5.5 C30 2.46416 32.4642 0 35.5 0 L433 0 C436.864 0 440 3.13621 440 7 C440 10.8622 435.459 14.0002 431.596 14.0018 C333.512 14.0428 234.011 14.7537 137.114 12.785 C134.801 12.738 131.219 16.6134 133.5 17 C146.381 19.1832 170.939 36.8699 177.092 48.3946 L390.697 448.494 C405.977 477.115 386.902 507.156 354.5 505.5 L321.097 503.793 C304.399 502.94 277.483 485.664 269.753 470.838 L32.5428 15.8769 C31.8939 14.6324 30 6.90352 30 5.5 L30 5.5 Z " />
<glyph glyph-name="oogonek" unicode="&#x1eb;" horiz-adv-x="754" d="M184 298 C184 466 268 592 380 592 C491 592 575 466 575 298 C575 193.475 547.62 110.341 500.775 59.6772 C493.784 52.1174 482.887 51.863 474.419 57.7203 C453.796 71.9848 434.228 87.8384 417.824 104.859 C415.318 107.46 410.685 107.916 408 105.5 C405.24 103.016 405.032 98.7743 407.536 96.0323 L455.808 43.1631 C461.874 36.5191 460.438 28.0739 452.513 23.8154 C430.758 12.1256 406.4 6 380 6 C262 6 184 122.5 184 298.5 L184 298 Z M60 299 C60 115 188 -8 380 -8 C412.175 -8 442.308 -4.59688 470.399 2.20937 C478.158 4.08924 494.1 -0.0409269 499.309 -6.08994 C544.187 -58.1975 569 -89 569 -89 C569 -89 577.223 -81.3731 585.946 -73.2816 L618.519 -43.0692 C628.056 -34.2238 650.134 -29.4017 637.907 -24.9663 C635.929 -24.2488 602.655 -12.0913 560.613 8.94617 C548.316 15.0996 549.948 32.7318 561.677 39.909 C646.97 92.1 698 183.9 698 300 C698 476 561 608 379 608 C197 608 59.5 475.5 59.5 299.5 L60 299 Z " />
<glyph glyph-name="Adotabove" unicode="&#x226;" horiz-adv-x="754" d="M393.44 830 L395.56 830 C429.473 830 457 857.527 457 891.44 L457 893.56 C457 927.473 429.473 955 395.56 955 L393.44 955 C359.527 955 332 927.473 332 893.56 L332 891.44 C332 857.527 359.527 830 393.44 830 L393.44 830 Z M513 251.5 C512.932 251.722 512.87 253.04 512.952 252.823 C538.349 185.501 564.625 117.275 589 50 L594 38 L601 19.5 C604.614 9.94938 617.569 1 627.78 1 L739.78 1 C742.55 1 745.763 -1.49803 744.954 1.15124 C744.556 2.45408 741.571 12.0714 736 26 L727 48 L476.02 711.303 C468.266 731.797 440.468 751 418.556 751 L344.472 751 C332.881 751 318.126 740.832 314 730 L306 709 C304 705 72 89 48 26 C42 11 39 1 39 1 C39 1 42.0763 1 44.2202 1 L50.9861 1 C55.6637 1 61.5695 5.45677 63.1357 9.86431 C68.1172 23.8828 73.2174 37.7826 79 51 L137.019 205.983 C144.771 226.691 172.618 245.943 194.729 245.882 L508.199 245.019 C511.784 245.009 514.054 248.074 513 251.5 L513 251.5 Z M188.211 344.053 L276.324 578.523 C297.246 634.196 370.572 634.128 391.39 578.416 L479.005 343.946 C495.031 301.059 467.236 261 421.452 261 L245.724 261 C199.881 261 172.085 301.14 188.211 344.053 L188.211 344.053 Z " />
</font>
</svg>
